<?xml version="1.0" encoding="UTF-8"?>
<svg id="Capa_1" data-name="Capa 1" xmlns="http://www.w3.org/2000/svg" viewBox="0 0 2391.48 975.49">
  <defs>
    <style>
      .cls-1 {
        fill: #33403e;
      }
    </style>
  </defs>
  <g>
    <path class="cls-1" d="M437.37,327.06h-175.73L26.74,908.03h173.93l26.9-75.31h243.86l26.9,75.31h173.93l-234.9-580.97ZM273.3,701.82l69.03-196.35c5.38-15.24,7.17-23.31,7.17-23.31.9,3.59,1.79,8.97,7.17,23.31l69.03,196.35h-152.41Z"/>
    <path class="cls-1" d="M1345.57,327.06h-145.24l-113.86,163.17c-18.83,27.79-49.31,75.31-49.31,75.31,0,0-30.48-47.52-49.31-75.31l-113.86-163.17h-145.24v580.97h170.35v-292.28s28.69,45.73,44.83,68.14l93.24,129.11,92.35-129.11c16.14-22.41,45.72-69.93,45.72-69.93v294.07h170.35V327.06Z"/>
    <polygon class="cls-1" points="1789.35 544.03 1614.52 544.03 1614.52 327.06 1444.17 327.06 1444.17 908.03 1614.52 908.03 1614.52 688.37 1789.35 688.37 1789.35 908.03 1959.69 908.03 1959.69 327.06 1789.35 327.06 1789.35 544.03"/>
    <rect class="cls-1" x="2058.31" y="327.06" width="170.35" height="580.97"/>
    <rect class="cls-1" x="1175.69" y="930.28" width="169.71" height="45.21"/>
    <rect class="cls-1" x="2058.27" y="257.09" width="170.38" height="45.21"/>
  </g>
  <g>
    <path class="cls-1" d="M88.82,177.13c-11.3,0-20.58-3.88-27.83-11.64-7.26-7.76-10.88-17.71-10.88-29.86s3.75-21.59,11.26-29.35c7.5-7.76,16.66-11.64,27.46-11.64s20.41,4.3,28.85,12.91l31.63-32.64c-15.86-15.85-36.69-23.79-62.5-23.79s-46.52,8.1-62.63,24.29C8.05,91.6,0,111.68,0,135.63s8.05,44.33,24.17,60.6c16.11,16.28,36.98,24.42,62.63,24.42,28.17,0,50.69-9.36,67.56-28.09l-30.62-33.66c-9.11,12.15-20.75,18.22-34.92,18.22Z"/>
    <path class="cls-1" d="M249.25,220.65c25.98,0,47.15-8.14,63.51-24.42,16.36-16.28,24.55-36.48,24.55-60.6s-8.22-43.82-24.67-60.1c-16.45-16.28-37.58-24.42-63.39-24.42s-46.9,8.14-63.26,24.42c-16.36,16.28-24.55,36.31-24.55,60.1s8.18,44.33,24.55,60.6c16.36,16.28,37.45,24.42,63.26,24.42ZM222.55,106.28c7.34-7.76,16.23-11.64,26.7-11.64,11.13,0,20.24,3.84,27.33,11.51,7.08,7.68,10.63,17.5,10.63,29.48s-3.54,22.1-10.63,29.86c-7.08,7.76-16.19,11.64-27.33,11.64s-19.99-3.88-27.08-11.64c-7.08-7.76-10.63-17.71-10.63-29.86s3.67-21.59,11.01-29.35Z"/>
    <polygon class="cls-1" points="408.16 136.14 467.62 217.62 509.37 217.62 509.37 53.65 461.3 53.65 461.3 136.39 401.83 53.65 360.08 53.65 360.08 217.62 408.16 217.62 408.16 136.14"/>
    <path class="cls-1" d="M619.95,220.65c14.84,0,28.55-2.91,41.12-8.73,12.56-5.82,22.31-13.79,29.23-23.91v-63.51h-64.02v28.34h22.52v14.93c-9.11,6.24-18.39,9.36-27.83,9.36-11.3,0-20.58-3.88-27.83-11.64-7.26-7.76-10.88-17.71-10.88-29.86s3.75-21.59,11.26-29.35c7.5-7.76,16.66-11.64,27.46-11.64s20.41,4.3,28.85,12.91l31.63-32.64c-15.86-15.85-36.69-23.79-62.5-23.79s-46.52,8.1-62.63,24.29c-16.11,16.2-24.17,36.27-24.17,60.22s8.18,44.33,24.55,60.6c16.36,16.28,37.45,24.42,63.26,24.42Z"/>
    <path class="cls-1" d="M766.21,183.2c14.34,0,24.88-.08,31.63-.25l18.72,34.67h54.91l-30.62-48.84c8.43-5.73,14.84-13.12,19.23-22.14,4.38-9.02,6.58-18.43,6.58-28.22,0-18.72-6.62-34.2-19.86-46.43-13.25-12.23-32.01-18.35-56.3-18.35h-72.37v163.97h48.08v-34.41ZM766.21,94.38h25.05c7.09,0,12.94,2.32,17.59,6.96,4.64,4.64,6.96,10.34,6.96,17.08s-2.32,12.44-6.96,17.08-10.59,6.96-17.84,6.96h-24.8v-48.08Z"/>
    <polygon class="cls-1" points="1022.79 176.88 937.51 176.88 937.51 154.61 1016.46 154.61 1016.46 114.38 937.51 114.38 937.51 94.38 1019.75 94.38 1019.75 53.65 889.44 53.65 889.44 217.62 1022.79 217.62 1022.79 176.88"/>
    <path class="cls-1" d="M1116.67,176.62c-2.36.68-4.47,1.14-6.33,1.39-1.86.25-3.63.38-5.31.38-8.1,0-15.78-.84-23.03-2.53-7.26-1.68-12.74-3.37-16.45-5.06-3.71-1.68-8.35-4.13-13.92-7.34l-15.69,37.45c.34.17,2.49,1.48,6.45,3.92,3.96,2.45,8.18,4.72,12.65,6.83,4.47,2.11,11.26,4.14,20.37,6.07,9.11,1.94,18.98,2.91,29.61,2.91,11.97,0,23.07-1.69,33.27-5.06,10.21-3.37,18.85-9.15,25.94-17.33,7.08-8.18,10.63-18.18,10.63-29.99,0-5.73-.93-11.09-2.78-16.07-1.86-4.97-4.05-9.19-6.58-12.65-2.53-3.46-6.03-6.71-10.5-9.74-4.47-3.04-8.48-5.44-12.02-7.21-3.54-1.77-8.06-3.5-13.54-5.19-5.48-1.68-9.7-2.91-12.65-3.67-2.95-.76-6.87-1.65-11.76-2.66-9.79-2.36-14.68-5.82-14.68-10.37,0-5.06,4.89-7.59,14.68-7.59,8.1,0,16.83,1.18,26.19,3.54,9.36,2.36,16.4,5.15,21.13,8.35l16.2-37.2c-18.89-11.13-40.07-16.7-63.51-16.7-18.22,0-33.57,4.22-46.05,12.65-12.49,8.44-18.73,20.75-18.73,36.94,0,7.09,1.27,13.54,3.8,19.36,2.53,5.82,5.78,10.63,9.74,14.42,3.96,3.8,8.94,7.21,14.93,10.25,5.99,3.04,11.72,5.4,17.21,7.08,5.48,1.69,11.85,3.38,19.11,5.06.67.17,1.98.47,3.92.89,1.94.42,3.33.76,4.17,1.01.84.25,2.03.59,3.54,1.01,1.52.42,2.66.89,3.42,1.39.76.51,1.56,1.1,2.4,1.77.84.68,1.43,1.48,1.77,2.4.34.93.51,1.9.51,2.91,0,2.02-.76,3.76-2.28,5.19-1.52,1.44-3.46,2.49-5.82,3.16Z"/>
    <path class="cls-1" d="M1281.39,220.65c25.98,0,47.15-8.14,63.51-24.42,16.36-16.28,24.55-36.48,24.55-60.6s-8.22-43.82-24.67-60.1c-16.45-16.28-37.58-24.42-63.39-24.42s-46.9,8.14-63.26,24.42c-16.37,16.28-24.55,36.31-24.55,60.1s8.18,44.33,24.55,60.6c16.36,16.28,37.45,24.42,63.26,24.42ZM1254.7,106.28c7.34-7.76,16.23-11.64,26.7-11.64,11.13,0,20.24,3.84,27.33,11.51,7.08,7.68,10.63,17.5,10.63,29.48s-3.54,22.1-10.63,29.86c-7.08,7.76-16.2,11.64-27.33,11.64s-19.99-3.88-27.08-11.64c-7.08-7.76-10.63-17.71-10.63-29.86s3.67-21.59,11.01-29.35Z"/>
    <polygon class="cls-1" points="1496.47 136.64 1535.44 190.79 1574.41 136.14 1574.41 217.62 1622.49 217.62 1622.49 53.65 1581.5 53.65 1535.44 119.94 1489.39 53.65 1448.4 53.65 1448.4 217.62 1496.47 217.62 1496.47 136.64"/>
    <polygon class="cls-1" points="1783.67 176.88 1698.4 176.88 1698.4 154.61 1777.35 154.61 1777.35 114.38 1698.4 114.38 1698.4 94.38 1780.64 94.38 1780.64 53.65 1650.32 53.65 1650.32 217.62 1783.67 217.62 1783.67 176.88"/>
    <polygon class="cls-1" points="1763.43 0 1719.15 0 1692.58 45.29 1726.74 45.29 1763.43 0"/>
    <path class="cls-1" d="M1936,193.96c16.36-15.77,24.55-35.21,24.55-58.33s-8.18-42.55-24.55-58.33c-16.36-15.77-37.96-23.66-64.78-23.66h-68.32v163.97h68.32c26.82,0,48.41-7.88,64.78-23.66ZM1850.98,176.88v-82.49h18.47c12.15,0,21.89,3.88,29.23,11.64,7.34,7.76,11.01,17.63,11.01,29.61s-3.67,21.85-11.01,29.61c-7.34,7.76-17.08,11.64-29.23,11.64h-18.47Z"/>
    <rect class="cls-1" x="1983.32" y="53.65" width="48.08" height="163.97"/>
    <path class="cls-1" d="M2140.97,220.65c28.17,0,50.69-9.36,67.56-28.09l-30.62-33.66c-9.11,12.15-20.75,18.22-34.92,18.22-11.3,0-20.58-3.88-27.83-11.64-7.26-7.76-10.88-17.71-10.88-29.86s3.75-21.59,11.26-29.35c7.5-7.76,16.66-11.64,27.45-11.64s20.41,4.3,28.85,12.91l31.63-32.64c-15.86-15.85-36.69-23.79-62.5-23.79s-46.52,8.1-62.63,24.29c-16.11,16.2-24.16,36.27-24.16,60.22s8.05,44.33,24.16,60.6c16.11,16.28,36.99,24.42,62.63,24.42Z"/>
    <path class="cls-1" d="M2303.42,220.65c25.98,0,47.15-8.14,63.51-24.42,16.36-16.28,24.55-36.48,24.55-60.6s-8.22-43.82-24.67-60.1c-16.45-16.28-37.58-24.42-63.39-24.42s-46.9,8.14-63.26,24.42c-16.37,16.28-24.55,36.31-24.55,60.1s8.18,44.33,24.55,60.6c16.36,16.28,37.45,24.42,63.26,24.42ZM2276.72,106.28c7.34-7.76,16.23-11.64,26.7-11.64,11.13,0,20.24,3.84,27.33,11.51,7.08,7.68,10.63,17.5,10.63,29.48s-3.54,22.1-10.63,29.86c-7.08,7.76-16.2,11.64-27.33,11.64s-19.99-3.88-27.08-11.64c-7.08-7.76-10.63-17.71-10.63-29.86s3.67-21.59,11.01-29.35Z"/>
  </g>
</svg>