<?xml version="1.0" encoding="UTF-8"?>
<svg id="Capa_1" data-name="Capa 1" xmlns="http://www.w3.org/2000/svg" viewBox="0 0 2724.16 988.05">
  <defs>
    <style>
      .cls-1 {
        fill: #45878d;
      }

      .cls-2 {
        fill: none;
      }

      .cls-3 {
        fill: #33403e;
      }

      .cls-4 {
        fill: #353f3d;
      }
    </style>
  </defs>
  <g>
    <g>
      <path class="cls-2" d="M401.97,277.84c3.48,6.05,7.72,11.61,12.62,16.51,14.24,14.24,33.92,23.05,55.65,23.05,27.77,0,52.17-14.4,66.18-36.13,7.91-12.28,12.52-26.88,12.52-42.57,0-43.47-35.23-78.7-78.7-78.7s-76.49,33.06-78.6,74.65c-.07,1.34-.1,2.69-.1,4.05,0,14.25,3.81,27.61,10.43,39.14Z"/>
      <path class="cls-1" d="M391.54,238.7c0-1.36.03-2.71.1-4.05-.07,1.34-.1,2.69-.1,4.05,0,14.25,3.81,27.6,10.43,39.13-6.63-11.53-10.43-24.89-10.43-39.14Z"/>
      <path class="cls-1" d="M589.08,238.71c0,28.83-10.28,55.27-27.36,75.85,17.09-20.58,27.37-47.01,27.37-75.85,0-34.33-14.56-65.24-37.82-86.94,23.26,21.7,37.81,52.61,37.81,86.94Z"/>
      <path class="cls-1" d="M470.24,317.41c-21.73,0-41.41-8.81-55.65-23.05,14.24,14.24,33.92,23.06,55.65,23.06,27.78,0,52.17-14.4,66.18-36.13-14.01,21.73-38.41,36.13-66.18,36.13Z"/>
      <path class="cls-1" d="M351.4,238.71c0-40.01,19.76-75.39,50.05-96.93-30.29,21.54-50.06,56.92-50.06,96.93,0,33.84,14.15,64.37,36.86,86.02-22.7-21.64-36.85-52.18-36.85-86.01Z"/>
      <path class="cls-1" d="M884.21,278.39h-226.54c-1.49,0-2.72-1.23-2.72-2.72V56.34c0-24.06-19.52-43.58-43.58-43.58h-280.63c-24.06,0-43.58,19.52-43.58,43.58v219.33c0,1.49-1.23,2.72-2.72,2.72H57.89c-24.06,0-43.58,19.52-43.58,43.58v275.82c0,24.06,19.52,43.58,43.58,43.58h226.54c1.49,0,2.72,1.23,2.72,2.72v231.35c0,24.06,19.52,43.58,43.58,43.58h245.13c11.27,0,20.43-9.16,20.43-20.43,0-5.63-2.28-10.75-5.99-14.45-3.7-3.7-8.82-5.99-14.45-5.99h-245.13c-1.49,0-2.72-1.23-2.72-2.72v-231.35c0-24.06-19.52-43.58-43.58-43.58h-29.5s0,0,0,0h-38.63c-.26-3.05-.51-6.6-.71-10.56.2,3.96.46,7.51.71,10.56H57.89c-1.49,0-2.72-1.23-2.72-2.72v-275.82c0-1.49,1.23-2.72,2.72-2.72h226.54c24.06,0,43.58-19.52,43.58-43.58V56.34c0-1.49,1.23-2.72,2.72-2.72h280.63c1.49,0,2.72,1.23,2.72,2.72v219.33c0,24.06,19.52,43.58,43.58,43.58h226.54c1.49,0,2.72,1.23,2.72,2.72v273.42c0,1.49-1.23,2.72-2.72,2.72h-112.84c-11.27,0-20.43,9.16-20.43,20.43,0,5.63,2.28,10.75,5.99,14.45,3.7,3.7,8.8,5.99,14.45,5.99h112.84c24.06,0,43.58-19.52,43.58-43.58v-273.42c0-24.06-19.52-43.58-43.58-43.58Z"/>
      <path class="cls-1" d="M693.76,976.19c-1.75-.02-2.85-.1-3.14-.12.3.02,1.39.1,3.14.12Z"/>
      <path class="cls-3" d="M551.27,151.77c-21.23-19.8-49.71-31.92-81.03-31.92-25.63,0-49.38,8.12-68.79,21.93-30.29,21.54-50.05,56.93-50.05,96.93,0,33.83,14.15,64.37,36.85,86.01,21.33,20.33,50.2,32.82,81.99,32.82,36.8,0,69.68-16.72,91.48-42.98,17.09-20.58,27.36-47.01,27.36-75.85,0-34.33-14.55-65.25-37.81-86.94ZM391.64,234.66c2.11-41.59,36.5-74.65,78.6-74.65s78.7,35.23,78.7,78.7c0,15.69-4.61,30.29-12.52,42.57-14.01,21.73-38.4,36.13-66.18,36.13-21.73,0-41.4-8.81-55.65-23.06-4.9-4.9-9.14-10.46-12.62-16.51-6.63-11.53-10.43-24.88-10.43-39.13,0-1.36.03-2.71.1-4.05Z"/>
      <path class="cls-3" d="M254.94,600.51h0c-.09-.91-.17-1.9-.26-2.97-1.38-16.64-2.8-51.95,5.43-88.28,5.33-23.48,13.7-43.31,25.03-59.44,11.29-16.07,25.54-28.45,42.68-37.1,11.45-5.78,24.19-9.88,38.21-12.31.26-.04.52-.05.77-.04.75.03,1.43.28,1.89.73,1.29,1.2,2.58,2.44,3.88,3.7,2.36,2.28,4.76,4.64,7.26,7.08,3.06,3.03,6.16,6.09,9.32,9.12,3.97,3.81,8.02,7.57,12.18,11.1,1.06.9,2.14,1.79,3.21,2.67l1.32,1.08c1.7,1.39,3.45,2.81,5.25,4.25.02.02.04.03.06.05,0,0,0,0,.01.01,12.69,10.17,27.6,21.1,44.56,25.78v103.82h.03c-.03,3.84.08,7.68.31,11.5,1.71,28.46,10.7,55.92,29.28,77.58,3.01,3.51,6.27,6.86,9.79,10.05,14.88,13.47,33.76,24.13,54.47,31.35,17.25,6.02,35.77,9.64,54.31,10.49h0v145.32c-.03.68-.05,1.38-.07,2.09-1.1,40.35,15.5,113.57,86.76,117.96,0,0,.01,0,.02,0,.29.02,1.39.1,3.14.12.24,0,.48,0,.74,0,5.11,0,14.65-.47,25.46-3.29.02,0,.04,0,.05-.01.52-.13,1.04-.28,1.56-.43.26-.07.52-.14.78-.22.28-.08.56-.17.84-.25.51-.15,1.02-.3,1.53-.47.01,0,.02,0,.04-.01,5.55-1.77,11.3-4.2,16.86-7.52,7.16-4.28,14-10.04,19.68-17.78,0,0,0,0,0,0,.08.02.17.03.26.04,4.2.79,8.56,1.21,12.98,1.21,39.28,0,71.11-31.85,71.11-71.11s-31.83-71.11-71.11-71.11c-23.3,0-44,11.22-56.97,28.56-8.87,11.86-14.13,26.59-14.13,42.55,0,12.64,3.3,24.5,9.09,34.78,3,5.33,6.67,10.24,10.89,14.6.79.82,1.61,1.62,2.44,2.4,0,0,0,0,0,0-12.55,10.58-32.5,9.6-32.74,9.56-21.82-1.34-36.4-13.75-44.52-37.87-.34-.99-.65-1.99-.95-2.98-2.54-8.38-3.88-16.67-4.58-23.47-.97-9.38-.72-15.94-.72-16.03v-57.56s.02-91.81.02-91.81c39.47-9.11,64.84-42.52,75.59-99.58.59-3.13,1.15-6.32,1.65-9.59,8.95-58.25.22-112.94-24.57-153.97-.03-.04-.05-.09-.08-.13-18.66-30.82-47.36-54.87-83-69.56-.24-.1-.67-.28-1.25-.51-3.28-1.31-11.65-4.52-20.37-7.4-.51-.17-1.02-.34-1.53-.5-14.4-4.69-34.11-11.11-43.66,4.62-1.23,2.03-2.58,4.05-4,6.07-4.8,6.84-10.6,13.58-17.23,20.01-10.23,9.94-22.38,19.15-35.63,26.91-.8.47-1.59.94-2.4,1.4-12.83,7.27-23.54,4.14-39.49-7.16-4.89-3.46-10.26-7.68-16.35-12.62l-1.32-1.06c-.73-.59-1.46-1.21-2.2-1.83-6.5-5.51-13.22-12.13-19.71-18.54-3.88-3.83-7.86-7.76-11.81-11.47-9.39-8.82-22.71-12.76-35.56-10.56-50.48,8.75-88.81,34.94-113.31,76.76-10.55,18.01-18.54,38.9-23.81,62.58-1.36,6.09-2.48,12.14-3.4,18.08-4.28,27.52-4.27,52.77-3.37,70.04.21,3.96.46,7.51.71,10.56h38.63ZM741.8,876.36c0-18.08,14.66-32.74,32.74-32.74,5.65,0,10.97,1.43,15.61,3.95.19.1.37.21.55.32.27.15.55.31.81.47,9.45,5.74,15.76,16.14,15.76,28,0,18.08-14.66,32.74-32.74,32.74-4.52,0-8.83-.92-12.74-2.57-11.75-4.97-20-16.61-20-30.17ZM496.08,464.81c.93-.67,1.85-1.3,2.8-1.94,1.14-.75,2.29-1.47,3.45-2.19,4.08-2.51,8.28-4.86,12.35-7.43.28-.18.56-.37.85-.55,1.87-1.2,3.74-2.42,5.59-3.66.29-.19.59-.38.88-.57,1.13-.77,2.25-1.56,3.36-2.35.08-.05.15-.11.23-.16,1.08-.77,2.2-1.87,3.38-2.47,4.6-3.43,9.08-7.03,13.4-10.8.04-.04.08-.07.12-.11,4.28-3.74,8.42-7.65,12.38-11.73,5.87-6.04,11.38-12.46,16.36-19.3,3.56,1.04,7.81,2.45,11.98,3.9,5.43,1.89,10.71,3.87,14.11,5.27,7.06,2.91,13.76,6.28,20.06,10.06,18.73,11.23,33.97,26.17,44.73,43.97,5.85,9.69,10.58,20.41,14.17,31.96,8.76,28.17,10.69,61.26,5.32,96.27-4.13,26.87-12.62,61.53-38.66,74.18-4.82,2.34-10.25,3.93-16.36,4.58-11.21,1.18-23.06.95-34.91-.68-22.18-3.05-44.31-11.07-62.06-24.24-7.39-5.48-14.03-11.84-19.59-19.12-1.95-2.56-3.66-5.13-5.16-7.71-3.75-6.44-6.22-13-7.79-19.74,0-.03-.02-.06-.02-.09-.02-.06-.03-.13-.04-.19-.49-2.13-.89-4.27-1.21-6.44-.58-3.8-.92-7.69-1.09-11.65-.02-.48-.05-.95-.06-1.43-.14-4.03-.12-8.16,0-12.41v-93.07c0-2.78-.07-6.27,0-9.06h0c0-.21,1.27-.95,1.44-1.07Z"/>
    </g>
    <g>
      <path class="cls-3" d="M1143.82,283.54h139.47l186.43,461.09h-138.04l-21.35-59.77h-193.54l-21.35,59.77h-138.04l186.43-461.09ZM1274.04,580.97l-54.79-155.83c-4.27-11.38-4.98-15.65-5.69-18.5,0,0-1.42,6.4-5.69,18.5l-54.79,155.83h120.96Z"/>
      <path class="cls-3" d="M1514.53,283.54h115.27l90.37,129.5c14.94,22.06,39.14,59.77,39.14,59.77,0,0,24.19-37.71,39.13-59.77l90.37-129.5h115.27v461.09h-135.19v-233.39s-23.48,37.71-36.29,55.5l-73.29,102.46-74-102.46c-12.81-17.79-35.58-54.08-35.58-54.08v231.97h-135.2v-461.09Z"/>
      <path class="cls-1" d="M2082.33,283.54h135.2v172.19h138.75v-172.19h135.19v461.09h-135.19v-174.33h-138.75v174.33h-135.2v-461.09Z"/>
      <path class="cls-1" d="M2569.74,283.54h135.2v461.09h-135.2v-461.09Z"/>
    </g>
    <g>
      <path class="cls-4" d="M991.31,830.78c-1.12-.84-2.41-1.26-3.87-1.26h-16.57c-1.46,0-2.75.42-3.87,1.26-1.12.84-1.88,1.99-2.27,3.45l-15.06,53.34h18.59l2.9-12.53h15.98l2.9,12.53h18.59l-15.06-53.34c-.39-1.46-1.15-2.61-2.27-3.45ZM974.13,862.24l2.88-12.45c.22-1.06.42-2.17.59-3.32.17-1.15.31-2.26.42-3.32h2.27c.11,1.07.25,2.17.42,3.32.17,1.15.36,2.26.59,3.32l2.88,12.45h-10.06Z"/>
      <path class="cls-4" d="M1034.39,873.09c-1.07,0-1.92-.28-2.57-.84-.65-.56-.97-1.29-.97-2.19v-40.55h-18.26v45.18c0,3.93,1.25,7.11,3.74,9.55,2.49,2.44,5.85,3.66,10.05,3.66,4.77,0,9.6-.06,14.51-.17,4.91-.11,9.52-.45,13.84-1.01l-.84-13.63h-19.52Z"/>
      <rect class="cls-4" x="1060.21" y="829.51" width="18.09" height="58.05"/>
      <path class="cls-4" d="M1124.15,830.78c-1.12-.84-2.41-1.26-3.87-1.26h-16.57c-1.46,0-2.75.42-3.87,1.26-1.12.84-1.88,1.99-2.27,3.45l-15.06,53.34h18.59l2.9-12.53h15.98l2.9,12.53h18.59l-15.06-53.34c-.39-1.46-1.15-2.61-2.27-3.45ZM1106.96,862.24l2.88-12.45c.22-1.06.42-2.17.59-3.32.17-1.15.31-2.26.42-3.32h2.27c.11,1.07.25,2.17.42,3.32.17,1.15.36,2.26.59,3.32l2.88,12.45h-10.06Z"/>
      <path class="cls-4" d="M1182.36,853.24c0,1.74.07,3.48.21,5.22.14,1.74.32,3.51.55,5.3h-.59c-.67-1.85-1.39-3.62-2.14-5.3-.76-1.68-1.53-3.22-2.31-4.63l-12.12-19.01c-1.01-1.74-1.96-3.06-2.86-3.96-.9-.9-2.3-1.34-4.2-1.34h-6.98c-4.21,0-6.31,2.1-6.31,6.31v51.74h16.83v-24.56c0-1.68-.07-3.44-.21-5.26-.14-1.82-.35-3.6-.63-5.34h.59c.51,1.74,1.08,3.46,1.73,5.17.64,1.71,1.36,3.3,2.14,4.75l12.62,19.94c.95,1.74,1.89,3.06,2.82,3.95.93.9,2.34,1.35,4.25,1.35h6.98c4.21,0,6.31-2.1,6.31-6.31v-51.74h-16.74l.08,23.72Z"/>
      <polygon class="cls-4" points="1251.52 842.3 1251.52 829.51 1207.1 829.51 1207.1 842.3 1231.35 842.3 1206.26 874.77 1206.26 887.56 1252.36 887.56 1252.36 874.77 1226.43 874.77 1251.52 842.3"/>
      <path class="cls-4" d="M1296.1,830.78c-1.12-.84-2.41-1.26-3.87-1.26h-16.57c-1.46,0-2.75.42-3.87,1.26-1.12.84-1.88,1.99-2.27,3.45l-15.06,53.34h18.59l2.9-12.53h15.98l2.9,12.53h18.59l-15.06-53.34c-.39-1.46-1.15-2.61-2.27-3.45ZM1278.92,862.24l2.88-12.45c.22-1.06.42-2.17.59-3.32.17-1.15.31-2.26.42-3.32h2.27c.11,1.07.25,2.17.42,3.32.17,1.15.37,2.26.59,3.32l2.88,12.45h-10.06Z"/>
      <path class="cls-4" d="M1397.73,829.51h-16.07c-3.98,0-6.31,1.88-6.98,5.64l-3.95,23.05c-.22,1.4-.41,2.83-.55,4.29-.14,1.46-.29,2.92-.46,4.37h-.76c-.11-1.46-.24-2.92-.38-4.37-.14-1.46-.32-2.89-.55-4.29l-4.21-23.05c-.67-3.76-2.97-5.64-6.9-5.64h-15.73c-4.1,0-6.23,2.1-6.39,6.31l-2.02,51.74h16.4l1.43-44.42h1.26l5.8,29.61c.67,3.7,3,5.55,6.98,5.55h9.42c4.04,0,6.34-1.85,6.9-5.55l5.72-29.61h1.26l1.77,44.42h16.41l-2.02-51.74c-.17-4.21-2.3-6.31-6.39-6.31Z"/>
      <path class="cls-4" d="M1433.14,843.98c.62-.56,1.46-.84,2.53-.84h21.28l.84-12.87c-2.81-.39-5.92-.66-9.34-.8-3.42-.14-6.91-.22-10.47-.25-3.56-.03-7.03-.04-10.39-.04-3.98,0-7.25,1.22-9.8,3.66-2.55,2.44-3.83,5.62-3.83,9.55v32.31c0,3.93,1.28,7.11,3.83,9.55,2.55,2.44,5.82,3.66,9.8,3.66,3.36,0,6.83-.02,10.39-.04,3.56-.03,7.05-.13,10.47-.3,3.42-.17,6.53-.42,9.34-.76l-.84-12.87h-21.28c-1.07,0-1.91-.28-2.53-.84-.62-.56-.93-1.29-.93-2.19v-6.98h21.71v-12.12h-21.71v-5.64c0-.9.31-1.62.93-2.19Z"/>
      <polygon class="cls-4" points="1454.85 818.32 1448.2 807.14 1428.6 819.75 1433.4 826.99 1454.85 818.32"/>
      <path class="cls-4" d="M1510.88,834.77c-2.13-2.22-4.92-3.79-8.37-4.71-3.45-.93-7.67-1.39-12.66-1.39s-9.38.08-13.33.25c-3.95.17-7.78.37-11.48.59v58.05c3.65.22,7.49.42,11.53.59,4.04.17,8.47.25,13.29.25s9.21-.46,12.66-1.39c3.45-.93,6.24-2.49,8.37-4.71,2.13-2.22,3.67-5.26,4.63-9.13.95-3.87,1.43-8.75,1.43-14.64s-.48-10.77-1.43-14.64c-.95-3.87-2.5-6.91-4.63-9.13ZM1497,868.89c-.45,2.41-1.23,4.07-2.36,4.96-1.12.9-2.72,1.35-4.8,1.35-2.32,0-4.5-.02-6.56-.05v-33.26h6.56c2.07,0,3.67.45,4.8,1.35,1.12.9,1.91,2.55,2.36,4.96.45,2.41.67,5.86.67,10.35s-.22,7.94-.67,10.35Z"/>
      <rect class="cls-4" x="1524.59" y="829.51" width="18.09" height="58.05"/>
      <path class="cls-4" d="M1587.22,873.05c-2.83.08-6.35.13-10.56.13-1.91,0-3.38-.41-4.42-1.22-1.04-.81-1.75-2.27-2.14-4.37-.39-2.1-.59-5.12-.59-9.04s.2-6.94.59-9.04c.39-2.1,1.11-3.56,2.14-4.37,1.04-.81,2.51-1.22,4.42-1.22,2.69,0,4.99.01,6.9.04,1.91.03,3.7.04,5.38.04s3.51.03,5.47.08l1.35-13.29c-1.91-.56-3.74-.99-5.51-1.3-1.77-.31-3.72-.55-5.85-.71-2.13-.17-4.71-.25-7.74-.25-6.39,0-11.53.97-15.4,2.9-3.87,1.94-6.66,5.09-8.37,9.46-1.71,4.37-2.57,10.26-2.57,17.67s.85,13.29,2.57,17.67c1.71,4.37,4.5,7.53,8.37,9.46,3.87,1.93,9,2.9,15.4,2.9,4.54,0,8.34-.21,11.4-.63,3.05-.42,6.04-1.14,8.96-2.15l-1.35-13.29c-2.81.28-5.62.46-8.45.55Z"/>
      <path class="cls-4" d="M1639.93,830.78c-1.12-.84-2.41-1.26-3.87-1.26h-16.57c-1.46,0-2.75.42-3.87,1.26-1.12.84-1.88,1.99-2.27,3.45l-15.06,53.34h18.59l2.9-12.53h15.98l2.9,12.53h18.59l-15.06-53.34c-.39-1.46-1.15-2.61-2.27-3.45ZM1622.74,862.24l2.88-12.45c.22-1.06.42-2.17.59-3.32.17-1.15.31-2.26.42-3.32h2.27c.11,1.07.25,2.17.42,3.32.17,1.15.37,2.26.59,3.32l2.88,12.45h-10.06Z"/>
      <polygon class="cls-4" points="1710.6 850.38 1695.96 850.38 1695.96 829.51 1677.7 829.51 1677.7 887.56 1695.96 887.56 1695.96 863.16 1710.6 863.16 1710.6 887.56 1728.85 887.56 1728.85 829.51 1710.6 829.51 1710.6 850.38"/>
      <path class="cls-4" d="M1784.54,834.48c-2.13-2.24-4.92-3.83-8.37-4.75-3.45-.93-7.67-1.39-12.66-1.39s-9.13.46-12.58,1.39c-3.45.93-6.24,2.51-8.37,4.75-2.13,2.24-3.67,5.31-4.63,9.21-.96,3.9-1.43,8.85-1.43,14.85s.47,10.88,1.43,14.81c.95,3.93,2.49,7.01,4.63,9.26,2.13,2.24,4.92,3.83,8.37,4.75,3.45.92,7.64,1.39,12.58,1.39s9.21-.46,12.66-1.39c3.45-.93,6.24-2.51,8.37-4.75,2.13-2.24,3.67-5.33,4.63-9.26.95-3.93,1.43-8.86,1.43-14.81s-.48-10.95-1.43-14.85c-.95-3.9-2.5-6.97-4.63-9.21ZM1770.66,868.89c-.45,2.41-1.23,4.07-2.36,4.96-1.12.9-2.72,1.35-4.8,1.35s-3.67-.45-4.8-1.35c-1.12-.9-1.91-2.55-2.36-4.96-.45-2.41-.67-5.86-.67-10.35s.22-7.94.67-10.35c.45-2.41,1.23-4.07,2.36-4.96,1.12-.9,2.72-1.35,4.8-1.35s3.67.45,4.8,1.35c1.12.9,1.91,2.55,2.36,4.96.45,2.41.67,5.86.67,10.35s-.22,7.94-.67,10.35Z"/>
      <path class="cls-4" d="M1829.97,853.32l-10.52-4.37c-1.96-.78-3.3-1.44-4-1.98-.7-.53-1.05-1.19-1.05-1.98,0-.45.08-.81.25-1.09.17-.28.45-.5.84-.67.39-.17.94-.28,1.64-.34.7-.06,1.58-.09,2.65-.09,3.64,0,7.33.01,11.06.04,3.73.03,6.86.07,9.38.13l1.09-11.69c-3.48-1.23-7.11-2.03-10.89-2.4-3.79-.36-7.19-.55-10.22-.55-4.37,0-8.09.28-11.15.84-3.06.56-5.51,1.49-7.36,2.78-1.85,1.29-3.21,3.03-4.08,5.22-.87,2.19-1.3,4.93-1.3,8.24,0,4.26.98,7.71,2.94,10.35,1.96,2.64,5.3,5.02,10.01,7.15l11.53,5.05c1.07.39,1.88.76,2.44,1.09.56.34.95.69,1.18,1.05.22.37.34.83.34,1.39,0,.5-.16.91-.46,1.22-.31.31-.87.52-1.68.63-.81.11-2.01.17-3.57.17-1.01,0-2.54-.01-4.59-.04-2.05-.03-4.47-.09-7.28-.17-2.81-.08-5.89-.15-9.25-.21l-1.09,12.79c5.05,1.29,9.56,2.09,13.55,2.4,3.98.31,6.95.46,8.92.46,4.54,0,8.33-.32,11.36-.97,3.03-.64,5.45-1.65,7.28-3.03,1.82-1.37,3.13-3.2,3.91-5.47.79-2.27,1.18-5.03,1.18-8.29,0-4.26-.97-7.75-2.9-10.47-1.93-2.72-5.31-5.12-10.14-7.19Z"/>
      <path class="cls-4" d="M1889.03,830.4c-3.48-1.15-8.3-1.72-14.47-1.72-3.87,0-7.15.01-9.84.04-2.69.03-5.17.1-7.45.21-2.27.11-4.7.31-7.28.59v58.05h18.26v-20.03c.14.02.28.03.42.05,2.8.31,5.61.46,8.41.46,5.33,0,9.56-.57,12.7-1.72,3.14-1.15,5.4-3.14,6.77-5.97,1.37-2.83,2.06-6.8,2.06-11.9s-.73-9.17-2.19-12.03c-1.46-2.86-3.93-4.87-7.4-6.02ZM1879.86,852.61c-.34.98-.96,1.65-1.85,2.02-.9.37-2.19.55-3.87.55h-5.89v-13.62c1.85,0,3.82-.01,5.89-.01,1.68,0,2.97.18,3.87.55.9.37,1.51,1.05,1.85,2.06.34,1.01.5,2.44.5,4.29s-.17,3.18-.5,4.16Z"/>
      <rect class="cls-4" x="1904.93" y="829.51" width="18.09" height="58.05"/>
      <polygon class="cls-4" points="1979.55 843.14 1979.55 829.51 1963.31 829.51 1945.05 829.51 1928.82 829.51 1928.82 843.14 1945.05 843.14 1945.05 887.56 1963.31 887.56 1963.31 843.14 1979.55 843.14"/>
      <path class="cls-4" d="M2016.9,830.78c-1.12-.84-2.41-1.26-3.87-1.26h-16.57c-1.46,0-2.75.42-3.87,1.26-1.12.84-1.88,1.99-2.27,3.45l-15.06,53.34h18.59l2.9-12.53h15.98l2.9,12.53h18.59l-15.06-53.34c-.39-1.46-1.15-2.61-2.27-3.45ZM1999.71,862.24l2.88-12.45c.22-1.06.42-2.17.59-3.32.17-1.15.31-2.26.42-3.32h2.27c.11,1.07.25,2.17.42,3.32.17,1.15.37,2.26.59,3.32l2.88,12.45h-10.06Z"/>
      <path class="cls-4" d="M2059.97,873.09c-1.06,0-1.92-.28-2.57-.84-.65-.56-.97-1.29-.97-2.19v-40.55h-18.26v45.18c0,3.93,1.25,7.11,3.74,9.55,2.49,2.44,5.85,3.66,10.05,3.66,4.77,0,9.6-.06,14.51-.17,4.91-.11,9.52-.45,13.84-1.01l-.84-13.63h-19.52Z"/>
      <path class="cls-4" d="M2122.23,830.78c-1.12-.84-2.41-1.26-3.87-1.26h-16.57c-1.46,0-2.75.42-3.87,1.26-1.12.84-1.88,1.99-2.27,3.45l-15.06,53.34h18.59l2.9-12.53h15.98l2.9,12.53h18.59l-15.06-53.34c-.39-1.46-1.15-2.61-2.27-3.45ZM2105.04,862.24l2.88-12.45c.22-1.06.42-2.17.59-3.32.17-1.15.31-2.26.42-3.32h2.27c.11,1.07.25,2.17.42,3.32.17,1.15.37,2.26.59,3.32l2.88,12.45h-10.06Z"/>
      <path class="cls-4" d="M2188.18,864.3c-1.12-1.26-2.33-2.16-3.62-2.69-1.29-.53-2.47-.86-3.53-.97v-.5c3.03-.34,5.4-1.15,7.11-2.44,1.71-1.29,2.92-2.93,3.62-4.92.7-1.99,1.05-4.13,1.05-6.43,0-4.54-.86-8.09-2.57-10.64-1.71-2.55-4.36-4.36-7.95-5.43-3.59-1.06-8.24-1.6-13.96-1.6-3.87,0-7.17.01-9.89.04-2.72.03-5.22.1-7.49.21-2.27.11-4.7.31-7.28.59v58.05h17.92v-21.26c1.69.01,3.57.04,5.64.06,1.57,0,2.71.25,3.41.76.7.5,1.22,1.57,1.56,3.2l3.79,17.25h19.1l-4.54-17.83c-.45-2.36-1.23-4.16-2.36-5.43ZM2173.92,851.18c-.37.87-1.02,1.47-1.98,1.81-.95.34-2.3.5-4.04.5h-6.31v-11.93c1.97,0,4.07-.01,6.31-.01,1.74,0,3.08.17,4.04.5.95.34,1.61.93,1.98,1.77.37.84.55,2.08.55,3.7s-.18,2.79-.55,3.66Z"/>
      <rect class="cls-4" x="2201.13" y="829.51" width="18.09" height="58.05"/>
      <path class="cls-4" d="M2265.07,830.78c-1.12-.84-2.41-1.26-3.87-1.26h-16.57c-1.46,0-2.75.42-3.87,1.26-1.12.84-1.88,1.99-2.27,3.45l-15.06,53.34h18.59l2.9-12.53h15.98l2.9,12.53h18.59l-15.06-53.34c-.39-1.46-1.15-2.61-2.27-3.45ZM2247.89,862.24l2.88-12.45c.22-1.06.42-2.17.59-3.32.17-1.15.31-2.26.42-3.32h2.27c.11,1.07.25,2.17.42,3.32.17,1.15.37,2.26.59,3.32l2.88,12.45h-10.06Z"/>
      <rect class="cls-4" x="2302.85" y="829.51" width="18.09" height="58.05"/>
      <path class="cls-4" d="M2367.03,853.24c0,1.74.07,3.48.21,5.22.14,1.74.32,3.51.55,5.3h-.59c-.67-1.85-1.39-3.62-2.14-5.3-.76-1.68-1.53-3.22-2.31-4.63l-12.11-19.01c-1.01-1.74-1.97-3.06-2.86-3.96-.9-.9-2.3-1.34-4.21-1.34h-6.98c-4.2,0-6.31,2.1-6.31,6.31v51.74h16.83v-24.56c0-1.68-.07-3.44-.21-5.26-.14-1.82-.35-3.6-.63-5.34h.59c.5,1.74,1.08,3.46,1.72,5.17.65,1.71,1.36,3.3,2.15,4.75l12.62,19.94c.95,1.74,1.89,3.06,2.82,3.95.93.9,2.34,1.35,4.25,1.35h6.98c4.21,0,6.31-2.1,6.31-6.31v-51.74h-16.74l.08,23.72Z"/>
      <polygon class="cls-4" points="2405.56 829.51 2389.33 829.51 2389.33 843.14 2405.56 843.14 2405.56 887.56 2423.82 887.56 2423.82 843.14 2440.06 843.14 2440.06 829.51 2423.82 829.51 2405.56 829.51"/>
      <path class="cls-4" d="M2464.53,843.98c.62-.56,1.46-.84,2.53-.84h21.28l.84-12.87c-2.8-.39-5.92-.66-9.34-.8-3.42-.14-6.91-.22-10.47-.25-3.56-.03-7.03-.04-10.39-.04-3.98,0-7.25,1.22-9.8,3.66-2.55,2.44-3.83,5.62-3.83,9.55v32.31c0,3.93,1.28,7.11,3.83,9.55,2.55,2.44,5.82,3.66,9.8,3.66,3.37,0,6.83-.02,10.39-.04,3.56-.03,7.05-.13,10.47-.3,3.42-.17,6.53-.42,9.34-.76l-.84-12.87h-21.28c-1.07,0-1.91-.28-2.53-.84-.62-.56-.93-1.29-.93-2.19v-6.98h21.71v-12.12h-21.71v-5.64c0-.9.31-1.62.93-2.19Z"/>
      <path class="cls-4" d="M2527.04,872.65s-.05.01-.08.02c-.84.17-1.78.29-2.82.38-1.04.08-2.17.13-3.41.13-1.91,0-3.39-.41-4.46-1.22-1.07-.81-1.82-2.27-2.27-4.37-.45-2.1-.67-5.12-.67-9.04,0-2.97.13-5.43.38-7.36.25-1.94.69-3.45,1.3-4.54.62-1.09,1.46-1.85,2.52-2.27,1.06-.42,2.41-.63,4.04-.63,2.64,0,4.99.01,7.07.04,2.07.03,4.08.04,6.01.04s3.97.03,6.1.09l1.35-13.12c-2.02-.62-4.03-1.09-6.02-1.43-1.99-.34-4.15-.59-6.48-.76-2.33-.17-5.03-.25-8.12-.25-6.67,0-12.02.97-16.03,2.9-4.01,1.93-6.9,5.1-8.66,9.51-1.77,4.4-2.65,10.34-2.65,17.79s.67,13.15,2.02,17.58c1.35,4.43,3.45,7.64,6.31,9.63,2.86,1.99,6.51,2.99,10.94,2.99,3.08,0,5.8-.49,8.16-1.47,2.36-.98,4.3-2.17,5.85-3.57.82-.75,1.51-1.46,2.09-2.12l1.57,5.99h13.46v-33.4h-17.5v18.49Z"/>
      <path class="cls-4" d="M2597.04,864.3c-1.12-1.26-2.33-2.16-3.62-2.69-1.29-.53-2.47-.86-3.53-.97v-.5c3.03-.34,5.4-1.15,7.11-2.44,1.71-1.29,2.92-2.93,3.62-4.92.7-1.99,1.05-4.13,1.05-6.43,0-4.54-.85-8.09-2.56-10.64-1.71-2.55-4.36-4.36-7.95-5.43-3.59-1.06-8.24-1.6-13.96-1.6-3.87,0-7.17.01-9.89.04-2.72.03-5.22.1-7.49.21-2.27.11-4.7.31-7.28.59v58.05h17.92v-21.26c1.69.01,3.57.04,5.64.06,1.57,0,2.71.25,3.41.76.7.5,1.22,1.57,1.56,3.2l3.79,17.25h19.1l-4.54-17.83c-.45-2.36-1.23-4.16-2.36-5.43ZM2582.78,851.18c-.37.87-1.02,1.47-1.98,1.81-.95.34-2.3.5-4.04.5h-6.31v-11.93c1.97,0,4.07-.01,6.31-.01,1.74,0,3.08.17,4.04.5.95.34,1.61.93,1.98,1.77.37.84.55,2.08.55,3.7s-.18,2.79-.55,3.66Z"/>
      <path class="cls-4" d="M2646.42,830.78c-1.12-.84-2.41-1.26-3.87-1.26h-16.57c-1.46,0-2.75.42-3.87,1.26-1.12.84-1.88,1.99-2.27,3.45l-15.06,53.34h18.59l2.9-12.53h15.98l2.9,12.53h18.59l-15.06-53.34c-.39-1.46-1.15-2.61-2.27-3.45ZM2629.24,862.24l2.88-12.45c.22-1.06.42-2.17.59-3.32.17-1.15.31-2.26.42-3.32h2.27c.11,1.07.25,2.17.42,3.32.17,1.15.37,2.26.59,3.32l2.88,12.45h-10.06Z"/>
      <path class="cls-4" d="M2709.01,873.09h-19.52c-1.06,0-1.92-.28-2.56-.84-.65-.56-.97-1.29-.97-2.19v-40.55h-18.26v45.18c0,3.93,1.25,7.11,3.74,9.55,2.49,2.44,5.85,3.66,10.05,3.66,4.77,0,9.6-.06,14.51-.17,4.91-.11,9.52-.45,13.84-1.01l-.84-13.63Z"/>
    </g>
    <rect class="cls-1" x="1869.25" y="762.28" width="134.69" height="35.88"/>
    <rect class="cls-3" x="2569.71" y="228.01" width="135.22" height="35.88"/>
  </g>
  <g>
    <path class="cls-1" d="M905.49,150.09l24.3,26.71c-13.39,14.86-31.26,22.29-53.62,22.29-20.35,0-36.92-6.46-49.7-19.38-12.79-12.92-19.18-28.95-19.18-48.1s6.39-34.94,19.18-47.8c12.78-12.85,29.35-19.28,49.7-19.28s37.02,6.29,49.6,18.88l-25.1,25.91c-6.7-6.83-14.33-10.24-22.89-10.24s-15.83,3.08-21.79,9.24c-5.96,6.16-8.94,13.93-8.94,23.3s2.88,17.54,8.64,23.7c5.76,6.16,13.12,9.24,22.09,9.24,11.25,0,20.48-4.82,27.71-14.46Z"/>
    <path class="cls-1" d="M935.41,131.61c0-18.88,6.49-34.77,19.48-47.7,12.98-12.92,29.72-19.38,50.21-19.38s37.25,6.46,50.31,19.38c13.05,12.92,19.58,28.82,19.58,47.7s-6.5,35.18-19.48,48.1c-12.99,12.92-29.79,19.38-50.41,19.38s-37.22-6.46-50.21-19.38c-12.99-12.92-19.48-28.95-19.48-48.1ZM975.18,131.61c0,9.64,2.81,17.54,8.44,23.7,5.62,6.16,12.78,9.24,21.49,9.24s16.07-3.08,21.69-9.24c5.62-6.16,8.44-14.06,8.44-23.7s-2.81-17.3-8.44-23.4c-5.62-6.09-12.85-9.14-21.69-9.14-8.3,0-15.36,3.08-21.19,9.24-5.82,6.16-8.74,13.93-8.74,23.3Z"/>
    <path class="cls-1" d="M1093.06,196.68V66.54h33.14l47.19,65.67v-65.67h38.16v130.14h-33.14l-47.19-64.67v64.67h-38.16Z"/>
    <path class="cls-1" d="M1229.62,131.61c0-19.01,6.39-34.94,19.18-47.8,12.78-12.85,29.35-19.28,49.7-19.28s37.02,6.29,49.6,18.88l-25.1,25.91c-6.7-6.83-14.33-10.24-22.89-10.24s-15.83,3.08-21.79,9.24c-5.96,6.16-8.94,13.93-8.94,23.3s2.88,17.54,8.64,23.7c5.76,6.16,13.12,9.24,22.09,9.24,7.5,0,14.86-2.48,22.09-7.43v-11.85h-17.87v-22.49h50.81v50.41c-5.49,8.03-13.22,14.36-23.2,18.98-9.98,4.62-20.86,6.93-32.63,6.93-20.48,0-37.22-6.46-50.21-19.38-12.99-12.92-19.48-28.95-19.48-48.1Z"/>
    <path class="cls-1" d="M1377.23,196.68V66.54h57.44c19.28,0,34.17,4.85,44.68,14.56,10.51,9.71,15.77,21.99,15.77,36.85,0,7.77-1.74,15.23-5.22,22.39-3.48,7.16-8.57,13.02-15.26,17.57l24.3,38.76h-43.58l-14.86-27.51c-5.36.14-13.73.2-25.1.2v27.31h-38.16ZM1415.39,137.03h19.68c5.76,0,10.47-1.84,14.16-5.52s5.52-8.2,5.52-13.56-1.84-9.87-5.52-13.56c-3.68-3.68-8.33-5.52-13.96-5.52h-19.88v38.16Z"/>
    <path class="cls-1" d="M1513.19,196.68V66.54h103.43v32.33h-65.27v15.87h62.66v31.93h-62.66v17.67h67.68v32.33h-105.83Z"/>
    <path class="cls-1" d="M1629.46,183.42l12.45-29.72c4.42,2.54,8.1,4.49,11.05,5.82,2.94,1.34,7.3,2.68,13.05,4.02,5.76,1.34,11.85,2.01,18.28,2.01,1.34,0,2.74-.1,4.22-.3,1.47-.2,3.14-.57,5.02-1.11,1.87-.53,3.41-1.37,4.62-2.51,1.21-1.14,1.81-2.51,1.81-4.12,0-.8-.14-1.57-.4-2.31-.27-.73-.74-1.37-1.41-1.91-.67-.53-1.3-1-1.91-1.41-.6-.4-1.51-.77-2.71-1.11-1.2-.33-2.14-.6-2.81-.8-.67-.2-1.77-.47-3.31-.8-1.54-.33-2.58-.57-3.11-.7-5.76-1.34-10.81-2.68-15.16-4.02-4.35-1.34-8.9-3.21-13.66-5.62-4.75-2.41-8.7-5.12-11.85-8.13-3.15-3.01-5.72-6.83-7.73-11.45-2.01-4.62-3.01-9.74-3.01-15.36,0-12.85,4.95-22.62,14.86-29.32,9.91-6.69,22.09-10.04,36.55-10.04,18.61,0,35.41,4.42,50.41,13.25l-12.85,29.52c-3.75-2.54-9.34-4.75-16.77-6.63-7.43-1.87-14.36-2.81-20.78-2.81-7.77,0-11.65,2.01-11.65,6.02,0,3.62,3.88,6.36,11.65,8.23,3.88.8,6.99,1.51,9.34,2.11,2.34.6,5.69,1.57,10.04,2.91,4.35,1.34,7.93,2.71,10.75,4.12,2.81,1.41,5.99,3.31,9.54,5.72,3.55,2.41,6.32,4.99,8.33,7.73,2.01,2.75,3.75,6.09,5.22,10.04,1.47,3.95,2.21,8.2,2.21,12.75,0,9.37-2.81,17.31-8.44,23.8-5.62,6.5-12.48,11.08-20.58,13.76-8.1,2.68-16.9,4.02-26.41,4.02-8.44,0-16.27-.77-23.5-2.31-7.23-1.54-12.62-3.14-16.17-4.82-3.55-1.67-6.9-3.48-10.04-5.42-3.15-1.94-4.86-2.98-5.12-3.11Z"/>
    <path class="cls-1" d="M1754.57,131.61c0-18.88,6.49-34.77,19.48-47.7,12.99-12.92,29.72-19.38,50.21-19.38s37.25,6.46,50.31,19.38c13.05,12.92,19.58,28.82,19.58,47.7s-6.5,35.18-19.48,48.1c-12.99,12.92-29.79,19.38-50.41,19.38s-37.22-6.46-50.21-19.38c-12.99-12.92-19.48-28.95-19.48-48.1ZM1794.34,131.61c0,9.64,2.81,17.54,8.44,23.7,5.62,6.16,12.78,9.24,21.49,9.24s16.07-3.08,21.69-9.24c5.62-6.16,8.44-14.06,8.44-23.7s-2.81-17.3-8.44-23.4c-5.62-6.09-12.85-9.14-21.69-9.14-8.3,0-15.36,3.08-21.19,9.24-5.82,6.16-8.74,13.93-8.74,23.3Z"/>
    <path class="cls-1" d="M1956.8,196.68V66.54h32.53l36.55,52.62,36.55-52.62h32.53v130.14h-38.16v-64.67l-30.93,43.38-30.93-42.98v64.26h-38.16Z"/>
    <path class="cls-1" d="M2117.06,196.68V66.54h103.43v32.33h-65.27v15.87h62.66v31.93h-62.66v17.67h67.68v32.33h-105.84ZM2150.6,59.92l21.09-35.95h35.14l-29.12,35.95h-27.11Z"/>
    <path class="cls-1" d="M2238.16,196.68V66.54h54.22c21.29,0,38.42,6.26,51.41,18.78,12.99,12.52,19.48,27.95,19.48,46.29s-6.5,33.77-19.48,46.29c-12.99,12.52-30.12,18.78-51.41,18.78h-54.22ZM2276.32,164.35h14.66c9.64,0,17.37-3.08,23.2-9.24,5.82-6.16,8.74-13.99,8.74-23.5s-2.91-17.34-8.74-23.5c-5.82-6.16-13.56-9.24-23.2-9.24h-14.66v65.47Z"/>
    <path class="cls-1" d="M2381.35,196.68V66.54h38.16v130.14h-38.16Z"/>
    <path class="cls-1" d="M2535.78,150.09l24.3,26.71c-13.39,14.86-31.26,22.29-53.62,22.29-20.35,0-36.92-6.46-49.7-19.38-12.79-12.92-19.18-28.95-19.18-48.1s6.39-34.94,19.18-47.8c12.79-12.85,29.35-19.28,49.7-19.28s37.02,6.29,49.6,18.88l-25.1,25.91c-6.7-6.83-14.33-10.24-22.89-10.24s-15.83,3.08-21.79,9.24c-5.96,6.16-8.94,13.93-8.94,23.3s2.88,17.54,8.64,23.7c5.76,6.16,13.12,9.24,22.09,9.24,11.25,0,20.48-4.82,27.72-14.46Z"/>
    <path class="cls-1" d="M2565.7,131.61c0-18.88,6.49-34.77,19.48-47.7,12.99-12.92,29.72-19.38,50.21-19.38s37.25,6.46,50.31,19.38c13.05,12.92,19.58,28.82,19.58,47.7s-6.5,35.18-19.48,48.1c-12.99,12.92-29.79,19.38-50.41,19.38s-37.22-6.46-50.21-19.38c-12.99-12.92-19.48-28.95-19.48-48.1ZM2605.47,131.61c0,9.64,2.81,17.54,8.44,23.7,5.62,6.16,12.78,9.24,21.49,9.24s16.07-3.08,21.69-9.24c5.62-6.16,8.44-14.06,8.44-23.7s-2.81-17.3-8.44-23.4c-5.62-6.09-12.85-9.14-21.69-9.14-8.3,0-15.36,3.08-21.19,9.24-5.82,6.16-8.74,13.93-8.74,23.3Z"/>
  </g>
</svg>