<?xml version="1.0" encoding="UTF-8"?>
<svg id="Capa_1" data-name="Capa 1" xmlns="http://www.w3.org/2000/svg" viewBox="0 0 1727.28 104.48">
  <defs>
    <style>
      .cls-1 {
        fill: #353f3d;
      }
    </style>
  </defs>
  <path class="cls-1" d="M64.87,32.69c-1.07-.8-2.3-1.2-3.69-1.2h-15.79c-1.39,0-2.62.4-3.69,1.2-1.07.8-1.79,1.9-2.16,3.29l-14.35,50.81h17.71l2.77-11.94h15.23l2.77,11.94h17.71l-14.35-50.81c-.38-1.39-1.1-2.48-2.16-3.29ZM48.5,62.67l2.75-11.86c.21-1.01.4-2.07.56-3.17.16-1.09.29-2.15.4-3.17h2.16c.11,1.02.24,2.07.4,3.17.16,1.1.35,2.15.56,3.17l2.75,11.86h-9.58Z"/>
  <path class="cls-1" d="M105.9,73.01c-1.02,0-1.83-.27-2.44-.8-.62-.53-.92-1.23-.92-2.08V31.49h-17.39v43.04c0,3.74,1.19,6.77,3.57,9.1,2.38,2.32,5.57,3.49,9.58,3.49,4.54,0,9.15-.05,13.82-.16,4.68-.11,9.07-.43,13.18-.96l-.8-12.98h-18.59Z"/>
  <rect class="cls-1" x="130.51" y="31.49" width="17.23" height="55.3"/>
  <path class="cls-1" d="M191.42,32.69c-1.07-.8-2.3-1.2-3.69-1.2h-15.79c-1.39,0-2.62.4-3.69,1.2-1.07.8-1.79,1.9-2.16,3.29l-14.35,50.81h17.71l2.77-11.94h15.23l2.77,11.94h17.71l-14.35-50.81c-.37-1.39-1.1-2.48-2.16-3.29ZM175.05,62.67l2.75-11.86c.21-1.01.4-2.07.56-3.17.16-1.09.29-2.15.4-3.17h2.16c.11,1.02.24,2.07.4,3.17.16,1.1.35,2.15.56,3.17l2.75,11.86h-9.58Z"/>
  <path class="cls-1" d="M246.88,54.09c0,1.66.07,3.31.2,4.97.13,1.66.31,3.34.52,5.05h-.56c-.64-1.76-1.32-3.45-2.04-5.05-.72-1.6-1.46-3.07-2.2-4.41l-11.54-18.11c-.96-1.66-1.87-2.91-2.72-3.77-.85-.85-2.19-1.28-4.01-1.28h-6.65c-4.01,0-6.01,2-6.01,6.01v49.29h16.03v-23.4c0-1.6-.07-3.27-.2-5.01-.13-1.74-.34-3.43-.6-5.09h.56c.48,1.66,1.03,3.3,1.64,4.93.61,1.63,1.3,3.14,2.04,4.53l12.02,18.99c.91,1.66,1.8,2.91,2.69,3.77.88.86,2.23,1.28,4.05,1.28h6.65c4.01,0,6.01-2,6.01-6.01V31.49h-15.95l.08,22.6Z"/>
  <polygon class="cls-1" points="312.76 43.67 312.76 31.49 270.44 31.49 270.44 43.67 293.54 43.67 269.64 74.61 269.64 86.79 313.56 86.79 313.56 74.61 288.86 74.61 312.76 43.67"/>
  <path class="cls-1" d="M355.24,32.69c-1.07-.8-2.3-1.2-3.69-1.2h-15.79c-1.39,0-2.62.4-3.69,1.2-1.07.8-1.79,1.9-2.16,3.29l-14.35,50.81h17.71l2.77-11.94h15.23l2.77,11.94h17.71l-14.35-50.81c-.37-1.39-1.1-2.48-2.16-3.29ZM338.86,62.67l2.75-11.86c.21-1.01.4-2.07.56-3.17.16-1.09.29-2.15.4-3.17h2.16c.11,1.02.24,2.07.4,3.17.16,1.1.35,2.15.56,3.17l2.75,11.86h-9.58Z"/>
  <path class="cls-1" d="M452.05,31.49h-15.31c-3.79,0-6.01,1.79-6.65,5.37l-3.77,21.96c-.21,1.34-.39,2.7-.52,4.09-.13,1.39-.28,2.78-.44,4.17h-.72c-.11-1.39-.23-2.78-.36-4.17-.13-1.39-.31-2.75-.52-4.09l-4.01-21.96c-.64-3.58-2.83-5.37-6.57-5.37h-14.99c-3.9,0-5.93,2-6.09,6.01l-1.92,49.29h15.63l1.36-42.32h1.2l5.53,28.21c.64,3.53,2.86,5.29,6.65,5.29h8.98c3.85,0,6.04-1.76,6.57-5.29l5.45-28.21h1.2l1.68,42.32h15.63l-1.92-49.29c-.16-4.01-2.19-6.01-6.09-6.01Z"/>
  <path class="cls-1" d="M485.79,45.27c.59-.53,1.39-.8,2.41-.8h20.28l.8-12.26c-2.67-.37-5.64-.63-8.9-.76-3.26-.13-6.59-.21-9.98-.24-3.39-.03-6.69-.04-9.9-.04-3.8,0-6.91,1.16-9.34,3.49-2.43,2.32-3.65,5.36-3.65,9.1v30.78c0,3.74,1.22,6.77,3.65,9.1,2.43,2.32,5.54,3.49,9.34,3.49,3.21,0,6.5-.01,9.9-.04,3.39-.03,6.72-.12,9.98-.28,3.26-.16,6.22-.4,8.9-.72l-.8-12.26h-20.28c-1.02,0-1.82-.27-2.41-.8-.59-.53-.88-1.23-.88-2.08v-6.65h20.68v-11.54h-20.68v-5.37c0-.85.29-1.55.88-2.08Z"/>
  <path class="cls-1" d="M559.85,36.5c-2.03-2.11-4.69-3.61-7.97-4.49-3.29-.88-7.31-1.32-12.06-1.32s-8.94.08-12.7.24c-3.77.16-7.41.35-10.94.56v55.3c3.47.21,7.13.4,10.98.56,3.85.16,8.07.24,12.66.24s8.78-.44,12.06-1.32c3.29-.88,5.94-2.38,7.97-4.49,2.03-2.11,3.5-5.01,4.41-8.7.91-3.69,1.36-8.33,1.36-13.95s-.46-10.26-1.36-13.94c-.91-3.69-2.38-6.59-4.41-8.7ZM546.62,69c-.43,2.3-1.18,3.88-2.24,4.73-1.07.86-2.59,1.28-4.57,1.28-2.21,0-4.29-.02-6.25-.05v-31.69h6.25c1.98,0,3.5.43,4.57,1.28,1.07.86,1.82,2.43,2.24,4.73.43,2.3.64,5.58.64,9.86s-.21,7.56-.64,9.86Z"/>
  <rect class="cls-1" x="572.91" y="31.49" width="17.23" height="55.3"/>
  <path class="cls-1" d="M632.58,72.97c-2.7.08-6.05.12-10.06.12-1.82,0-3.22-.39-4.21-1.16-.99-.77-1.67-2.16-2.04-4.17-.37-2-.56-4.88-.56-8.62s.19-6.61.56-8.62c.37-2,1.05-3.39,2.04-4.17.99-.77,2.39-1.16,4.21-1.16,2.56,0,4.76.01,6.57.04,1.82.03,3.53.04,5.13.04s3.34.03,5.21.08l1.28-12.66c-1.82-.53-3.57-.95-5.25-1.24-1.68-.29-3.54-.52-5.57-.68-2.03-.16-4.49-.24-7.37-.24-6.09,0-10.98.92-14.67,2.77-3.69,1.84-6.35,4.85-7.98,9.02-1.63,4.17-2.44,9.78-2.44,16.83s.81,12.66,2.44,16.83c1.63,4.17,4.29,7.17,7.98,9.02,3.69,1.84,8.57,2.76,14.67,2.76,4.33,0,7.95-.2,10.86-.6,2.91-.4,5.76-1.08,8.53-2.04l-1.28-12.66c-2.67.27-5.36.44-8.05.52Z"/>
  <path class="cls-1" d="M682.79,32.69c-1.07-.8-2.3-1.2-3.69-1.2h-15.79c-1.39,0-2.62.4-3.69,1.2-1.07.8-1.79,1.9-2.16,3.29l-14.35,50.81h17.71l2.77-11.94h15.23l2.77,11.94h17.71l-14.35-50.81c-.37-1.39-1.1-2.48-2.16-3.29ZM666.42,62.67l2.75-11.86c.21-1.01.4-2.07.56-3.17.16-1.09.29-2.15.4-3.17h2.16c.11,1.02.24,2.07.4,3.17.16,1.1.35,2.15.56,3.17l2.75,11.86h-9.58Z"/>
  <polygon class="cls-1" points="750.11 51.37 736.17 51.37 736.17 31.49 718.78 31.49 718.78 86.79 736.17 86.79 736.17 63.55 750.11 63.55 750.11 86.79 767.5 86.79 767.5 31.49 750.11 31.49 750.11 51.37"/>
  <path class="cls-1" d="M820.56,36.22c-2.03-2.14-4.69-3.65-7.97-4.53-3.29-.88-7.31-1.32-12.06-1.32s-8.7.44-11.98,1.32c-3.29.88-5.95,2.39-7.98,4.53-2.03,2.14-3.5,5.06-4.41,8.78-.91,3.72-1.36,8.43-1.36,14.15s.45,10.37,1.36,14.11c.91,3.74,2.38,6.68,4.41,8.82,2.03,2.14,4.69,3.65,7.98,4.53,3.29.88,7.28,1.32,11.98,1.32s8.78-.44,12.06-1.32c3.29-.88,5.94-2.39,7.97-4.53,2.03-2.14,3.5-5.08,4.41-8.82.91-3.74,1.36-8.44,1.36-14.11s-.46-10.43-1.36-14.15c-.91-3.71-2.38-6.64-4.41-8.78ZM807.34,69c-.43,2.3-1.18,3.88-2.24,4.73-1.07.86-2.59,1.28-4.57,1.28s-3.5-.43-4.57-1.28c-1.07-.85-1.82-2.43-2.24-4.73-.43-2.3-.64-5.58-.64-9.86s.21-7.56.64-9.86c.43-2.3,1.18-3.87,2.24-4.73,1.07-.85,2.59-1.28,4.57-1.28s3.5.43,4.57,1.28c1.07.86,1.82,2.43,2.24,4.73.43,2.3.64,5.58.64,9.86s-.21,7.56-.64,9.86Z"/>
  <path class="cls-1" d="M863.84,54.17l-10.02-4.17c-1.87-.75-3.14-1.38-3.81-1.88-.67-.51-1-1.13-1-1.88,0-.43.08-.77.24-1.04.16-.27.43-.48.8-.64.37-.16.89-.27,1.56-.32.67-.05,1.51-.08,2.52-.08,3.47,0,6.99.01,10.54.04,3.55.03,6.53.07,8.94.12l1.04-11.14c-3.31-1.17-6.77-1.94-10.38-2.28-3.61-.35-6.85-.52-9.74-.52-4.17,0-7.71.27-10.62.8-2.91.53-5.25,1.42-7.01,2.65-1.76,1.23-3.06,2.88-3.89,4.97-.83,2.08-1.24,4.7-1.24,7.85,0,4.06.93,7.35,2.8,9.86,1.87,2.51,5.05,4.78,9.54,6.81l10.98,4.81c1.02.37,1.79.72,2.33,1.04.53.32.91.66,1.12,1,.21.35.32.79.32,1.32,0,.48-.15.87-.44,1.16-.29.29-.83.5-1.6.6-.77.11-1.91.16-3.41.16-.96,0-2.42-.01-4.37-.04-1.95-.03-4.26-.08-6.93-.16-2.67-.08-5.61-.15-8.82-.2l-1.04,12.18c4.81,1.23,9.11,1.99,12.9,2.28,3.79.29,6.62.44,8.49.44,4.33,0,7.94-.31,10.82-.92,2.88-.61,5.2-1.58,6.93-2.88,1.74-1.31,2.98-3.05,3.73-5.21.75-2.16,1.12-4.8,1.12-7.9,0-4.06-.92-7.39-2.77-9.98-1.84-2.59-5.06-4.88-9.66-6.85Z"/>
  <path class="cls-1" d="M920.1,32.33c-3.31-1.09-7.91-1.64-13.78-1.64-3.69,0-6.81.01-9.38.04-2.57.03-4.93.09-7.09.2-2.16.11-4.48.3-6.93.56v55.3h17.39v-19.08c.14.02.27.03.4.05,2.67.29,5.34.44,8.02.44,5.07,0,9.11-.55,12.1-1.64,2.99-1.1,5.14-2.99,6.45-5.69,1.31-2.7,1.96-6.48,1.96-11.34s-.69-8.74-2.08-11.46c-1.39-2.72-3.74-4.64-7.05-5.73ZM911.37,53.49c-.32.94-.91,1.58-1.76,1.92-.86.35-2.08.52-3.69.52h-5.61v-12.97c1.77,0,3.63-.01,5.61-.01,1.6,0,2.83.17,3.69.52.85.35,1.44,1,1.76,1.96.32.96.48,2.32.48,4.09s-.16,3.03-.48,3.97Z"/>
  <rect class="cls-1" x="935.25" y="31.49" width="17.23" height="55.3"/>
  <polygon class="cls-1" points="1006.34 44.47 1006.34 31.49 990.87 31.49 973.48 31.49 958.01 31.49 958.01 44.47 973.48 44.47 973.48 86.79 990.87 86.79 990.87 44.47 1006.34 44.47"/>
  <path class="cls-1" d="M1041.92,32.69c-1.07-.8-2.3-1.2-3.69-1.2h-15.79c-1.39,0-2.62.4-3.69,1.2-1.07.8-1.79,1.9-2.16,3.29l-14.35,50.81h17.71l2.77-11.94h15.23l2.77,11.94h17.71l-14.35-50.81c-.37-1.39-1.1-2.48-2.16-3.29ZM1025.55,62.67l2.75-11.86c.21-1.01.4-2.07.56-3.17.16-1.09.29-2.15.4-3.17h2.16c.11,1.02.24,2.07.4,3.17.16,1.1.35,2.15.56,3.17l2.75,11.86h-9.58Z"/>
  <path class="cls-1" d="M1082.96,73.01c-1.01,0-1.83-.27-2.44-.8-.61-.53-.92-1.23-.92-2.08V31.49h-17.39v43.04c0,3.74,1.19,6.77,3.57,9.1,2.38,2.32,5.57,3.49,9.58,3.49,4.54,0,9.15-.05,13.82-.16,4.68-.11,9.07-.43,13.18-.96l-.8-12.98h-18.59Z"/>
  <path class="cls-1" d="M1142.26,32.69c-1.07-.8-2.3-1.2-3.69-1.2h-15.79c-1.39,0-2.62.4-3.69,1.2-1.07.8-1.79,1.9-2.16,3.29l-14.35,50.81h17.71l2.77-11.94h15.23l2.77,11.94h17.71l-14.35-50.81c-.37-1.39-1.1-2.48-2.16-3.29ZM1125.89,62.67l2.75-11.86c.21-1.01.4-2.07.56-3.17.16-1.09.29-2.15.4-3.17h2.16c.11,1.02.24,2.07.4,3.17.16,1.1.35,2.15.56,3.17l2.75,11.86h-9.58Z"/>
  <path class="cls-1" d="M1205.1,64.63c-1.07-1.2-2.22-2.06-3.45-2.56-1.23-.51-2.35-.81-3.37-.92v-.48c2.89-.32,5.14-1.1,6.77-2.32,1.63-1.23,2.78-2.79,3.45-4.69.67-1.9,1-3.94,1-6.13,0-4.33-.81-7.71-2.44-10.14-1.63-2.43-4.16-4.15-7.57-5.17-3.42-1.01-7.85-1.52-13.3-1.52-3.69,0-6.83.01-9.42.04-2.59.03-4.97.09-7.13.2-2.16.11-4.48.3-6.93.56v55.3h17.07v-20.26c1.61.01,3.4.03,5.37.06,1.5,0,2.58.24,3.25.72.67.48,1.16,1.5,1.48,3.05l3.61,16.43h18.19l-4.33-16.99c-.43-2.24-1.18-3.97-2.24-5.17ZM1191.51,52.13c-.35.83-.97,1.4-1.88,1.72-.91.32-2.19.48-3.85.48h-6.01v-11.37c1.87,0,3.88-.01,6.01-.01,1.65,0,2.94.16,3.85.48.91.32,1.53.88,1.88,1.68.35.8.52,1.98.52,3.53s-.17,2.66-.52,3.49Z"/>
  <rect class="cls-1" x="1217.44" y="31.49" width="17.23" height="55.3"/>
  <path class="cls-1" d="M1278.35,32.69c-1.07-.8-2.3-1.2-3.69-1.2h-15.79c-1.39,0-2.62.4-3.69,1.2-1.07.8-1.79,1.9-2.16,3.29l-14.35,50.81h17.71l2.77-11.94h15.23l2.77,11.94h17.71l-14.35-50.81c-.37-1.39-1.1-2.48-2.16-3.29ZM1261.98,62.67l2.75-11.86c.21-1.01.4-2.07.56-3.17.16-1.09.29-2.15.4-3.17h2.16c.11,1.02.24,2.07.4,3.17.16,1.1.35,2.15.56,3.17l2.75,11.86h-9.58Z"/>
  <rect class="cls-1" x="1314.34" y="31.49" width="17.23" height="55.3"/>
  <path class="cls-1" d="M1375.49,54.09c0,1.66.07,3.31.2,4.97.13,1.66.31,3.34.52,5.05h-.56c-.64-1.76-1.32-3.45-2.04-5.05-.72-1.6-1.46-3.07-2.2-4.41l-11.54-18.11c-.96-1.66-1.87-2.91-2.72-3.77-.86-.85-2.19-1.28-4.01-1.28h-6.65c-4.01,0-6.01,2-6.01,6.01v49.29h16.03v-23.4c0-1.6-.07-3.27-.2-5.01-.13-1.74-.33-3.43-.6-5.09h.56c.48,1.66,1.03,3.3,1.64,4.93.61,1.63,1.3,3.14,2.04,4.53l12.02,18.99c.91,1.66,1.8,2.91,2.69,3.77.88.86,2.23,1.28,4.05,1.28h6.65c4.01,0,6.01-2,6.01-6.01V31.49h-15.95l.08,22.6Z"/>
  <polygon class="cls-1" points="1412.19 31.49 1396.73 31.49 1396.73 44.47 1412.19 44.47 1412.19 86.79 1429.59 86.79 1429.59 44.47 1445.05 44.47 1445.05 31.49 1429.59 31.49 1412.19 31.49"/>
  <path class="cls-1" d="M1468.37,45.27c.59-.53,1.39-.8,2.41-.8h20.28l.8-12.26c-2.67-.37-5.64-.63-8.9-.76-3.26-.13-6.59-.21-9.98-.24-3.39-.03-6.69-.04-9.9-.04-3.8,0-6.91,1.16-9.34,3.49-2.43,2.32-3.65,5.36-3.65,9.1v30.78c0,3.74,1.22,6.77,3.65,9.1,2.43,2.32,5.54,3.49,9.34,3.49,3.21,0,6.5-.01,9.9-.04,3.39-.03,6.72-.12,9.98-.28,3.26-.16,6.22-.4,8.9-.72l-.8-12.26h-20.28c-1.02,0-1.82-.27-2.41-.8-.59-.53-.88-1.23-.88-2.08v-6.65h20.68v-11.54h-20.68v-5.37c0-.85.29-1.55.88-2.08Z"/>
  <path class="cls-1" d="M1527.93,72.59s-.05.01-.08.02c-.8.16-1.7.28-2.69.36-.99.08-2.07.12-3.25.12-1.82,0-3.23-.39-4.25-1.16-1.02-.77-1.74-2.16-2.16-4.17-.43-2-.64-4.88-.64-8.62,0-2.83.12-5.17.36-7.01.24-1.84.65-3.29,1.24-4.33.59-1.04,1.39-1.76,2.41-2.16,1.01-.4,2.3-.6,3.85-.6,2.51,0,4.76.01,6.73.04,1.98.03,3.89.04,5.73.04s3.78.03,5.81.08l1.28-12.5c-1.92-.59-3.84-1.04-5.73-1.36-1.9-.32-3.95-.56-6.17-.72-2.22-.16-4.8-.24-7.73-.24-6.36,0-11.45.92-15.27,2.77-3.82,1.84-6.57,4.86-8.25,9.06-1.68,4.19-2.52,9.85-2.52,16.95s.64,12.53,1.92,16.75c1.28,4.22,3.29,7.28,6.01,9.18,2.72,1.9,6.2,2.84,10.42,2.84,2.94,0,5.53-.47,7.77-1.4,2.24-.93,4.1-2.07,5.57-3.41.79-.71,1.44-1.39,1.99-2.02l1.49,5.71h12.82v-31.82h-16.67v17.62Z"/>
  <path class="cls-1" d="M1594.61,64.63c-1.07-1.2-2.22-2.06-3.44-2.56-1.23-.51-2.35-.81-3.37-.92v-.48c2.89-.32,5.14-1.1,6.77-2.32,1.63-1.23,2.78-2.79,3.45-4.69.67-1.9,1-3.94,1-6.13,0-4.33-.81-7.71-2.44-10.14-1.63-2.43-4.16-4.15-7.57-5.17-3.42-1.01-7.85-1.52-13.3-1.52-3.69,0-6.83.01-9.42.04-2.59.03-4.97.09-7.13.2-2.16.11-4.48.3-6.93.56v55.3h17.07v-20.26c1.61.01,3.4.03,5.37.06,1.5,0,2.58.24,3.25.72.67.48,1.16,1.5,1.48,3.05l3.61,16.43h18.19l-4.33-16.99c-.43-2.24-1.18-3.97-2.24-5.17ZM1581.02,52.13c-.35.83-.97,1.4-1.88,1.72-.91.32-2.19.48-3.85.48h-6.01v-11.37c1.87,0,3.88-.01,6.01-.01,1.65,0,2.94.16,3.85.48.91.32,1.54.88,1.88,1.68.35.8.52,1.98.52,3.53s-.17,2.66-.52,3.49Z"/>
  <path class="cls-1" d="M1641.66,32.69c-1.07-.8-2.3-1.2-3.69-1.2h-15.79c-1.39,0-2.62.4-3.69,1.2-1.07.8-1.79,1.9-2.16,3.29l-14.35,50.81h17.71l2.77-11.94h15.23l2.77,11.94h17.71l-14.35-50.81c-.37-1.39-1.1-2.48-2.16-3.29ZM1625.28,62.67l2.75-11.86c.21-1.01.4-2.07.56-3.17.16-1.09.29-2.15.4-3.17h2.16c.11,1.02.24,2.07.4,3.17.16,1.1.35,2.15.56,3.17l2.75,11.86h-9.58Z"/>
  <path class="cls-1" d="M1701.28,73.01h-18.59c-1.01,0-1.83-.27-2.44-.8-.61-.53-.92-1.23-.92-2.08V31.49h-17.39v43.04c0,3.74,1.19,6.77,3.57,9.1,2.38,2.32,5.57,3.49,9.58,3.49,4.54,0,9.15-.05,13.82-.16,4.68-.11,9.07-.43,13.18-.96l-.8-12.98Z"/>
</svg>