<?xml version="1.0" encoding="UTF-8"?>
<svg id="Capa_1" data-name="Capa 1" xmlns="http://www.w3.org/2000/svg" viewBox="0 0 5203.01 1873.62">
  <defs>
    <style>
      .cls-1 {
        fill: #fff;
      }
    </style>
  </defs>
  <g>
    <path class="cls-1" d="M902.15,248.75c-120.96,0-219.05,98.05-219.05,219.05s98.09,219,219.05,219,219.05-98.05,219.05-219-98.09-219.05-219.05-219.05ZM902.15,612.85c-80.1,0-145.06-64.95-145.06-145.06s64.95-145.06,145.06-145.06,145.06,64.95,145.06,145.06-64.95,145.06-145.06,145.06Z"/>
    <path class="cls-1" d="M1665.13,540.94h-417.54c-2.75,0-5.01-2.26-5.01-5.01V131.69c0-44.35-35.98-80.33-80.33-80.33h-517.23c-44.35,0-80.33,35.98-80.33,80.33v404.25c0,2.75-2.26,5.01-5.01,5.01H142.16c-44.35,0-80.33,35.98-80.33,80.33v508.37c0,44.35,35.98,80.33,80.33,80.33h417.54c2.75,0,5.01,2.26,5.01,5.01v426.4c0,44.35,35.98,80.33,80.33,80.33h451.79c20.78,0,37.66-16.88,37.66-37.66,0-10.37-4.21-19.8-11.03-26.63-6.82-6.82-16.26-11.03-26.63-11.03h-451.79c-2.75,0-5.01-2.26-5.01-5.01v-426.4c0-44.35-35.98-80.33-80.33-80.33h-54.36c-2.61-27.78-6.6-96.94,9.53-168.19,26.18-115.24,91.85-182.76,195.21-200.62,1.91-.31,3.77.13,4.92,1.24,6.65,6.25,13.38,12.89,20.51,19.89,14.58,14.4,29.64,29.29,45.55,42.18l2.44,1.99c25.39,20.65,56.18,45.59,91.93,55.43v191.36h.04c-.49,68.41,20.65,135.75,72.57,182.72,50.29,45.5,125.3,73.68,200.48,77.09v267.83c-3.19,73.46,26.14,213.02,159.77,221.26.58.04,3.1.22,7.18.22,21.58,0,85.95-4.52,123.13-55.25,7.89,1.51,16.08,2.3,24.41,2.3,72.4,0,131.06-58.71,131.06-131.06s-58.66-131.06-131.06-131.06-131.06,58.66-131.06,131.06c0,37.66,15.91,71.6,41.34,95.43-23.13,19.49-59.9,17.68-60.34,17.63-40.23-2.48-67.08-25.34-82.05-69.83-13.03-38.59-11.52-77.98-11.52-78.29l.04-275.27c76.74-17.72,124.59-85.24,142.36-201.24,16.48-107.35.4-208.15-45.28-283.78-34.38-56.93-87.33-101.33-153.12-128.44-3.06-1.28-22.77-9.04-42.67-15.51-26.54-8.64-62.87-20.47-80.46,8.51-22.55,37.17-62.38,73.73-109.21,100.26-30.88,17.5-55.07,2.35-102.88-36.46l-2.44-1.95c-13.25-10.77-27.07-24.41-40.41-37.57-7.13-7.04-14.49-14.31-21.75-21.13-17.32-16.26-41.87-23.53-65.53-19.45-133.09,23.04-220.47,111.83-252.72,256.8-16.75,75.23-14.13,146.43-11.17,181.88H142.16c-2.75,0-5.01-2.26-5.01-5.01v-508.37c0-2.75,2.26-5.01,5.01-5.01h417.54c44.35,0,80.33-35.98,80.33-80.33V131.69c0-2.75,2.26-5.01,5.01-5.01h517.23c2.75,0,5.01,2.26,5.01,5.01v404.25c0,44.35,35.98,80.33,80.33,80.33h417.54c2.75,0,5.01,2.26,5.01,5.01v503.94c0,2.75-2.26,5.01-5.01,5.01h-207.97c-20.78,0-37.66,16.88-37.66,37.66,0,10.37,4.21,19.8,11.03,26.63,6.82,6.82,16.22,11.03,26.63,11.03h207.97c44.35,0,80.33-35.98,80.33-80.33v-503.94c0-44.35-35.98-80.33-80.33-80.33ZM1463,1582.71c33.32,0,60.34,27.03,60.34,60.34s-27.03,60.34-60.34,60.34-60.34-27.03-60.34-60.34,27.03-60.34,60.34-60.34ZM947.11,1074.74v-171.54c0-5.15-.13-11.56,0-16.72.01-.4,2.35-1.74,2.68-1.97,1.68-1.23,3.4-2.41,5.14-3.56,9.46-6.28,19.51-11.67,29.11-17.75,4.54-2.87,9.03-5.8,13.47-8.82,2.22-1.51,4.43-3.05,6.62-4.6,2-1.43,4.06-3.45,6.25-4.55,16.96-12.65,33-26.56,47.74-41.74,10.84-11.15,20.99-23,30.15-35.57,15.11,4.43,37,12.32,48.12,16.88,51.62,21.31,92.91,55.74,119.4,99.6,37.13,61.41,49.89,145.37,35.93,236.33-9.04,58.71-29.33,137.57-101.42,145.15-75.41,7.93-166.81-18.3-214.84-81.17-15.51-20.29-22.95-41.03-26.23-63-1.2-7.84-1.86-15.86-2.13-24.1-.27-7.44-.22-15.02,0-22.86Z"/>
  </g>
  <g>
    <path class="cls-1" d="M902.14,248.74c-120.94,0-219.04,98.06-219.04,219.07s98.1,219.01,219.04,219.01,219.04-98.06,219.04-219.01-98.06-219.07-219.04-219.07ZM902.14,612.86c-80.09,0-145.05-64.96-145.05-145.05s64.96-145.05,145.05-145.05,145.05,64.93,145.05,145.05-64.93,145.05-145.05,145.05Z"/>
    <path class="cls-1" d="M1463,1511.98c-72.34,0-131.04,58.67-131.04,131.07,0,37.66,15.88,71.61,41.33,95.44-23.13,19.49-59.9,17.69-60.34,17.63-40.22-2.47-67.08-25.35-82.05-69.81-13.04-38.61-11.52-78-11.52-78.29l.03-275.3c76.74-17.72,124.58-85.22,142.36-201.22,16.49-107.37.41-208.15-45.28-283.78-34.4-56.93-87.34-101.32-153.12-128.44-3.07-1.3-22.78-9.05-42.66-15.51-26.55-8.64-62.88-20.47-80.47,8.51-22.56,37.15-62.37,73.73-109.2,100.25-30.88,17.5-55.09,2.34-102.91-36.45l-2.44-1.96c-13.23-10.76-27.06-24.4-40.38-37.56-7.15-7.06-14.49-14.3-21.77-21.14-17.31-16.26-41.86-23.51-65.53-19.46-133.09,23.07-220.46,111.83-252.71,256.82-16.77,75.22-14.14,146.42-11.17,181.86h71.2c-2.63-27.78-6.61-96.92,9.52-168.19,26.17-115.21,91.86-182.74,195.21-200.62,1.9-.29,3.77.16,4.9,1.27,6.68,6.23,13.39,12.88,20.54,19.87,14.56,14.4,29.62,29.3,45.54,42.18l2.44,1.99c25.38,20.66,56.2,45.6,91.92,55.44v191.35h.06c-.51,68.41,20.63,135.75,72.56,182.71,50.28,45.5,125.31,73.7,200.49,77.12v267.83c-3.2,73.44,26.14,213.03,159.77,221.25.57.03,3.1.22,7.18.22,21.58,0,85.94-4.52,123.13-55.25,7.88,1.52,16.08,2.31,24.4,2.31,72.4,0,131.07-58.7,131.07-131.07s-58.67-131.07-131.07-131.07ZM1190.29,1265.89c-75.41,7.91-166.79-18.32-214.83-81.17-15.51-20.31-22.94-41.04-26.23-63-1.2-7.85-1.87-15.88-2.12-24.11-.25-7.44-.22-15.03,0-22.88v-171.54c0-5.13-.13-11.55,0-16.71,0-.38,2.34-1.74,2.66-1.96,1.71-1.23,3.42-2.4,5.16-3.58,9.46-6.27,19.49-11.64,29.11-17.72,4.53-2.88,9.02-5.82,13.48-8.83,2.22-1.52,4.43-3.07,6.61-4.62,1.99-1.42,4.05-3.45,6.23-4.56,16.96-12.63,33-26.55,47.75-41.74,10.82-11.14,20.98-22.97,30.16-35.57,15.09,4.43,36.99,12.34,48.1,16.9,51.64,21.3,92.91,55.72,119.42,99.58,37.12,61.42,49.87,145.37,35.92,236.35-9.02,58.7-29.33,137.55-101.42,145.15ZM1463,1703.39c-33.32,0-60.34-27.02-60.34-60.34s27.02-60.34,60.34-60.34,60.34,27.02,60.34,60.34-27.02,60.34-60.34,60.34Z"/>
  </g>
  <g>
    <path class="cls-1" d="M2143.62,550.43h257.05l343.6,849.82h-254.42l-39.34-110.16h-356.71l-39.34,110.16h-254.42l343.6-849.82ZM2383.61,1098.62l-100.98-287.21c-7.87-20.98-9.18-28.85-10.49-34.1,0,0-2.62,11.8-10.49,34.1l-100.98,287.21h222.95Z"/>
    <path class="cls-1" d="M2826.86,550.43h212.46l166.55,238.68c27.54,40.65,72.13,110.16,72.13,110.16,0,0,44.59-69.51,72.13-110.16l166.56-238.68h212.45v849.82h-249.17v-430.16s-43.28,69.51-66.88,102.29l-135.08,188.85-136.39-188.85c-23.61-32.78-65.57-99.67-65.57-99.67v427.54h-249.18v-849.82Z"/>
    <path class="cls-1" d="M3873.37,550.43h249.18v317.37h255.73v-317.37h249.17v849.82h-249.17v-321.31h-255.73v321.31h-249.18v-849.82Z"/>
    <path class="cls-1" d="M4771.7,550.43h249.18v849.82h-249.18v-849.82Z"/>
  </g>
  <g>
    <path class="cls-1" d="M1855.39,1556.71c2.69,0,5.06.77,7.13,2.32,2.07,1.55,3.46,3.67,4.19,6.36l27.75,98.31h-34.26l-16.13-69.62c-.41-1.96-.78-4-1.08-6.12-.31-2.12-.57-4.16-.78-6.12h-4.19c-.21,1.97-.46,4.01-.77,6.12-.31,2.12-.67,4.16-1.09,6.12l-16.12,69.62h-34.27l27.75-98.31c.72-2.69,2.12-4.81,4.19-6.36s4.44-2.32,7.14-2.32h30.54ZM1868.57,1617.02v23.57h-56.91v-23.57h56.91Z"/>
    <path class="cls-1" d="M1935.4,1556.71v74.73c0,1.66.59,3,1.79,4.03,1.19,1.04,2.76,1.55,4.73,1.55h35.97l1.55,25.12c-7.96,1.04-16.46,1.65-25.51,1.86-9.05.21-17.96.31-26.75.31-7.75,0-13.93-2.25-18.53-6.75-4.6-4.5-6.9-10.36-6.9-17.6v-83.26h33.65Z"/>
    <path class="cls-1" d="M2022.85,1556.71v106.99h-33.33v-106.99h33.33Z"/>
    <path class="cls-1" d="M2100.22,1556.71c2.69,0,5.06.77,7.13,2.32,2.07,1.55,3.46,3.67,4.19,6.36l27.76,98.31h-34.27l-16.12-69.62c-.41-1.96-.78-4-1.08-6.12-.31-2.12-.57-4.16-.78-6.12h-4.19c-.21,1.97-.47,4.01-.78,6.12-.31,2.12-.67,4.16-1.08,6.12l-16.12,69.62h-34.27l27.76-98.31c.72-2.69,2.11-4.81,4.18-6.36,2.07-1.55,4.44-2.32,7.13-2.32h30.55ZM2113.4,1617.02v23.57h-56.9v-23.57h56.9Z"/>
    <path class="cls-1" d="M2245.35,1556.71v95.36c0,7.75-3.88,11.63-11.63,11.63h-12.87c-3.52,0-6.12-.83-7.83-2.48-1.71-1.65-3.44-4.08-5.19-7.29l-23.26-36.75c-1.45-2.69-2.77-5.61-3.95-8.76-1.19-3.15-2.25-6.33-3.18-9.54h-1.08c.52,3.21.91,6.49,1.17,9.85.25,3.36.39,6.59.39,9.69v45.27h-31.01v-95.36c0-7.75,3.88-11.63,11.63-11.63h12.87c3.51,0,6.1.83,7.75,2.48,1.65,1.66,3.41,4.09,5.27,7.29l22.33,35.04c1.45,2.59,2.87,5.43,4.26,8.53,1.39,3.1,2.71,6.36,3.95,9.77h1.09c-.41-3.31-.75-6.56-1.01-9.77-.26-3.2-.39-6.41-.39-9.61l-.15-43.72h30.86Z"/>
    <path class="cls-1" d="M2305.04,1580.12l37.06.15-46.36,60.01-37.06-.15,46.36-60.01ZM2343.65,1640.13v23.57h-84.97v-23.57h84.97ZM2342.1,1556.71v23.57h-81.87v-23.57h81.87Z"/>
    <path class="cls-1" d="M2417.14,1556.71c2.69,0,5.06.77,7.14,2.32,2.06,1.55,3.46,3.67,4.18,6.36l27.76,98.31h-34.27l-16.12-69.62c-.41-1.96-.78-4-1.09-6.12-.31-2.12-.57-4.16-.78-6.12h-4.18c-.21,1.97-.47,4.01-.78,6.12-.31,2.12-.67,4.16-1.08,6.12l-16.13,69.62h-34.27l27.76-98.31c.72-2.69,2.12-4.81,4.19-6.36,2.06-1.55,4.44-2.32,7.13-2.32h30.54ZM2430.32,1617.02v23.57h-56.9v-23.57h56.9Z"/>
    <path class="cls-1" d="M2611.58,1556.71c7.54,0,11.47,3.88,11.78,11.63l3.72,95.36h-30.24l-3.26-81.87h-2.32l-10.54,54.58c-1.04,6.82-5.27,10.23-12.72,10.23h-17.36c-7.34,0-11.63-3.41-12.87-10.23l-10.7-54.58h-2.33l-2.64,81.87h-30.23l3.72-95.36c.31-7.75,4.24-11.63,11.79-11.63h29c7.23,0,11.47,3.46,12.71,10.39l7.75,42.49c.41,2.58.75,5.22,1.01,7.91.26,2.69.49,5.37.7,8.06h1.39c.31-2.69.59-5.37.85-8.06.26-2.69.59-5.32,1.01-7.91l7.29-42.49c1.24-6.92,5.53-10.39,12.87-10.39h29.62Z"/>
    <path class="cls-1" d="M2666.63,1556.09c6.2,0,12.58.02,19.15.08,6.56.05,13,.21,19.3.46,6.3.26,12.04.75,17.21,1.47l-1.55,23.72h-39.23c-1.97,0-3.52.52-4.65,1.55-1.14,1.04-1.71,2.38-1.71,4.03v45.59c0,1.66.57,3,1.71,4.03,1.14,1.03,2.69,1.55,4.65,1.55h39.23l1.55,23.72c-5.17.62-10.91,1.09-17.21,1.4-6.3.31-12.74.49-19.3.54-6.57.05-12.95.08-19.15.08-7.34,0-13.36-2.25-18.07-6.75-4.7-4.5-7.05-10.36-7.05-17.6v-59.54c0-7.23,2.35-13.1,7.05-17.6,4.7-4.5,10.72-6.75,18.07-6.75ZM2644.3,1597.8h70.86v22.33h-70.86v-22.33ZM2704.61,1515.46l12.25,20.62-39.54,15.97-8.84-13.33,36.13-23.26Z"/>
    <path class="cls-1" d="M2781.37,1555.16c9.2,0,16.98.85,23.34,2.56,6.36,1.71,11.5,4.6,15.43,8.68,3.93,4.08,6.77,9.69,8.53,16.82,1.76,7.13,2.64,16.12,2.64,26.98s-.88,19.85-2.64,26.98c-1.76,7.13-4.6,12.74-8.53,16.82-3.93,4.09-9.07,6.98-15.43,8.68-6.36,1.71-14.14,2.56-23.34,2.56s-17.05-.15-24.5-.47c-7.44-.31-14.52-.67-21.24-1.08l13.65-23.88c3.62.41,8.19.7,13.72.85,5.53.15,11.65.23,18.37.23,3.82,0,6.77-.83,8.84-2.48,2.07-1.65,3.51-4.7,4.34-9.15.83-4.44,1.24-10.8,1.24-19.07s-.41-14.63-1.24-19.07c-.83-4.44-2.27-7.49-4.34-9.15-2.07-1.65-5.02-2.48-8.84-2.48h-16.67c-4.81,0-9.48-.05-14.03-.15l-15.04-22.64c6.82-.41,13.88-.78,21.16-1.09,7.29-.31,15.48-.46,24.58-.46ZM2769.27,1556.71v106.99h-33.65v-106.99h33.65Z"/>
    <path class="cls-1" d="M2878.74,1556.71v106.99h-33.34v-106.99h33.34Z"/>
    <path class="cls-1" d="M2941.38,1554.85c5.58,0,10.33.16,14.26.47,3.93.31,7.52.75,10.78,1.32,3.26.57,6.64,1.37,10.16,2.4l-2.48,24.5c-3.62-.1-6.98-.15-10.08-.15s-6.41-.02-9.92-.08c-3.51-.05-7.75-.08-12.71-.08-3.52,0-6.23.75-8.14,2.25-1.91,1.5-3.23,4.19-3.95,8.06-.72,3.88-1.08,9.43-1.08,16.67s.36,12.79,1.08,16.67c.72,3.88,2.04,6.57,3.95,8.06,1.91,1.5,4.63,2.25,8.14,2.25,7.75,0,14.24-.08,19.46-.23,5.22-.16,10.41-.49,15.58-1.01l2.48,24.5c-5.37,1.86-10.88,3.18-16.51,3.96-5.64.78-12.64,1.16-21.01,1.16-11.79,0-21.24-1.78-28.37-5.35-7.14-3.57-12.28-9.38-15.43-17.44-3.16-8.06-4.73-18.92-4.73-32.56s1.57-24.5,4.73-32.56c3.15-8.06,8.29-13.87,15.43-17.44,7.13-3.57,16.59-5.35,28.37-5.35Z"/>
    <path class="cls-1" d="M3050.85,1556.71c2.69,0,5.06.77,7.14,2.32,2.06,1.55,3.46,3.67,4.18,6.36l27.76,98.31h-34.27l-16.12-69.62c-.41-1.96-.78-4-1.09-6.12-.31-2.12-.57-4.16-.78-6.12h-4.18c-.21,1.97-.47,4.01-.78,6.12-.31,2.12-.67,4.16-1.08,6.12l-16.13,69.62h-34.27l27.76-98.31c.72-2.69,2.12-4.81,4.19-6.36,2.06-1.55,4.44-2.32,7.13-2.32h30.54ZM3064.03,1617.02v23.57h-56.9v-23.57h56.9Z"/>
    <path class="cls-1" d="M3161.25,1556.71v106.99h-33.65v-106.99h33.65ZM3189.93,1595.16v23.57h-29.93v-23.57h29.93ZM3221.87,1556.71v106.99h-33.65v-106.99h33.65Z"/>
    <path class="cls-1" d="M3285.75,1554.54c9.2,0,16.98.85,23.34,2.56,6.36,1.71,11.5,4.63,15.43,8.76,3.93,4.13,6.77,9.8,8.53,16.98,1.76,7.19,2.64,16.31,2.64,27.37s-.88,20.06-2.64,27.29c-1.76,7.24-4.6,12.92-8.53,17.06-3.93,4.13-9.07,7.05-15.43,8.76-6.36,1.7-14.14,2.56-23.34,2.56s-16.82-.85-23.18-2.56c-6.36-1.71-11.5-4.63-15.43-8.76-3.93-4.13-6.77-9.82-8.53-17.06-1.76-7.23-2.64-16.33-2.64-27.29s.87-20.18,2.64-27.37c1.76-7.18,4.6-12.84,8.53-16.98,3.93-4.13,9.07-7.05,15.43-8.76,6.36-1.71,14.08-2.56,23.18-2.56ZM3285.75,1579.5c-3.83,0-6.77.83-8.84,2.48-2.07,1.66-3.51,4.71-4.34,9.15s-1.24,10.8-1.24,19.07.41,14.63,1.24,19.07c.83,4.45,2.27,7.5,4.34,9.15,2.07,1.66,5.01,2.48,8.84,2.48s6.77-.83,8.84-2.48c2.07-1.65,3.51-4.7,4.34-9.15.83-4.44,1.24-10.8,1.24-19.07s-.41-14.63-1.24-19.07c-.83-4.44-2.27-7.49-4.34-9.15-2.07-1.65-5.02-2.48-8.84-2.48Z"/>
    <path class="cls-1" d="M3390.25,1554.54c5.58,0,11.86.34,18.84,1.01,6.98.67,13.67,2.15,20.08,4.42l-2.01,21.55c-4.65-.1-10.41-.18-17.29-.23-6.88-.05-13.67-.08-20.39-.08-1.96,0-3.59.06-4.88.16-1.29.1-2.3.31-3.03.62-.72.31-1.24.73-1.55,1.24-.31.52-.47,1.19-.47,2.01,0,1.45.65,2.66,1.94,3.64,1.29.98,3.75,2.2,7.37,3.64l19.38,8.06c8.89,3.83,15.12,8.24,18.68,13.26,3.57,5.02,5.35,11.45,5.35,19.3,0,6-.72,11.09-2.17,15.27-1.45,4.18-3.85,7.55-7.21,10.08-3.36,2.53-7.83,4.39-13.41,5.58-5.58,1.19-12.56,1.78-20.93,1.78-3.62,0-9.1-.28-16.43-.85-7.34-.57-15.66-2.04-24.97-4.42l2.02-23.57c6.2.1,11.88.23,17.05.39,5.17.15,9.64.26,13.41.31,3.77.05,6.59.08,8.45.08,2.89,0,5.09-.1,6.59-.31,1.5-.2,2.53-.59,3.1-1.16.57-.57.85-1.32.85-2.25,0-1.03-.21-1.89-.62-2.56-.41-.67-1.14-1.32-2.17-1.94-1.04-.62-2.53-1.29-4.5-2.01l-21.24-9.3c-8.68-3.92-14.83-8.32-18.45-13.18-3.62-4.85-5.43-11.21-5.43-19.07,0-6.1.8-11.16,2.4-15.19,1.6-4.03,4.11-7.23,7.52-9.61,3.41-2.38,7.93-4.08,13.57-5.12,5.63-1.03,12.48-1.55,20.54-1.55Z"/>
    <path class="cls-1" d="M3490.42,1555.16c11.37,0,20.26,1.06,26.67,3.18,6.41,2.12,10.95,5.82,13.64,11.09,2.69,5.27,4.03,12.66,4.03,22.17s-1.27,16.72-3.8,21.94c-2.53,5.22-6.7,8.89-12.48,11.01-5.79,2.12-13.59,3.18-23.41,3.18-5.17,0-10.34-.28-15.51-.85-5.17-.57-10-1.29-14.5-2.17-4.5-.88-8.35-1.81-11.55-2.79-3.21-.98-5.43-1.89-6.67-2.72l.47-15.19h42.33c3.1,0,5.48-.33,7.13-1.01,1.65-.67,2.79-1.91,3.41-3.72.62-1.81.93-4.37.93-7.68s-.31-6.05-.93-7.91c-.62-1.86-1.76-3.12-3.41-3.8-1.66-.67-4.03-1.01-7.13-1.01-10.54,0-19.54.05-26.98.15-7.44.11-12.51.31-15.19.62l-2.33-22.95c4.75-.52,9.23-.88,13.41-1.09,4.19-.2,8.76-.33,13.72-.39s11.01-.08,18.14-.08ZM3478.79,1556.71v106.99h-33.65v-106.99h33.65Z"/>
    <path class="cls-1" d="M3579.73,1556.71v106.99h-33.34v-106.99h33.34Z"/>
    <path class="cls-1" d="M3683.92,1556.71v25.12h-93.5v-25.12h93.5ZM3654,1556.71v106.99h-33.65v-106.99h33.65Z"/>
    <path class="cls-1" d="M3745.63,1556.71c2.69,0,5.06.77,7.14,2.32,2.06,1.55,3.46,3.67,4.18,6.36l27.76,98.31h-34.27l-16.12-69.62c-.41-1.96-.78-4-1.09-6.12-.31-2.12-.57-4.16-.78-6.12h-4.18c-.21,1.97-.47,4.01-.78,6.12-.31,2.12-.67,4.16-1.08,6.12l-16.13,69.62h-34.27l27.76-98.31c.72-2.69,2.12-4.81,4.19-6.36,2.06-1.55,4.44-2.32,7.13-2.32h30.54ZM3758.81,1617.02v23.57h-56.9v-23.57h56.9Z"/>
    <path class="cls-1" d="M3825.64,1556.71v74.73c0,1.66.59,3,1.78,4.03,1.19,1.04,2.77,1.55,4.73,1.55h35.97l1.55,25.12c-7.96,1.04-16.46,1.65-25.51,1.86-9.05.21-17.96.31-26.75.31-7.75,0-13.93-2.25-18.53-6.75-4.6-4.5-6.9-10.36-6.9-17.6v-83.26h33.65Z"/>
    <path class="cls-1" d="M3939.76,1556.71c2.69,0,5.06.77,7.14,2.32,2.06,1.55,3.46,3.67,4.18,6.36l27.76,98.31h-34.27l-16.12-69.62c-.41-1.96-.78-4-1.09-6.12-.31-2.12-.57-4.16-.78-6.12h-4.18c-.21,1.97-.47,4.01-.78,6.12-.31,2.12-.67,4.16-1.08,6.12l-16.13,69.62h-34.27l27.76-98.31c.72-2.69,2.12-4.81,4.19-6.36,2.06-1.55,4.44-2.32,7.13-2.32h30.54ZM3952.94,1617.02v23.57h-56.9v-23.57h56.9Z"/>
    <path class="cls-1" d="M4031.86,1555.16c10.54,0,19.12.98,25.74,2.94,6.61,1.97,11.5,5.3,14.65,10,3.15,4.71,4.73,11.24,4.73,19.62,0,4.24-.65,8.19-1.94,11.86-1.29,3.67-3.52,6.69-6.67,9.07-3.16,2.38-7.52,3.88-13.1,4.5v.93c1.96.21,4.13.8,6.51,1.78,2.38.98,4.6,2.64,6.67,4.96,2.07,2.33,3.51,5.66,4.34,10l8.37,32.87h-35.2l-6.98-31.79c-.62-3-1.58-4.96-2.87-5.89-1.29-.93-3.39-1.39-6.28-1.39-7.75-.1-14.09-.16-18.99-.16s-9.07-.05-12.48-.15c-3.41-.1-6.82-.26-10.23-.46l.47-22.95h42.48c3.2,0,5.68-.31,7.44-.93,1.76-.62,2.97-1.73,3.64-3.33.67-1.6,1.01-3.85,1.01-6.75s-.34-5.27-1.01-6.82c-.67-1.55-1.89-2.64-3.64-3.25-1.76-.62-4.24-.93-7.44-.93-10.75,0-19.8.05-27.14.15-7.34.11-12.35.31-15.04.62l-2.48-22.95c4.75-.52,9.23-.88,13.41-1.09,4.19-.2,8.79-.33,13.8-.39,5.01-.05,11.09-.08,18.22-.08ZM4019.46,1556.71v106.99h-33.03v-106.99h33.03Z"/>
    <path class="cls-1" d="M4125.67,1556.71v106.99h-33.34v-106.99h33.34Z"/>
    <path class="cls-1" d="M4203.03,1556.71c2.69,0,5.06.77,7.14,2.32,2.06,1.55,3.46,3.67,4.18,6.36l27.76,98.31h-34.27l-16.12-69.62c-.41-1.96-.78-4-1.09-6.12-.31-2.12-.57-4.16-.78-6.12h-4.18c-.21,1.97-.47,4.01-.78,6.12-.31,2.12-.67,4.16-1.08,6.12l-16.13,69.62h-34.27l27.76-98.31c.72-2.69,2.12-4.81,4.19-6.36,2.06-1.55,4.44-2.32,7.13-2.32h30.54ZM4216.21,1617.02v23.57h-56.9v-23.57h56.9Z"/>
    <path class="cls-1" d="M4313.13,1556.71v106.99h-33.34v-106.99h33.34Z"/>
    <path class="cls-1" d="M4428.8,1556.71v95.36c0,7.75-3.88,11.63-11.63,11.63h-12.87c-3.51,0-6.12-.83-7.83-2.48-1.71-1.65-3.44-4.08-5.19-7.29l-23.26-36.75c-1.45-2.69-2.77-5.61-3.96-8.76-1.19-3.15-2.25-6.33-3.18-9.54h-1.08c.52,3.21.9,6.49,1.16,9.85.26,3.36.39,6.59.39,9.69v45.27h-31.01v-95.36c0-7.75,3.88-11.63,11.63-11.63h12.87c3.51,0,6.1.83,7.75,2.48,1.65,1.66,3.41,4.09,5.27,7.29l22.33,35.04c1.45,2.59,2.87,5.43,4.26,8.53,1.4,3.1,2.71,6.36,3.95,9.77h1.09c-.41-3.31-.75-6.56-1.01-9.77-.26-3.2-.39-6.41-.39-9.61l-.15-43.72h30.86Z"/>
    <path class="cls-1" d="M4532.68,1556.71v25.12h-93.5v-25.12h93.5ZM4502.75,1556.71v106.99h-33.65v-106.99h33.65Z"/>
    <path class="cls-1" d="M4567.56,1556.09c6.2,0,12.58.02,19.15.08,6.56.05,13,.21,19.3.46,6.3.26,12.04.75,17.21,1.47l-1.55,23.72h-39.23c-1.97,0-3.52.52-4.65,1.55-1.14,1.04-1.71,2.38-1.71,4.03v45.59c0,1.66.57,3,1.71,4.03,1.14,1.03,2.69,1.55,4.65,1.55h39.23l1.55,23.72c-5.17.62-10.91,1.09-17.21,1.4-6.3.31-12.74.49-19.3.54-6.57.05-12.95.08-19.15.08-7.34,0-13.36-2.25-18.07-6.75-4.7-4.5-7.05-10.36-7.05-17.6v-59.54c0-7.23,2.35-13.1,7.05-17.6,4.7-4.5,10.72-6.75,18.07-6.75ZM4545.23,1597.8h70.86v22.33h-70.86v-22.33Z"/>
    <path class="cls-1" d="M4682.77,1554.54c5.68,0,10.67.15,14.96.47,4.29.31,8.27.78,11.94,1.39,3.67.62,7.37,1.5,11.09,2.64l-2.48,24.19c-3.93-.1-7.68-.16-11.24-.16s-7.26-.02-11.08-.08c-3.83-.05-8.17-.08-13.03-.08-3,0-5.48.39-7.44,1.17-1.97.78-3.52,2.17-4.65,4.18-1.14,2.02-1.94,4.81-2.4,8.37-.47,3.57-.7,8.09-.7,13.57,0,7.24.41,12.79,1.24,16.67.83,3.88,2.22,6.57,4.19,8.06,1.96,1.5,4.7,2.25,8.22,2.25,2.27,0,4.37-.08,6.28-.23,1.91-.16,3.65-.39,5.19-.7,1.55-.31,2.79-.57,3.72-.78l3.26,14.11c-1.24,2.07-3.28,4.39-6.12,6.98-2.84,2.58-6.43,4.78-10.78,6.59-4.34,1.81-9.36,2.71-15.04,2.71-8.17,0-14.89-1.84-20.16-5.5-5.27-3.67-9.15-9.59-11.63-17.75-2.48-8.16-3.72-18.97-3.72-32.41s1.63-24.68,4.88-32.79c3.26-8.11,8.58-13.96,15.97-17.52,7.39-3.57,17.24-5.35,29.54-5.35ZM4725.26,1602.14v61.56h-24.81l-4.34-16.59-3.1-5.74v-39.23h32.25Z"/>
    <path class="cls-1" d="M4785.42,1555.16c10.54,0,19.12.98,25.74,2.94,6.61,1.97,11.5,5.3,14.65,10,3.15,4.71,4.73,11.24,4.73,19.62,0,4.24-.65,8.19-1.94,11.86-1.29,3.67-3.52,6.69-6.67,9.07-3.16,2.38-7.52,3.88-13.1,4.5v.93c1.96.21,4.13.8,6.51,1.78,2.38.98,4.6,2.64,6.67,4.96,2.07,2.33,3.51,5.66,4.34,10l8.37,32.87h-35.2l-6.98-31.79c-.62-3-1.58-4.96-2.87-5.89-1.29-.93-3.39-1.39-6.28-1.39-7.75-.1-14.09-.16-18.99-.16s-9.07-.05-12.48-.15c-3.41-.1-6.82-.26-10.23-.46l.47-22.95h42.48c3.2,0,5.68-.31,7.44-.93,1.76-.62,2.97-1.73,3.64-3.33.67-1.6,1.01-3.85,1.01-6.75s-.34-5.27-1.01-6.82c-.67-1.55-1.89-2.64-3.64-3.25-1.76-.62-4.24-.93-7.44-.93-10.75,0-19.8.05-27.14.15-7.34.11-12.35.31-15.04.62l-2.48-22.95c4.75-.52,9.23-.88,13.41-1.09,4.19-.2,8.79-.33,13.8-.39,5.01-.05,11.09-.08,18.22-.08ZM4773.02,1556.71v106.99h-33.03v-106.99h33.03Z"/>
    <path class="cls-1" d="M4905.89,1556.71c2.69,0,5.06.77,7.14,2.32,2.06,1.55,3.46,3.67,4.18,6.36l27.76,98.31h-34.27l-16.12-69.62c-.41-1.96-.78-4-1.09-6.12-.31-2.12-.57-4.16-.78-6.12h-4.18c-.21,1.97-.47,4.01-.78,6.12-.31,2.12-.67,4.16-1.08,6.12l-16.13,69.62h-34.27l27.76-98.31c.72-2.69,2.12-4.81,4.19-6.36,2.06-1.55,4.44-2.32,7.13-2.32h30.54ZM4919.07,1617.02v23.57h-56.9v-23.57h56.9Z"/>
    <path class="cls-1" d="M4985.9,1556.71v74.73c0,1.66.59,3,1.78,4.03,1.19,1.04,2.77,1.55,4.73,1.55h35.97l1.55,25.12c-7.96,1.04-16.46,1.65-25.51,1.86-9.05.21-17.96.31-26.75.31-7.75,0-13.93-2.25-18.53-6.75-4.6-4.5-6.9-10.36-6.9-17.6v-83.26h33.65Z"/>
  </g>
  <rect class="cls-1" x="3480.64" y="1432.79" width="248.24" height="66.13"/>
  <rect class="cls-1" x="4771.65" y="448.09" width="249.23" height="66.13"/>
</svg>