<?xml version="1.0" encoding="UTF-8"?>
<svg id="Capa_1" data-name="Capa 1" xmlns="http://www.w3.org/2000/svg" viewBox="0 0 1727.28 1725.17">
  <defs>
    <style>
      .cls-1 {
        fill: #45878d;
      }

      .cls-2 {
        fill: #33403e;
      }

      .cls-3 {
        fill: #353f3d;
      }
    </style>
  </defs>
  <g>
    <g>
      <g>
        <path class="cls-1" d="M862.71,139.33c-75.23,0-136.24,60.98-136.24,136.24s61.01,136.21,136.24,136.21,136.24-60.98,136.24-136.21-61.01-136.24-136.24-136.24ZM862.71,365.78c-49.82,0-90.22-40.4-90.22-90.22s40.4-90.22,90.22-90.22,90.22,40.4,90.22,90.22-40.4,90.22-90.22,90.22Z"/>
        <path class="cls-1" d="M1337.25,321.06h-259.69c-1.71,0-3.11-1.41-3.11-3.11V66.53c0-27.58-22.38-49.96-49.96-49.96h-321.69c-27.58,0-49.96,22.38-49.96,49.96v251.42c0,1.71-1.41,3.11-3.11,3.11h-259.69c-27.58,0-49.96,22.38-49.96,49.96v316.18c0,27.58,22.38,49.96,49.96,49.96h259.69c1.71,0,3.11,1.41,3.11,3.11v265.2c0,27.58,22.38,49.96,49.96,49.96h280.99c12.92,0,23.42-10.5,23.42-23.42,0-6.45-2.62-12.32-6.86-16.56-4.24-4.24-10.11-6.86-16.56-6.86h-280.99c-1.71,0-3.11-1.41-3.11-3.11v-265.2c0-27.58-22.38-49.96-49.96-49.96h-33.81c-1.63-17.28-4.11-60.29,5.92-104.6,16.29-71.67,57.12-113.67,121.41-124.77,1.18-.19,2.34.08,3.06.77,4.13,3.89,8.32,8.02,12.76,12.37,9.07,8.96,18.43,18.21,28.33,26.23l1.52,1.24c15.79,12.84,34.94,28.36,57.18,34.47v119.01h.03c-.3,42.55,12.84,84.43,45.14,113.64,31.28,28.3,77.93,45.83,124.69,47.95v166.58c-1.98,45.69,16.26,132.49,99.37,137.61.36.03,1.93.14,4.46.14,13.42,0,53.46-2.81,76.58-34.36,4.9.94,10,1.43,15.18,1.43,45.03,0,81.51-36.51,81.51-81.51s-36.48-81.51-81.51-81.51-81.51,36.48-81.51,81.51c0,23.42,9.89,44.53,25.71,59.36-14.38,12.12-37.26,10.99-37.53,10.97-25.02-1.54-41.72-15.76-51.03-43.43-8.1-24-7.16-48.5-7.16-48.69l.03-171.21c47.73-11.02,77.49-53.02,88.54-125.16,10.25-66.77.25-129.46-28.16-176.5-21.38-35.41-54.31-63.02-95.23-79.88-1.9-.8-14.16-5.62-26.54-9.64-16.51-5.37-39.1-12.73-50.04,5.29-14.03,23.12-38.8,45.85-67.93,62.36-19.21,10.88-34.25,1.46-63.99-22.68l-1.52-1.21c-8.24-6.7-16.84-15.18-25.13-23.37-4.44-4.38-9.01-8.9-13.53-13.14-10.77-10.11-26.04-14.63-40.76-12.1-82.78,14.33-137.12,69.55-157.18,159.71-10.42,46.79-8.79,91.07-6.94,113.12h-181.59c-1.71,0-3.11-1.41-3.11-3.11v-316.18c0-1.71,1.41-3.11,3.11-3.11h259.69c27.58,0,49.96-22.38,49.96-49.96V66.53c0-1.71,1.41-3.11,3.11-3.11h321.69c1.71,0,3.11,1.41,3.11,3.11v251.42c0,27.58,22.38,49.96,49.96,49.96h259.69c1.71,0,3.11,1.41,3.11,3.11v313.42c0,1.71-1.41,3.11-3.11,3.11h-129.35c-12.92,0-23.42,10.5-23.42,23.42,0,6.45,2.62,12.32,6.86,16.56,4.24,4.24,10.09,6.86,16.56,6.86h129.35c27.58,0,49.96-22.38,49.96-49.96v-313.42c0-27.58-22.38-49.96-49.96-49.96ZM1211.53,968.98c20.72,0,37.53,16.81,37.53,37.53s-16.81,37.53-37.53,37.53-37.53-16.81-37.53-37.53,16.81-37.53,37.53-37.53ZM890.67,653.05v-106.69c0-3.2-.08-7.19,0-10.4,0-.25,1.46-1.08,1.66-1.23,1.05-.76,2.12-1.5,3.19-2.21,5.89-3.91,12.14-7.26,18.11-11.04,2.82-1.79,5.62-3.61,8.38-5.49,1.38-.94,2.75-1.89,4.12-2.86,1.25-.89,2.52-2.15,3.88-2.83,10.55-7.87,20.52-16.52,29.69-25.96,6.74-6.94,13.06-14.3,18.75-22.12,9.4,2.76,23.01,7.66,29.93,10.5,32.1,13.25,57.79,34.67,74.26,61.95,23.09,38.19,31.03,90.41,22.35,146.98-5.62,36.51-18.24,85.56-63.08,90.27-46.9,4.93-103.75-11.38-133.62-50.48-9.64-12.62-14.27-25.52-16.31-39.18-.74-4.88-1.16-9.87-1.32-14.99-.17-4.63-.14-9.34,0-14.22Z"/>
      </g>
      <g>
        <path class="cls-2" d="M862.71,139.32c-75.22,0-136.23,60.99-136.23,136.25s61.01,136.21,136.23,136.21,136.23-60.99,136.23-136.21-60.99-136.25-136.23-136.25ZM862.71,365.79c-49.81,0-90.22-40.4-90.22-90.22s40.4-90.22,90.22-90.22,90.22,40.38,90.22,90.22-40.38,90.22-90.22,90.22Z"/>
        <path class="cls-2" d="M1211.53,925c-44.99,0-81.5,36.49-81.5,81.52,0,23.42,9.88,44.54,25.7,59.36-14.39,12.12-37.26,11-37.53,10.96-25.01-1.54-41.72-15.76-51.03-43.42-8.11-24.01-7.16-48.51-7.16-48.69l.02-171.22c47.73-11.02,77.48-53,88.54-125.15,10.25-66.78.26-129.46-28.16-176.5-21.39-35.41-54.32-63.02-95.23-79.88-1.91-.81-14.17-5.63-26.53-9.64-16.51-5.37-39.11-12.73-50.05,5.29-14.03,23.11-38.79,45.86-67.92,62.35-19.21,10.88-34.26,1.46-64-22.67l-1.52-1.22c-8.23-6.69-16.83-15.17-25.11-23.36-4.45-4.39-9.01-8.9-13.54-13.15-10.77-10.12-26.04-14.62-40.76-12.1-82.78,14.35-137.12,69.55-157.17,159.73-10.43,46.78-8.8,91.06-6.95,113.1h44.28c-1.63-17.28-4.11-60.28,5.92-104.6,16.28-71.66,57.13-113.66,121.41-124.78,1.18-.18,2.34.1,3.05.79,4.15,3.88,8.33,8.01,12.77,12.36,9.05,8.95,18.42,18.22,28.32,26.23l1.52,1.24c15.78,12.85,34.95,28.36,57.17,34.48v119.01h.04c-.31,42.55,12.83,84.43,45.13,113.64,31.27,28.3,77.94,45.84,124.7,47.96v166.58c-1.99,45.68,16.26,132.49,99.37,137.61.35.02,1.93.14,4.47.14,13.42,0,53.45-2.81,76.58-34.36,4.9.94,10,1.44,15.17,1.44,45.03,0,81.52-36.51,81.52-81.52s-36.49-81.52-81.52-81.52ZM1041.92,771.94c-46.9,4.92-103.74-11.4-133.61-50.48-9.64-12.63-14.27-25.53-16.32-39.18-.75-4.88-1.16-9.88-1.32-15-.16-4.62-.14-9.35,0-14.23v-106.69c0-3.19-.08-7.18,0-10.39,0-.24,1.46-1.08,1.65-1.22,1.06-.77,2.13-1.5,3.21-2.22,5.88-3.9,12.12-7.24,18.11-11.02,2.81-1.79,5.61-3.62,8.38-5.49,1.38-.94,2.76-1.91,4.11-2.87,1.24-.89,2.52-2.14,3.88-2.83,10.55-7.85,20.53-16.51,29.7-25.96,6.73-6.93,13.05-14.29,18.76-22.12,9.39,2.76,23.01,7.68,29.91,10.51,32.12,13.25,57.78,34.66,74.27,61.93,23.09,38.2,31.02,90.41,22.34,147-5.61,36.51-18.24,85.55-63.08,90.28ZM1211.53,1044.04c-20.72,0-37.53-16.81-37.53-37.53s16.81-37.53,37.53-37.53,37.53,16.81,37.53,37.53-16.81,37.53-37.53,37.53Z"/>
      </g>
    </g>
    <g>
      <g>
        <path class="cls-2" d="M341.78,1206.29h105.89l141.54,350.08h-104.81l-16.21-45.38h-146.95l-16.21,45.38h-104.81l141.54-350.08ZM440.64,1432.11l-41.6-118.31c-3.24-8.64-3.78-11.88-4.32-14.05,0,0-1.08,4.86-4.32,14.05l-41.6,118.31h91.84Z"/>
        <path class="cls-2" d="M623.24,1206.29h87.52l68.61,98.32c11.35,16.75,29.71,45.38,29.71,45.38,0,0,18.37-28.63,29.71-45.38l68.61-98.32h87.52v350.08h-102.65v-177.2s-17.83,28.63-27.55,42.14l-55.64,77.8-56.19-77.8c-9.72-13.51-27.01-41.06-27.01-41.06v176.12h-102.65v-350.08Z"/>
        <path class="cls-1" d="M1054.34,1206.29h102.65v130.74h105.35v-130.74h102.65v350.08h-102.65v-132.36h-105.35v132.36h-102.65v-350.08Z"/>
        <path class="cls-1" d="M1424.4,1206.29h102.65v350.08h-102.65v-350.08Z"/>
      </g>
      <rect class="cls-1" x="892.56" y="1569.77" width="102.26" height="27.24"/>
      <rect class="cls-2" x="1424.38" y="1164.13" width="102.67" height="27.24"/>
    </g>
  </g>
  <g>
    <path class="cls-3" d="M64.87,1653.38c-1.07-.8-2.3-1.2-3.69-1.2h-15.79c-1.39,0-2.62.4-3.69,1.2-1.07.8-1.79,1.9-2.16,3.29l-14.35,50.81h17.71l2.77-11.94h15.23l2.77,11.94h17.71l-14.35-50.81c-.38-1.39-1.1-2.48-2.16-3.29ZM48.5,1683.35l2.75-11.86c.21-1.01.4-2.07.56-3.17.16-1.09.29-2.15.4-3.17h2.16c.11,1.02.24,2.07.4,3.17.16,1.1.35,2.15.56,3.17l2.75,11.86h-9.58Z"/>
    <path class="cls-3" d="M105.9,1693.69c-1.02,0-1.83-.27-2.44-.8-.62-.53-.92-1.23-.92-2.08v-38.63h-17.39v43.04c0,3.74,1.19,6.77,3.57,9.1,2.38,2.32,5.57,3.49,9.58,3.49,4.54,0,9.15-.05,13.82-.16,4.68-.11,9.07-.43,13.18-.96l-.8-12.98h-18.59Z"/>
    <rect class="cls-3" x="130.51" y="1652.18" width="17.23" height="55.3"/>
    <path class="cls-3" d="M191.42,1653.38c-1.07-.8-2.3-1.2-3.69-1.2h-15.79c-1.39,0-2.62.4-3.69,1.2-1.07.8-1.79,1.9-2.16,3.29l-14.35,50.81h17.71l2.77-11.94h15.23l2.77,11.94h17.71l-14.35-50.81c-.37-1.39-1.1-2.48-2.16-3.29ZM175.05,1683.35l2.75-11.86c.21-1.01.4-2.07.56-3.17.16-1.09.29-2.15.4-3.17h2.16c.11,1.02.24,2.07.4,3.17.16,1.1.35,2.15.56,3.17l2.75,11.86h-9.58Z"/>
    <path class="cls-3" d="M246.88,1674.78c0,1.66.07,3.31.2,4.97.13,1.66.31,3.34.52,5.05h-.56c-.64-1.76-1.32-3.45-2.04-5.05-.72-1.6-1.46-3.07-2.2-4.41l-11.54-18.11c-.96-1.66-1.87-2.91-2.72-3.77-.85-.85-2.19-1.28-4.01-1.28h-6.65c-4.01,0-6.01,2-6.01,6.01v49.29h16.03v-23.4c0-1.6-.07-3.27-.2-5.01-.13-1.74-.34-3.43-.6-5.09h.56c.48,1.66,1.03,3.3,1.64,4.93.61,1.63,1.3,3.14,2.04,4.53l12.02,18.99c.91,1.66,1.8,2.91,2.69,3.77.88.86,2.23,1.28,4.05,1.28h6.65c4.01,0,6.01-2,6.01-6.01v-49.29h-15.95l.08,22.6Z"/>
    <polygon class="cls-3" points="312.76 1664.36 312.76 1652.18 270.44 1652.18 270.44 1664.36 293.54 1664.36 269.64 1695.3 269.64 1707.48 313.56 1707.48 313.56 1695.3 288.86 1695.3 312.76 1664.36"/>
    <path class="cls-3" d="M355.24,1653.38c-1.07-.8-2.3-1.2-3.69-1.2h-15.79c-1.39,0-2.62.4-3.69,1.2-1.07.8-1.79,1.9-2.16,3.29l-14.35,50.81h17.71l2.77-11.94h15.23l2.77,11.94h17.71l-14.35-50.81c-.37-1.39-1.1-2.48-2.16-3.29ZM338.86,1683.35l2.75-11.86c.21-1.01.4-2.07.56-3.17.16-1.09.29-2.15.4-3.17h2.16c.11,1.02.24,2.07.4,3.17.16,1.1.35,2.15.56,3.17l2.75,11.86h-9.58Z"/>
    <path class="cls-3" d="M452.05,1652.18h-15.31c-3.79,0-6.01,1.79-6.65,5.37l-3.77,21.96c-.21,1.34-.39,2.7-.52,4.09-.13,1.39-.28,2.78-.44,4.17h-.72c-.11-1.39-.23-2.78-.36-4.17-.13-1.39-.31-2.75-.52-4.09l-4.01-21.96c-.64-3.58-2.83-5.37-6.57-5.37h-14.99c-3.9,0-5.93,2-6.09,6.01l-1.92,49.29h15.63l1.36-42.32h1.2l5.53,28.21c.64,3.53,2.86,5.29,6.65,5.29h8.98c3.85,0,6.04-1.76,6.57-5.29l5.45-28.21h1.2l1.68,42.32h15.63l-1.92-49.29c-.16-4.01-2.19-6.01-6.09-6.01Z"/>
    <path class="cls-3" d="M485.79,1665.96c.59-.53,1.39-.8,2.41-.8h20.28l.8-12.26c-2.67-.37-5.64-.63-8.9-.76-3.26-.13-6.59-.21-9.98-.24-3.39-.03-6.69-.04-9.9-.04-3.8,0-6.91,1.16-9.34,3.49-2.43,2.32-3.65,5.36-3.65,9.1v30.78c0,3.74,1.22,6.77,3.65,9.1,2.43,2.32,5.54,3.49,9.34,3.49,3.21,0,6.5-.01,9.9-.04,3.39-.03,6.72-.12,9.98-.28,3.26-.16,6.22-.4,8.9-.72l-.8-12.26h-20.28c-1.02,0-1.82-.27-2.41-.8-.59-.53-.88-1.23-.88-2.08v-6.65h20.68v-11.54h-20.68v-5.37c0-.85.29-1.55.88-2.08Z"/>
    <polygon class="cls-3" points="506.47 1641.52 500.14 1630.86 481.46 1642.88 486.03 1649.77 506.47 1641.52"/>
    <path class="cls-3" d="M559.85,1657.19c-2.03-2.11-4.69-3.61-7.97-4.49-3.29-.88-7.31-1.32-12.06-1.32s-8.94.08-12.7.24c-3.77.16-7.41.35-10.94.56v55.3c3.47.21,7.13.4,10.98.56,3.85.16,8.07.24,12.66.24s8.78-.44,12.06-1.32c3.29-.88,5.94-2.38,7.97-4.49,2.03-2.11,3.5-5.01,4.41-8.7.91-3.69,1.36-8.33,1.36-13.95s-.46-10.26-1.36-13.94c-.91-3.69-2.38-6.59-4.41-8.7ZM546.62,1689.69c-.43,2.3-1.18,3.88-2.24,4.73-1.07.86-2.59,1.28-4.57,1.28-2.21,0-4.29-.02-6.25-.05v-31.69h6.25c1.98,0,3.5.43,4.57,1.28,1.07.86,1.82,2.43,2.24,4.73.43,2.3.64,5.58.64,9.86s-.21,7.56-.64,9.86Z"/>
    <rect class="cls-3" x="572.91" y="1652.18" width="17.23" height="55.3"/>
    <path class="cls-3" d="M632.58,1693.65c-2.7.08-6.05.12-10.06.12-1.82,0-3.22-.39-4.21-1.16-.99-.77-1.67-2.16-2.04-4.17-.37-2-.56-4.88-.56-8.62s.19-6.61.56-8.62c.37-2,1.05-3.39,2.04-4.17.99-.77,2.39-1.16,4.21-1.16,2.56,0,4.76.01,6.57.04,1.82.03,3.53.04,5.13.04s3.34.03,5.21.08l1.28-12.66c-1.82-.53-3.57-.95-5.25-1.24-1.68-.29-3.54-.52-5.57-.68-2.03-.16-4.49-.24-7.37-.24-6.09,0-10.98.92-14.67,2.77-3.69,1.84-6.35,4.85-7.98,9.02-1.63,4.17-2.44,9.78-2.44,16.83s.81,12.66,2.44,16.83c1.63,4.17,4.29,7.17,7.98,9.02,3.69,1.84,8.57,2.76,14.67,2.76,4.33,0,7.95-.2,10.86-.6,2.91-.4,5.76-1.08,8.53-2.04l-1.28-12.66c-2.67.27-5.36.44-8.05.52Z"/>
    <path class="cls-3" d="M682.79,1653.38c-1.07-.8-2.3-1.2-3.69-1.2h-15.79c-1.39,0-2.62.4-3.69,1.2-1.07.8-1.79,1.9-2.16,3.29l-14.35,50.81h17.71l2.77-11.94h15.23l2.77,11.94h17.71l-14.35-50.81c-.37-1.39-1.1-2.48-2.16-3.29ZM666.42,1683.35l2.75-11.86c.21-1.01.4-2.07.56-3.17.16-1.09.29-2.15.4-3.17h2.16c.11,1.02.24,2.07.4,3.17.16,1.1.35,2.15.56,3.17l2.75,11.86h-9.58Z"/>
    <polygon class="cls-3" points="750.11 1672.05 736.17 1672.05 736.17 1652.18 718.78 1652.18 718.78 1707.48 736.17 1707.48 736.17 1684.24 750.11 1684.24 750.11 1707.48 767.5 1707.48 767.5 1652.18 750.11 1652.18 750.11 1672.05"/>
    <path class="cls-3" d="M820.56,1656.91c-2.03-2.14-4.69-3.65-7.97-4.53-3.29-.88-7.31-1.32-12.06-1.32s-8.7.44-11.98,1.32c-3.29.88-5.95,2.39-7.98,4.53-2.03,2.14-3.5,5.06-4.41,8.78-.91,3.72-1.36,8.43-1.36,14.15s.45,10.37,1.36,14.11c.91,3.74,2.38,6.68,4.41,8.82s4.69,3.65,7.98,4.53c3.29.88,7.28,1.32,11.98,1.32s8.78-.44,12.06-1.32c3.29-.88,5.94-2.39,7.97-4.53,2.03-2.14,3.5-5.08,4.41-8.82.91-3.74,1.36-8.44,1.36-14.11s-.46-10.43-1.36-14.15c-.91-3.71-2.38-6.64-4.41-8.78ZM807.34,1689.69c-.43,2.3-1.18,3.88-2.24,4.73-1.07.86-2.59,1.28-4.57,1.28s-3.5-.43-4.57-1.28c-1.07-.85-1.82-2.43-2.24-4.73-.43-2.3-.64-5.58-.64-9.86s.21-7.56.64-9.86c.43-2.3,1.18-3.87,2.24-4.73,1.07-.85,2.59-1.28,4.57-1.28s3.5.43,4.57,1.28c1.07.86,1.82,2.43,2.24,4.73.43,2.3.64,5.58.64,9.86s-.21,7.56-.64,9.86Z"/>
    <path class="cls-3" d="M863.84,1674.86l-10.02-4.17c-1.87-.75-3.14-1.38-3.81-1.88-.67-.51-1-1.13-1-1.88,0-.43.08-.77.24-1.04.16-.27.43-.48.8-.64.37-.16.89-.27,1.56-.32.67-.05,1.51-.08,2.52-.08,3.47,0,6.99.01,10.54.04,3.55.03,6.53.07,8.94.12l1.04-11.14c-3.31-1.17-6.77-1.94-10.38-2.28-3.61-.35-6.85-.52-9.74-.52-4.17,0-7.71.27-10.62.8-2.91.53-5.25,1.42-7.01,2.65-1.76,1.23-3.06,2.88-3.89,4.97-.83,2.08-1.24,4.7-1.24,7.85,0,4.06.93,7.35,2.8,9.86,1.87,2.51,5.05,4.78,9.54,6.81l10.98,4.81c1.02.37,1.79.72,2.33,1.04.53.32.91.66,1.12,1,.21.35.32.79.32,1.32,0,.48-.15.87-.44,1.16-.29.29-.83.5-1.6.6-.77.11-1.91.16-3.41.16-.96,0-2.42-.01-4.37-.04-1.95-.03-4.26-.08-6.93-.16-2.67-.08-5.61-.15-8.82-.2l-1.04,12.18c4.81,1.23,9.11,1.99,12.9,2.28,3.79.29,6.62.44,8.49.44,4.33,0,7.94-.31,10.82-.92,2.88-.61,5.2-1.58,6.93-2.88,1.74-1.31,2.98-3.05,3.73-5.21.75-2.16,1.12-4.8,1.12-7.9,0-4.06-.92-7.39-2.77-9.98-1.84-2.59-5.06-4.88-9.66-6.85Z"/>
    <path class="cls-3" d="M920.1,1653.02c-3.31-1.09-7.91-1.64-13.78-1.64-3.69,0-6.81.01-9.38.04-2.57.03-4.93.09-7.09.2-2.16.11-4.48.3-6.93.56v55.3h17.39v-19.08c.14.02.27.03.4.05,2.67.29,5.34.44,8.02.44,5.07,0,9.11-.55,12.1-1.64,2.99-1.1,5.14-2.99,6.45-5.69,1.31-2.7,1.96-6.48,1.96-11.34s-.69-8.74-2.08-11.46c-1.39-2.72-3.74-4.64-7.05-5.73ZM911.37,1674.18c-.32.94-.91,1.58-1.76,1.92-.86.35-2.08.52-3.69.52h-5.61v-12.97c1.77,0,3.63-.01,5.61-.01,1.6,0,2.83.17,3.69.52.85.35,1.44,1,1.76,1.96.32.96.48,2.32.48,4.09s-.16,3.03-.48,3.97Z"/>
    <rect class="cls-3" x="935.25" y="1652.18" width="17.23" height="55.3"/>
    <polygon class="cls-3" points="1006.34 1665.16 1006.34 1652.18 990.87 1652.18 973.48 1652.18 958.01 1652.18 958.01 1665.16 973.48 1665.16 973.48 1707.48 990.87 1707.48 990.87 1665.16 1006.34 1665.16"/>
    <path class="cls-3" d="M1041.92,1653.38c-1.07-.8-2.3-1.2-3.69-1.2h-15.79c-1.39,0-2.62.4-3.69,1.2-1.07.8-1.79,1.9-2.16,3.29l-14.35,50.81h17.71l2.77-11.94h15.23l2.77,11.94h17.71l-14.35-50.81c-.37-1.39-1.1-2.48-2.16-3.29ZM1025.55,1683.35l2.75-11.86c.21-1.01.4-2.07.56-3.17.16-1.09.29-2.15.4-3.17h2.16c.11,1.02.24,2.07.4,3.17.16,1.1.35,2.15.56,3.17l2.75,11.86h-9.58Z"/>
    <path class="cls-3" d="M1082.96,1693.69c-1.01,0-1.83-.27-2.44-.8-.61-.53-.92-1.23-.92-2.08v-38.63h-17.39v43.04c0,3.74,1.19,6.77,3.57,9.1,2.38,2.32,5.57,3.49,9.58,3.49,4.54,0,9.15-.05,13.82-.16,4.68-.11,9.07-.43,13.18-.96l-.8-12.98h-18.59Z"/>
    <path class="cls-3" d="M1142.26,1653.38c-1.07-.8-2.3-1.2-3.69-1.2h-15.79c-1.39,0-2.62.4-3.69,1.2-1.07.8-1.79,1.9-2.16,3.29l-14.35,50.81h17.71l2.77-11.94h15.23l2.77,11.94h17.71l-14.35-50.81c-.37-1.39-1.1-2.48-2.16-3.29ZM1125.89,1683.35l2.75-11.86c.21-1.01.4-2.07.56-3.17.16-1.09.29-2.15.4-3.17h2.16c.11,1.02.24,2.07.4,3.17.16,1.1.35,2.15.56,3.17l2.75,11.86h-9.58Z"/>
    <path class="cls-3" d="M1205.1,1685.32c-1.07-1.2-2.22-2.06-3.45-2.56-1.23-.51-2.35-.81-3.37-.92v-.48c2.89-.32,5.14-1.1,6.77-2.32,1.63-1.23,2.78-2.79,3.45-4.69.67-1.9,1-3.94,1-6.13,0-4.33-.81-7.71-2.44-10.14-1.63-2.43-4.16-4.15-7.57-5.17-3.42-1.01-7.85-1.52-13.3-1.52-3.69,0-6.83.01-9.42.04-2.59.03-4.97.09-7.13.2-2.16.11-4.48.3-6.93.56v55.3h17.07v-20.26c1.61.01,3.4.03,5.37.06,1.5,0,2.58.24,3.25.72.67.48,1.16,1.5,1.48,3.05l3.61,16.43h18.19l-4.33-16.99c-.43-2.24-1.18-3.97-2.24-5.17ZM1191.51,1672.82c-.35.83-.97,1.4-1.88,1.72-.91.32-2.19.48-3.85.48h-6.01v-11.37c1.87,0,3.88-.01,6.01-.01,1.65,0,2.94.16,3.85.48.91.32,1.53.88,1.88,1.68.35.8.52,1.98.52,3.53s-.17,2.66-.52,3.49Z"/>
    <rect class="cls-3" x="1217.44" y="1652.18" width="17.23" height="55.3"/>
    <path class="cls-3" d="M1278.35,1653.38c-1.07-.8-2.3-1.2-3.69-1.2h-15.79c-1.39,0-2.62.4-3.69,1.2-1.07.8-1.79,1.9-2.16,3.29l-14.35,50.81h17.71l2.77-11.94h15.23l2.77,11.94h17.71l-14.35-50.81c-.37-1.39-1.1-2.48-2.16-3.29ZM1261.98,1683.35l2.75-11.86c.21-1.01.4-2.07.56-3.17.16-1.09.29-2.15.4-3.17h2.16c.11,1.02.24,2.07.4,3.17.16,1.1.35,2.15.56,3.17l2.75,11.86h-9.58Z"/>
    <rect class="cls-3" x="1314.34" y="1652.18" width="17.23" height="55.3"/>
    <path class="cls-3" d="M1375.49,1674.78c0,1.66.07,3.31.2,4.97.13,1.66.31,3.34.52,5.05h-.56c-.64-1.76-1.32-3.45-2.04-5.05-.72-1.6-1.46-3.07-2.2-4.41l-11.54-18.11c-.96-1.66-1.87-2.91-2.72-3.77-.86-.85-2.19-1.28-4.01-1.28h-6.65c-4.01,0-6.01,2-6.01,6.01v49.29h16.03v-23.4c0-1.6-.07-3.27-.2-5.01-.13-1.74-.33-3.43-.6-5.09h.56c.48,1.66,1.03,3.3,1.64,4.93.61,1.63,1.3,3.14,2.04,4.53l12.02,18.99c.91,1.66,1.8,2.91,2.69,3.77.88.86,2.23,1.28,4.05,1.28h6.65c4.01,0,6.01-2,6.01-6.01v-49.29h-15.95l.08,22.6Z"/>
    <polygon class="cls-3" points="1412.19 1652.18 1396.73 1652.18 1396.73 1665.16 1412.19 1665.16 1412.19 1707.48 1429.59 1707.48 1429.59 1665.16 1445.05 1665.16 1445.05 1652.18 1429.59 1652.18 1412.19 1652.18"/>
    <path class="cls-3" d="M1468.37,1665.96c.59-.53,1.39-.8,2.41-.8h20.28l.8-12.26c-2.67-.37-5.64-.63-8.9-.76-3.26-.13-6.59-.21-9.98-.24-3.39-.03-6.69-.04-9.9-.04-3.8,0-6.91,1.16-9.34,3.49-2.43,2.32-3.65,5.36-3.65,9.1v30.78c0,3.74,1.22,6.77,3.65,9.1,2.43,2.32,5.54,3.49,9.34,3.49,3.21,0,6.5-.01,9.9-.04,3.39-.03,6.72-.12,9.98-.28,3.26-.16,6.22-.4,8.9-.72l-.8-12.26h-20.28c-1.02,0-1.82-.27-2.41-.8-.59-.53-.88-1.23-.88-2.08v-6.65h20.68v-11.54h-20.68v-5.37c0-.85.29-1.55.88-2.08Z"/>
    <path class="cls-3" d="M1527.93,1693.28s-.05.01-.08.02c-.8.16-1.7.28-2.69.36-.99.08-2.07.12-3.25.12-1.82,0-3.23-.39-4.25-1.16-1.02-.77-1.74-2.16-2.16-4.17-.43-2-.64-4.88-.64-8.62,0-2.83.12-5.17.36-7.01.24-1.84.65-3.29,1.24-4.33.59-1.04,1.39-1.76,2.41-2.16,1.01-.4,2.3-.6,3.85-.6,2.51,0,4.76.01,6.73.04,1.98.03,3.89.04,5.73.04s3.78.03,5.81.08l1.28-12.5c-1.92-.59-3.84-1.04-5.73-1.36-1.9-.32-3.95-.56-6.17-.72-2.22-.16-4.8-.24-7.73-.24-6.36,0-11.45.92-15.27,2.77-3.82,1.84-6.57,4.86-8.25,9.06-1.68,4.19-2.52,9.85-2.52,16.95s.64,12.53,1.92,16.75c1.28,4.22,3.29,7.28,6.01,9.18s6.2,2.84,10.42,2.84c2.94,0,5.53-.47,7.77-1.4,2.24-.93,4.1-2.07,5.57-3.41.79-.71,1.44-1.39,1.99-2.02l1.49,5.71h12.82v-31.82h-16.67v17.62Z"/>
    <path class="cls-3" d="M1594.61,1685.32c-1.07-1.2-2.22-2.06-3.44-2.56-1.23-.51-2.35-.81-3.37-.92v-.48c2.89-.32,5.14-1.1,6.77-2.32,1.63-1.23,2.78-2.79,3.45-4.69.67-1.9,1-3.94,1-6.13,0-4.33-.81-7.71-2.44-10.14-1.63-2.43-4.16-4.15-7.57-5.17-3.42-1.01-7.85-1.52-13.3-1.52-3.69,0-6.83.01-9.42.04-2.59.03-4.97.09-7.13.2-2.16.11-4.48.3-6.93.56v55.3h17.07v-20.26c1.61.01,3.4.03,5.37.06,1.5,0,2.58.24,3.25.72.67.48,1.16,1.5,1.48,3.05l3.61,16.43h18.19l-4.33-16.99c-.43-2.24-1.18-3.97-2.24-5.17ZM1581.02,1672.82c-.35.83-.97,1.4-1.88,1.72-.91.32-2.19.48-3.85.48h-6.01v-11.37c1.87,0,3.88-.01,6.01-.01,1.65,0,2.94.16,3.85.48.91.32,1.54.88,1.88,1.68.35.8.52,1.98.52,3.53s-.17,2.66-.52,3.49Z"/>
    <path class="cls-3" d="M1641.66,1653.38c-1.07-.8-2.3-1.2-3.69-1.2h-15.79c-1.39,0-2.62.4-3.69,1.2-1.07.8-1.79,1.9-2.16,3.29l-14.35,50.81h17.71l2.77-11.94h15.23l2.77,11.94h17.71l-14.35-50.81c-.37-1.39-1.1-2.48-2.16-3.29ZM1625.28,1683.35l2.75-11.86c.21-1.01.4-2.07.56-3.17.16-1.09.29-2.15.4-3.17h2.16c.11,1.02.24,2.07.4,3.17.16,1.1.35,2.15.56,3.17l2.75,11.86h-9.58Z"/>
    <path class="cls-3" d="M1701.28,1693.69h-18.59c-1.01,0-1.83-.27-2.44-.8-.61-.53-.92-1.23-.92-2.08v-38.63h-17.39v43.04c0,3.74,1.19,6.77,3.57,9.1,2.38,2.32,5.57,3.49,9.58,3.49,4.54,0,9.15-.05,13.82-.16,4.68-.11,9.07-.43,13.18-.96l-.8-12.98Z"/>
  </g>
</svg>