<?xml version="1.0" encoding="UTF-8"?>
<svg id="Capa_1" data-name="Capa 1" xmlns="http://www.w3.org/2000/svg" viewBox="0 0 1628.22 1725.17">
  <defs>
    <style>
      .cls-1 {
        fill: #45878d;
      }

      .cls-2 {
        fill: #33403e;
      }
    </style>
  </defs>
  <path class="cls-1" d="M1539.06,483.42h-397.51c-2.62,0-4.77-2.15-4.77-4.77V93.8c0-42.22-34.25-76.47-76.47-76.47h-492.41c-42.22,0-76.47,34.25-76.47,76.47v384.85c0,2.62-2.15,4.77-4.77,4.77H89.16c-42.22,0-76.47,34.25-76.47,76.47v483.98c0,42.22,34.25,76.47,76.47,76.47h397.51c2.62,0,4.77,2.15,4.77,4.77v405.94c0,42.22,34.25,76.47,76.47,76.47h430.11c19.78,0,35.85-16.07,35.85-35.85,0-9.87-4.01-18.85-10.5-25.35-6.5-6.5-15.48-10.5-25.35-10.5h-430.11c-2.62,0-4.77-2.15-4.77-4.77v-405.94c0-42.22-34.25-76.47-76.47-76.47h-51.76c-2.49-26.45-6.28-92.29,9.07-160.12,24.93-109.71,87.44-173.99,185.85-190.99,1.81-.3,3.59.13,4.68,1.18,6.33,5.95,12.74,12.27,19.53,18.94,13.88,13.71,28.22,27.88,43.36,40.16l2.32,1.9c24.17,19.66,53.48,43.4,87.52,52.77v182.18h.04c-.46,65.13,19.66,129.24,69.09,173.95,47.87,43.32,119.29,70.15,190.87,73.39v254.98c-3.04,69.93,24.89,202.8,152.1,210.65.55.04,2.95.21,6.83.21,20.54,0,81.83-4.3,117.22-52.6,7.51,1.43,15.31,2.19,23.24,2.19,68.92,0,124.77-55.89,124.77-124.77s-55.85-124.77-124.77-124.77-124.77,55.85-124.77,124.77c0,35.85,15.14,68.16,39.35,90.86-22.02,18.56-57.03,16.83-57.45,16.79-38.3-2.36-63.86-24.13-78.12-66.48-12.4-36.74-10.97-74.24-10.97-74.53l.04-262.07c73.06-16.87,118.61-81.16,135.53-191.58,15.69-102.2.38-198.16-43.11-270.16-32.73-54.2-83.14-96.47-145.78-122.28-2.91-1.22-21.68-8.6-40.62-14.76-25.27-8.23-59.85-19.49-76.6,8.1-21.47,35.39-59.39,70.19-103.97,95.45-29.4,16.66-52.43,2.24-97.94-34.71l-2.32-1.86c-12.61-10.25-25.77-23.24-38.47-35.77-6.79-6.71-13.79-13.62-20.71-20.12-16.49-15.48-39.86-22.4-62.38-18.52-126.71,21.93-209.89,106.46-240.6,244.48-15.94,71.62-13.46,139.41-10.63,173.15H89.16c-2.62,0-4.77-2.15-4.77-4.77v-483.98c0-2.62,2.15-4.77,4.77-4.77h397.51c42.22,0,76.47-34.25,76.47-76.47V93.8c0-2.62,2.15-4.77,4.77-4.77h492.41c2.62,0,4.77,2.15,4.77,4.77v384.85c0,42.22,34.25,76.47,76.47,76.47h397.51c2.62,0,4.77,2.15,4.77,4.77v479.76c0,2.62-2.15,4.77-4.77,4.77h-197.99c-19.78,0-35.85,16.07-35.85,35.85,0,9.87,4.01,18.85,10.5,25.35,6.5,6.5,15.44,10.5,25.35,10.5h197.99c42.22,0,76.47-34.25,76.47-76.47v-479.76c0-42.22-34.25-76.47-76.47-76.47ZM1346.64,1475.21c31.72,0,57.45,25.73,57.45,57.45s-25.73,57.45-57.45,57.45-57.45-25.73-57.45-57.45,25.73-57.45,57.45-57.45ZM855.49,991.61v-163.31c0-4.91-.12-11.01,0-15.91,0-.38,2.24-1.65,2.55-1.88,1.6-1.17,3.24-2.29,4.89-3.39,9.01-5.98,18.58-11.11,27.72-16.9,4.32-2.73,8.6-5.53,12.83-8.4,2.12-1.44,4.22-2.9,6.3-4.38,1.91-1.36,3.86-3.29,5.95-4.33,16.15-12.04,31.41-25.29,45.45-39.74,10.32-10.62,19.98-21.89,28.71-33.87,14.38,4.22,35.22,11.73,45.81,16.07,49.14,20.29,88.45,53.06,113.68,94.82,35.35,58.46,47.5,138.39,34.21,224.99-8.6,55.89-27.92,130.97-96.55,138.18-71.79,7.55-158.81-17.42-204.53-77.27-14.76-19.32-21.85-39.06-24.97-59.98-1.14-7.47-1.77-15.1-2.02-22.95-.25-7.09-.21-14.3,0-21.77Z"/>
  <path class="cls-2" d="M812.69,205.24c-115.14,0-208.53,93.36-208.53,208.56s93.39,208.5,208.53,208.5,208.53-93.36,208.53-208.5-93.36-208.56-208.53-208.56ZM812.69,551.89c-76.25,0-138.1-61.85-138.1-138.1s61.85-138.09,138.1-138.09,138.1,61.82,138.1,138.09-61.82,138.1-138.1,138.1Z"/>
  <path class="cls-2" d="M1346.63,1407.87c-68.87,0-124.75,55.85-124.75,124.78,0,35.85,15.12,68.17,39.34,90.86-22.02,18.56-57.03,16.84-57.45,16.78-38.29-2.35-63.87-24.13-78.12-66.46-12.41-36.75-10.97-74.26-10.97-74.53l.03-262.09c73.05-16.87,118.6-81.13,135.53-191.57,15.7-102.22.39-198.17-43.11-270.16-32.75-54.2-83.15-96.46-145.78-122.28-2.92-1.23-21.69-8.62-40.61-14.76-25.28-8.22-59.86-19.49-76.61,8.1-21.48,35.37-59.38,70.19-103.96,95.44-29.4,16.66-52.45,2.23-97.97-34.7l-2.32-1.87c-12.59-10.24-25.76-23.23-38.44-35.76-6.81-6.72-13.8-13.62-20.73-20.12-16.48-15.48-39.86-22.38-62.39-18.53-126.71,21.96-209.88,106.46-240.58,244.5-15.97,71.61-13.47,139.39-10.63,173.13h67.78c-2.5-26.45-6.3-92.27,9.07-160.12,24.91-109.69,87.45-173.97,185.84-191,1.81-.27,3.58.15,4.67,1.2,6.36,5.93,12.74,12.26,19.55,18.92,13.86,13.71,28.2,27.9,43.35,40.16l2.32,1.9c24.16,19.67,53.5,43.41,87.51,52.78v182.17h.06c-.48,65.13,19.64,129.24,69.08,173.94,47.87,43.32,119.3,70.16,190.87,73.42v254.98c-3.04,69.92,24.88,202.8,152.1,210.64.54.03,2.95.21,6.84.21,20.55,0,81.82-4.31,117.22-52.6,7.5,1.45,15.3,2.2,23.23,2.2,68.93,0,124.78-55.88,124.78-124.78s-55.85-124.78-124.78-124.78ZM1087.01,1173.59c-71.79,7.53-158.79-17.44-204.52-77.27-14.76-19.34-21.84-39.07-24.97-59.98-1.14-7.47-1.78-15.12-2.02-22.96-.24-7.08-.21-14.31,0-21.78v-163.31c0-4.88-.12-11,0-15.91,0-.36,2.23-1.66,2.53-1.87,1.63-1.17,3.25-2.29,4.91-3.4,9.01-5.96,18.56-11.09,27.72-16.87,4.31-2.74,8.59-5.54,12.83-8.41,2.11-1.45,4.22-2.92,6.3-4.4,1.9-1.36,3.86-3.28,5.93-4.34,16.15-12.02,31.42-25.27,45.46-39.74,10.3-10.6,19.97-21.87,28.71-33.86,14.37,4.22,35.22,11.75,45.79,16.09,49.16,20.27,88.45,53.05,113.69,94.8,35.34,58.47,47.48,138.4,34.19,225.01-8.59,55.88-27.93,130.96-96.55,138.19ZM1346.63,1590.1c-31.72,0-57.45-25.73-57.45-57.45s25.73-57.45,57.45-57.45,57.45,25.73,57.45,57.45-25.73,57.45-57.45,57.45Z"/>
</svg>