<?xml version="1.0" encoding="UTF-8"?>
<svg id="Capa_1" data-name="Capa 1" xmlns="http://www.w3.org/2000/svg" viewBox="0 0 2389.65 860.52">
  <defs>
    <style>
      .cls-1 {
        fill: #45878d;
      }

      .cls-2 {
        fill: #33403e;
      }

      .cls-3 {
        fill: #353f3d;
      }
    </style>
  </defs>
  <g>
    <path class="cls-1" d="M428.09,106.92c-56.64,0-102.58,45.92-102.58,102.58s45.94,102.56,102.58,102.56,102.58-45.92,102.58-102.56-45.94-102.58-102.58-102.58ZM428.09,277.43c-37.51,0-67.93-30.42-67.93-67.93s30.42-67.93,67.93-67.93,67.93,30.42,67.93,67.93-30.42,67.93-67.93,67.93Z"/>
    <path class="cls-1" d="M785.4,243.75h-195.53c-1.29,0-2.34-1.06-2.34-2.34V52.1c0-20.77-16.85-37.62-37.62-37.62h-242.22c-20.77,0-37.62,16.85-37.62,37.62v189.31c0,1.29-1.06,2.34-2.34,2.34H72.19c-20.77,0-37.62,16.85-37.62,37.62v238.07c0,20.77,16.85,37.62,37.62,37.62h195.53c1.29,0,2.34,1.06,2.34,2.34v199.68c0,20.77,16.85,37.62,37.62,37.62h211.57c9.73,0,17.64-7.91,17.64-17.64,0-4.86-1.97-9.27-5.17-12.47-3.2-3.2-7.61-5.17-12.47-5.17h-211.57c-1.29,0-2.34-1.06-2.34-2.34v-199.68c0-20.77-16.85-37.62-37.62-37.62h-25.46c-1.22-13.01-3.09-45.4,4.46-78.76,12.26-53.97,43.01-85.59,91.42-93.95.89-.15,1.76.06,2.3.58,3.11,2.93,6.27,6.04,9.61,9.32,6.83,6.74,13.88,13.71,21.33,19.75l1.14.93c11.89,9.67,26.31,21.35,43.05,25.96v89.61h.02c-.23,32.04,9.67,63.57,33.99,85.57,23.55,21.31,58.68,34.5,93.89,36.1v125.42c-1.49,34.4,12.24,99.76,74.82,103.62.27.02,1.45.1,3.36.1,10.1,0,40.25-2.12,57.66-25.87,3.69.71,7.53,1.08,11.43,1.08,33.9,0,61.37-27.49,61.37-61.37s-27.47-61.37-61.37-61.37-61.37,27.47-61.37,61.37c0,17.64,7.45,33.53,19.36,44.69-10.83,9.13-28.05,8.28-28.26,8.26-18.84-1.16-31.41-11.87-38.43-32.7-6.1-18.07-5.39-36.52-5.39-36.66l.02-128.91c35.94-8.3,58.34-39.92,66.66-94.24,7.72-50.27.19-97.48-21.2-132.89-16.1-26.66-40.9-47.45-71.71-60.15-1.43-.6-10.66-4.23-19.98-7.26-12.43-4.05-29.44-9.59-37.68,3.98-10.56,17.41-29.21,34.53-51.15,46.95-14.46,8.2-25.79,1.1-48.18-17.08l-1.14-.91c-6.2-5.04-12.68-11.43-18.92-17.59-3.34-3.3-6.78-6.7-10.19-9.9-8.11-7.61-19.61-11.02-30.69-9.11-62.33,10.79-103.24,52.37-118.35,120.26-7.84,35.23-6.62,68.57-5.23,85.17H72.19c-1.29,0-2.34-1.06-2.34-2.34v-238.07c0-1.29,1.06-2.34,2.34-2.34h195.53c20.77,0,37.62-16.85,37.62-37.62V52.1c0-1.29,1.06-2.34,2.34-2.34h242.22c1.29,0,2.34,1.06,2.34,2.34v189.31c0,20.77,16.85,37.62,37.62,37.62h195.53c1.29,0,2.34,1.06,2.34,2.34v235.99c0,1.29-1.06,2.34-2.34,2.34h-97.39c-9.73,0-17.64,7.91-17.64,17.64,0,4.86,1.97,9.27,5.17,12.47,3.2,3.2,7.59,5.17,12.47,5.17h97.39c20.77,0,37.62-16.85,37.62-37.62v-235.99c0-20.77-16.85-37.62-37.62-37.62ZM690.74,731.61c15.6,0,28.26,12.66,28.26,28.26s-12.66,28.26-28.26,28.26-28.26-12.66-28.26-28.26,12.66-28.26,28.26-28.26ZM449.15,493.73v-80.33c0-2.41-.06-5.42,0-7.83,0-.19,1.1-.81,1.25-.92.79-.57,1.59-1.13,2.41-1.67,4.43-2.94,9.14-5.47,13.63-8.31,2.12-1.34,4.23-2.72,6.31-4.13,1.04-.71,2.07-1.43,3.1-2.16.94-.67,1.9-1.62,2.92-2.13,7.94-5.92,15.45-12.44,22.36-19.55,5.08-5.22,9.83-10.77,14.12-16.66,7.08,2.07,17.32,5.77,22.53,7.91,24.17,9.98,43.51,26.1,55.92,46.64,17.39,28.76,23.36,68.08,16.83,110.67-4.23,27.49-13.74,64.42-47.49,67.97-35.31,3.71-78.12-8.57-100.61-38.01-7.26-9.5-10.75-19.21-12.28-29.5-.56-3.67-.87-7.43-1-11.29-.12-3.49-.1-7.03,0-10.71Z"/>
  </g>
  <g>
    <path class="cls-2" d="M428.09,106.91c-56.64,0-102.58,45.92-102.58,102.59s45.94,102.56,102.58,102.56,102.58-45.92,102.58-102.56-45.92-102.59-102.58-102.59ZM428.09,277.43c-37.51,0-67.93-30.42-67.93-67.93s30.42-67.93,67.93-67.93,67.93,30.41,67.93,67.93-30.41,67.93-67.93,67.93Z"/>
    <path class="cls-2" d="M690.74,698.49c-33.88,0-61.36,27.47-61.36,61.38,0,17.63,7.44,33.53,19.35,44.69-10.83,9.13-28.05,8.28-28.26,8.25-18.83-1.16-31.42-11.87-38.42-32.69-6.11-18.08-5.39-36.53-5.39-36.66v-128.92c35.95-8.3,58.36-39.91,66.68-94.23,7.72-50.28.19-97.48-21.21-132.89-16.11-26.66-40.9-47.45-71.71-60.15-1.44-.61-10.67-4.24-19.98-7.26-12.43-4.05-29.44-9.59-37.68,3.99-10.57,17.4-29.21,34.53-51.14,46.95-14.46,8.19-25.8,1.1-48.19-17.07l-1.14-.92c-6.19-5.04-12.67-11.43-18.91-17.59-3.35-3.3-6.79-6.7-10.2-9.9-8.11-7.62-19.61-11.01-30.69-9.11-62.33,10.8-103.24,52.37-118.34,120.27-7.85,35.22-6.62,68.57-5.23,85.16h33.34c-1.23-13.01-3.1-45.39,4.46-78.76,12.26-53.96,43.02-85.58,91.42-93.95.89-.13,1.76.07,2.3.59,3.13,2.92,6.27,6.03,9.62,9.31,6.82,6.74,13.87,13.72,21.32,19.75l1.14.93c11.88,9.68,26.32,21.35,43.05,25.96v89.61h.03c-.24,32.04,9.66,63.57,33.98,85.56,23.55,21.31,58.68,34.51,93.89,36.11v125.43c-1.5,34.39,12.24,99.76,74.82,103.61.27.01,1.45.1,3.36.1,10.11,0,40.25-2.12,57.66-25.87,3.69.71,7.53,1.08,11.43,1.08,33.91,0,61.38-27.49,61.38-61.38s-27.47-61.38-61.38-61.38ZM563.03,583.25c-35.31,3.7-78.11-8.58-100.6-38.01-7.26-9.51-10.74-19.22-12.28-29.5-.56-3.68-.87-7.44-.99-11.29-.12-3.48-.1-7.04,0-10.71v-80.33c0-2.4-.06-5.41,0-7.82,0-.18,1.1-.82,1.24-.92.8-.58,1.6-1.13,2.42-1.67,4.43-2.93,9.13-5.45,13.63-8.3,2.12-1.35,4.22-2.73,6.31-4.13,1.04-.71,2.07-1.44,3.1-2.16.93-.67,1.9-1.62,2.92-2.13,7.94-5.91,15.46-12.43,22.36-19.55,5.07-5.22,9.82-10.76,14.12-16.66,7.07,2.07,17.32,5.78,22.52,7.91,24.18,9.97,43.51,26.1,55.93,46.63,17.38,28.76,23.35,68.08,16.82,110.68-4.22,27.49-13.74,64.42-47.49,67.97ZM690.74,788.13c-15.6,0-28.26-12.65-28.26-28.26s12.66-28.26,28.26-28.26,28.26,12.66,28.26,28.26-12.66,28.26-28.26,28.26Z"/>
  </g>
  <g>
    <path class="cls-2" d="M1009.48,248.2h120.37l160.91,397.97h-119.15l-18.43-51.59h-167.05l-18.43,51.59h-119.15l160.91-397.97ZM1121.87,504.91l-47.29-134.5c-3.68-9.83-4.3-13.51-4.91-15.97,0,0-1.23,5.53-4.91,15.97l-47.29,134.5h104.41Z"/>
    <path class="cls-2" d="M1329.44,248.2h99.49l78,111.78c12.9,19.04,33.78,51.59,33.78,51.59,0,0,20.88-32.55,33.78-51.59l78-111.78h99.49v397.97h-116.69v-201.44s-20.27,32.55-31.32,47.9l-63.26,88.44-63.87-88.44c-11.05-15.35-30.71-46.68-30.71-46.68v200.22h-116.69V248.2Z"/>
    <path class="cls-1" d="M1819.52,248.2h116.69v148.62h119.76v-148.62h116.69v397.97h-116.69v-150.47h-119.76v150.47h-116.69V248.2Z"/>
    <path class="cls-1" d="M2240.21,248.2h116.69v397.97h-116.69V248.2Z"/>
  </g>
  <g>
    <path class="cls-3" d="M877.84,720.53c-.97-.73-2.08-1.09-3.34-1.09h-14.3c-1.26,0-2.37.36-3.34,1.09-.97.73-1.62,1.72-1.96,2.98l-13,46.04h16.05l2.51-10.82h13.8l2.51,10.82h16.05l-13-46.04c-.34-1.26-.99-2.25-1.96-2.98ZM863.01,747.68l2.49-10.75c.19-.92.36-1.88.51-2.87.14-.99.26-1.95.36-2.87h1.96c.1.92.22,1.88.36,2.87.14.99.31,1.95.51,2.87l2.49,10.75h-8.68Z"/>
    <path class="cls-3" d="M915.02,757.05c-.92,0-1.66-.24-2.21-.73-.56-.48-.84-1.11-.84-1.89v-35h-15.76v38.99c0,3.39,1.08,6.14,3.23,8.24,2.15,2.11,5.05,3.16,8.68,3.16,4.11,0,8.29-.05,12.52-.15,4.24-.1,8.22-.39,11.94-.87l-.73-11.76h-16.84Z"/>
    <rect class="cls-3" x="937.31" y="719.44" width="15.61" height="50.1"/>
    <path class="cls-3" d="M992.49,720.53c-.97-.73-2.08-1.09-3.34-1.09h-14.31c-1.26,0-2.37.36-3.34,1.09-.97.73-1.62,1.72-1.96,2.98l-13,46.04h16.05l2.51-10.82h13.79l2.51,10.82h16.05l-13-46.04c-.34-1.26-.99-2.25-1.96-2.98ZM977.66,747.68l2.49-10.75c.19-.92.36-1.88.51-2.87.14-.99.27-1.95.36-2.87h1.96c.1.92.22,1.88.36,2.87.14.99.31,1.95.51,2.87l2.49,10.75h-8.68Z"/>
    <path class="cls-3" d="M1042.74,739.91c0,1.5.06,3,.18,4.5.12,1.5.28,3.03.47,4.57h-.51c-.58-1.6-1.2-3.12-1.85-4.57-.65-1.45-1.32-2.78-2-3.99l-10.46-16.41c-.87-1.5-1.69-2.64-2.47-3.41-.77-.77-1.99-1.16-3.63-1.16h-6.03c-3.63,0-5.45,1.81-5.45,5.45v44.66h14.52v-21.2c0-1.45-.06-2.97-.18-4.54-.12-1.57-.3-3.11-.55-4.61h.51c.44,1.5.93,2.99,1.49,4.47.56,1.48,1.17,2.84,1.85,4.1l10.89,17.21c.82,1.5,1.63,2.64,2.43,3.41.8.78,2.02,1.16,3.67,1.16h6.03c3.63,0,5.45-1.81,5.45-5.45v-44.66h-14.45l.07,20.48Z"/>
    <polygon class="cls-3" points="1102.43 730.47 1102.43 719.44 1064.09 719.44 1064.09 730.47 1085.02 730.47 1063.36 758.5 1063.36 769.54 1103.15 769.54 1103.15 758.5 1080.77 758.5 1102.43 730.47"/>
    <path class="cls-3" d="M1140.91,720.53c-.97-.73-2.08-1.09-3.34-1.09h-14.3c-1.26,0-2.37.36-3.34,1.09-.97.73-1.62,1.72-1.96,2.98l-13,46.04h16.05l2.51-10.82h13.79l2.51,10.82h16.05l-13-46.04c-.34-1.26-.99-2.25-1.96-2.98ZM1126.08,747.68l2.49-10.75c.19-.92.36-1.88.51-2.87.14-.99.26-1.95.36-2.87h1.96c.1.92.22,1.88.36,2.87.15.99.32,1.95.51,2.87l2.49,10.75h-8.68Z"/>
    <path class="cls-3" d="M1228.63,719.44h-13.87c-3.44,0-5.45,1.62-6.03,4.86l-3.41,19.9c-.19,1.21-.35,2.44-.47,3.7-.12,1.26-.25,2.52-.4,3.78h-.65c-.1-1.26-.21-2.52-.33-3.78-.12-1.26-.28-2.49-.47-3.7l-3.63-19.9c-.58-3.24-2.57-4.86-5.95-4.86h-13.58c-3.54,0-5.37,1.81-5.52,5.45l-1.74,44.66h14.16l1.23-38.34h1.09l5.01,25.56c.58,3.2,2.59,4.79,6.03,4.79h8.13c3.49,0,5.47-1.6,5.96-4.79l4.94-25.56h1.09l1.53,38.34h14.16l-1.74-44.66c-.14-3.63-1.99-5.45-5.52-5.45Z"/>
    <path class="cls-3" d="M1259.19,731.93c.53-.48,1.26-.73,2.18-.73h18.37l.73-11.11c-2.42-.34-5.11-.57-8.06-.69-2.95-.12-5.97-.19-9.04-.22-3.08-.02-6.06-.04-8.97-.04-3.44,0-6.26,1.05-8.46,3.16-2.2,2.11-3.3,4.85-3.3,8.24v27.88c0,3.39,1.1,6.14,3.3,8.24,2.2,2.11,5.02,3.16,8.46,3.16,2.9,0,5.89-.01,8.97-.04,3.07-.03,6.09-.11,9.04-.25,2.95-.14,5.64-.36,8.06-.65l-.73-11.11h-18.37c-.92,0-1.65-.24-2.18-.73s-.8-1.11-.8-1.89v-6.03h18.73v-10.46h-18.73v-4.87c0-.77.27-1.4.8-1.89Z"/>
    <polygon class="cls-3" points="1277.93 709.78 1272.19 700.12 1255.27 711.01 1259.41 717.26 1277.93 709.78"/>
    <path class="cls-3" d="M1326.29,723.98c-1.84-1.91-4.25-3.27-7.22-4.07-2.98-.8-6.62-1.2-10.93-1.2s-8.1.07-11.51.22c-3.41.15-6.72.32-9.91.51v50.1c3.15.19,6.46.36,9.95.51,3.49.15,7.31.22,11.47.22s7.95-.4,10.93-1.2c2.98-.8,5.38-2.15,7.22-4.07,1.84-1.91,3.17-4.54,3.99-7.88.82-3.34,1.23-7.55,1.23-12.64s-.41-9.29-1.23-12.63c-.82-3.34-2.15-5.97-3.99-7.88ZM1314.31,753.42c-.39,2.08-1.07,3.51-2.03,4.28-.97.78-2.35,1.16-4.14,1.16-2.01,0-3.89-.02-5.66-.05v-28.71h5.66c1.79,0,3.17.39,4.14,1.16.97.78,1.65,2.2,2.03,4.28.39,2.08.58,5.06.58,8.93s-.19,6.85-.58,8.93Z"/>
    <rect class="cls-3" x="1338.12" y="719.44" width="15.61" height="50.1"/>
    <path class="cls-3" d="M1392.18,757.01c-2.45.07-5.48.11-9.11.11-1.65,0-2.92-.35-3.81-1.05-.9-.7-1.51-1.96-1.85-3.78-.34-1.81-.51-4.42-.51-7.81s.17-5.99.51-7.81c.34-1.81.96-3.07,1.85-3.78.9-.7,2.17-1.05,3.81-1.05,2.32,0,4.31.01,5.95.04,1.65.02,3.2.04,4.65.04s3.03.02,4.72.07l1.16-11.47c-1.65-.48-3.23-.86-4.76-1.13-1.53-.26-3.21-.47-5.05-.62-1.84-.14-4.07-.22-6.68-.22-5.52,0-9.95.83-13.29,2.51-3.34,1.67-5.75,4.39-7.23,8.17-1.48,3.78-2.21,8.86-2.21,15.25s.74,11.47,2.21,15.25c1.48,3.78,3.88,6.5,7.23,8.17,3.34,1.67,7.77,2.5,13.29,2.5,3.92,0,7.2-.18,9.84-.54,2.64-.36,5.22-.98,7.73-1.85l-1.16-11.47c-2.42.24-4.85.4-7.3.47Z"/>
    <path class="cls-3" d="M1437.67,720.53c-.97-.73-2.08-1.09-3.34-1.09h-14.3c-1.26,0-2.37.36-3.34,1.09-.97.73-1.62,1.72-1.96,2.98l-13,46.04h16.05l2.51-10.82h13.8l2.51,10.82h16.05l-13-46.04c-.34-1.26-.99-2.25-1.96-2.98ZM1422.84,747.68l2.49-10.75c.19-.92.36-1.88.51-2.87.14-.99.26-1.95.36-2.87h1.96c.1.92.22,1.88.36,2.87.15.99.32,1.95.51,2.87l2.49,10.75h-8.68Z"/>
    <polygon class="cls-3" points="1498.67 737.44 1486.03 737.44 1486.03 719.44 1470.27 719.44 1470.27 769.54 1486.03 769.54 1486.03 748.48 1498.67 748.48 1498.67 769.54 1514.42 769.54 1514.42 719.44 1498.67 719.44 1498.67 737.44"/>
    <path class="cls-3" d="M1562.49,723.72c-1.84-1.94-4.25-3.3-7.22-4.1-2.98-.8-6.62-1.2-10.93-1.2s-7.88.4-10.85,1.2c-2.98.8-5.39,2.17-7.23,4.1-1.84,1.94-3.17,4.59-3.99,7.95-.82,3.37-1.23,7.64-1.23,12.82s.41,9.39,1.23,12.78c.82,3.39,2.15,6.05,3.99,7.99,1.84,1.94,4.25,3.3,7.23,4.1,2.98.8,6.59,1.2,10.85,1.2s7.95-.4,10.93-1.2c2.98-.8,5.38-2.17,7.22-4.1,1.84-1.94,3.17-4.6,3.99-7.99.82-3.39,1.23-7.65,1.23-12.78s-.41-9.45-1.23-12.82c-.82-3.36-2.15-6.01-3.99-7.95ZM1550.51,753.42c-.39,2.08-1.06,3.51-2.03,4.28-.97.78-2.35,1.16-4.14,1.16s-3.17-.39-4.14-1.16c-.97-.77-1.65-2.2-2.03-4.28-.39-2.08-.58-5.06-.58-8.93s.19-6.85.58-8.93c.39-2.08,1.07-3.51,2.03-4.28.97-.77,2.35-1.16,4.14-1.16s3.17.39,4.14,1.16c.97.78,1.65,2.2,2.03,4.28.39,2.08.58,5.06.58,8.93s-.19,6.85-.58,8.93Z"/>
    <path class="cls-3" d="M1601.7,739.99l-9.08-3.78c-1.7-.68-2.84-1.25-3.45-1.71-.6-.46-.91-1.03-.91-1.71,0-.39.07-.7.22-.94.14-.24.39-.44.73-.58.34-.14.81-.24,1.42-.29.6-.05,1.37-.07,2.29-.07,3.15,0,6.33.01,9.55.04,3.22.03,5.92.06,8.1.11l.94-10.09c-3-1.06-6.13-1.75-9.4-2.07-3.27-.31-6.21-.47-8.82-.47-3.78,0-6.98.24-9.62.73-2.64.48-4.76,1.28-6.35,2.4-1.6,1.11-2.77,2.61-3.52,4.5-.75,1.89-1.13,4.26-1.13,7.12,0,3.68.85,6.66,2.54,8.93,1.69,2.28,4.58,4.33,8.64,6.17l9.95,4.36c.92.34,1.62.65,2.11.94.48.29.82.59,1.02.91.19.32.29.71.29,1.2,0,.44-.13.79-.4,1.05-.27.27-.75.45-1.45.54-.7.1-1.73.15-3.09.15-.87,0-2.19-.01-3.96-.04-1.77-.02-3.86-.07-6.28-.15-2.42-.07-5.08-.13-7.99-.18l-.95,11.04c4.36,1.11,8.25,1.8,11.69,2.07,3.44.27,6,.4,7.7.4,3.92,0,7.19-.28,9.8-.83,2.61-.56,4.71-1.43,6.28-2.61,1.57-1.19,2.7-2.76,3.38-4.72.68-1.96,1.02-4.34,1.02-7.15,0-3.68-.83-6.69-2.51-9.04-1.67-2.35-4.59-4.42-8.75-6.21Z"/>
    <path class="cls-3" d="M1652.67,720.2c-3-.99-7.16-1.49-12.49-1.49-3.34,0-6.17.01-8.5.04-2.32.02-4.47.09-6.43.18-1.96.1-4.05.27-6.28.51v50.1h15.76v-17.29c.12.01.24.03.36.04,2.42.27,4.84.4,7.26.4,4.6,0,8.25-.49,10.96-1.49,2.71-.99,4.66-2.71,5.85-5.16,1.19-2.44,1.78-5.87,1.78-10.27s-.63-7.91-1.89-10.38c-1.26-2.47-3.39-4.2-6.39-5.19ZM1644.76,739.37c-.29.85-.82,1.43-1.6,1.74-.78.32-1.89.47-3.34.47h-5.08v-11.75c1.6,0,3.29,0,5.08,0,1.45,0,2.56.16,3.34.47.77.32,1.31.91,1.6,1.78.29.87.44,2.11.44,3.7s-.15,2.75-.44,3.59Z"/>
    <rect class="cls-3" x="1666.4" y="719.44" width="15.61" height="50.1"/>
    <polygon class="cls-3" points="1730.8 731.2 1730.8 719.44 1716.79 719.44 1701.03 719.44 1687.02 719.44 1687.02 731.2 1701.03 731.2 1701.03 769.54 1716.79 769.54 1716.79 731.2 1730.8 731.2"/>
    <path class="cls-3" d="M1763.04,720.53c-.97-.73-2.08-1.09-3.34-1.09h-14.3c-1.26,0-2.37.36-3.34,1.09-.97.73-1.62,1.72-1.96,2.98l-13,46.04h16.05l2.51-10.82h13.79l2.51,10.82h16.05l-13-46.04c-.34-1.26-.99-2.25-1.96-2.98ZM1748.21,747.68l2.49-10.75c.19-.92.36-1.88.51-2.87.14-.99.26-1.95.36-2.87h1.96c.1.92.22,1.88.36,2.87.15.99.32,1.95.51,2.87l2.49,10.75h-8.68Z"/>
    <path class="cls-3" d="M1800.22,757.05c-.92,0-1.66-.24-2.21-.73-.56-.48-.83-1.11-.83-1.89v-35h-15.76v38.99c0,3.39,1.08,6.14,3.23,8.24,2.15,2.11,5.05,3.16,8.68,3.16,4.11,0,8.29-.05,12.53-.15,4.24-.1,8.22-.39,11.94-.87l-.73-11.76h-16.85Z"/>
    <path class="cls-3" d="M1853.95,720.53c-.97-.73-2.08-1.09-3.34-1.09h-14.3c-1.26,0-2.37.36-3.34,1.09-.97.73-1.62,1.72-1.96,2.98l-13,46.04h16.05l2.51-10.82h13.79l2.51,10.82h16.05l-13-46.04c-.34-1.26-.99-2.25-1.96-2.98ZM1839.12,747.68l2.49-10.75c.19-.92.36-1.88.51-2.87.14-.99.26-1.95.36-2.87h1.96c.1.92.22,1.88.36,2.87.15.99.32,1.95.51,2.87l2.49,10.75h-8.68Z"/>
    <path class="cls-3" d="M1910.88,749.46c-.97-1.09-2.01-1.86-3.12-2.32-1.11-.46-2.13-.74-3.05-.83v-.44c2.62-.29,4.66-.99,6.14-2.11,1.48-1.11,2.52-2.53,3.12-4.25.6-1.72.91-3.57.91-5.55,0-3.92-.74-6.98-2.21-9.19-1.48-2.2-3.77-3.76-6.86-4.68-3.1-.92-7.12-1.38-12.05-1.38-3.34,0-6.19.01-8.53.04-2.35.02-4.5.09-6.46.18-1.96.1-4.05.27-6.28.51v50.1h15.47v-18.35c1.46.01,3.08.03,4.86.05,1.36,0,2.34.22,2.94.65.6.44,1.05,1.36,1.34,2.76l3.27,14.89h16.48l-3.92-15.39c-.39-2.03-1.07-3.59-2.03-4.68ZM1898.57,738.13c-.32.75-.88,1.27-1.71,1.56-.82.29-1.99.44-3.48.44h-5.45v-10.3c1.7,0,3.51-.01,5.45-.01,1.5,0,2.66.14,3.48.44.82.29,1.39.8,1.71,1.52.32.73.47,1.79.47,3.2s-.16,2.41-.47,3.16Z"/>
    <rect class="cls-3" x="1922.06" y="719.44" width="15.61" height="50.1"/>
    <path class="cls-3" d="M1977.24,720.53c-.97-.73-2.08-1.09-3.34-1.09h-14.3c-1.26,0-2.37.36-3.34,1.09-.97.73-1.62,1.72-1.96,2.98l-13,46.04h16.05l2.51-10.82h13.79l2.51,10.82h16.05l-13-46.04c-.34-1.26-.99-2.25-1.96-2.98ZM1962.41,747.68l2.49-10.75c.19-.92.36-1.88.51-2.87.14-.99.26-1.95.36-2.87h1.96c.1.92.22,1.88.36,2.87.15.99.32,1.95.51,2.87l2.49,10.75h-8.68Z"/>
    <rect class="cls-3" x="2009.85" y="719.44" width="15.61" height="50.1"/>
    <path class="cls-3" d="M2065.25,739.91c0,1.5.06,3,.18,4.5.12,1.5.28,3.03.47,4.57h-.51c-.58-1.6-1.2-3.12-1.85-4.57-.65-1.45-1.32-2.78-2-3.99l-10.46-16.41c-.87-1.5-1.7-2.64-2.47-3.41-.78-.77-1.99-1.16-3.63-1.16h-6.03c-3.63,0-5.45,1.81-5.45,5.45v44.66h14.52v-21.2c0-1.45-.06-2.97-.18-4.54-.12-1.57-.3-3.11-.54-4.61h.51c.44,1.5.93,2.99,1.49,4.47.56,1.48,1.17,2.84,1.85,4.1l10.89,17.21c.82,1.5,1.63,2.64,2.43,3.41.8.78,2.02,1.16,3.67,1.16h6.03c3.63,0,5.45-1.81,5.45-5.45v-44.66h-14.45l.07,20.48Z"/>
    <polygon class="cls-3" points="2098.51 719.44 2084.49 719.44 2084.49 731.2 2098.51 731.2 2098.51 769.54 2114.26 769.54 2114.26 731.2 2128.28 731.2 2128.28 719.44 2114.26 719.44 2098.51 719.44"/>
    <path class="cls-3" d="M2149.4,731.93c.53-.48,1.26-.73,2.18-.73h18.37l.73-11.11c-2.42-.34-5.11-.57-8.06-.69-2.95-.12-5.97-.19-9.04-.22-3.08-.02-6.06-.04-8.97-.04-3.44,0-6.26,1.05-8.46,3.16-2.2,2.11-3.3,4.85-3.3,8.24v27.88c0,3.39,1.1,6.14,3.3,8.24,2.2,2.11,5.02,3.16,8.46,3.16,2.9,0,5.89-.01,8.97-.04,3.07-.03,6.09-.11,9.04-.25,2.95-.14,5.64-.36,8.06-.65l-.73-11.11h-18.37c-.92,0-1.65-.24-2.18-.73-.53-.48-.8-1.11-.8-1.89v-6.03h18.73v-10.46h-18.73v-4.87c0-.77.27-1.4.8-1.89Z"/>
    <path class="cls-3" d="M2203.36,756.67s-.05,0-.07.01c-.73.14-1.54.25-2.43.33-.9.07-1.88.11-2.94.11-1.65,0-2.93-.35-3.85-1.05-.92-.7-1.57-1.96-1.96-3.78-.39-1.81-.58-4.42-.58-7.81,0-2.56.11-4.68.33-6.35.22-1.67.59-2.98,1.12-3.92.53-.94,1.26-1.6,2.18-1.96.92-.36,2.08-.55,3.48-.55,2.27,0,4.31.01,6.1.04,1.79.03,3.52.04,5.19.04s3.42.03,5.26.07l1.16-11.33c-1.74-.53-3.47-.94-5.19-1.23-1.72-.29-3.58-.51-5.59-.65-2.01-.15-4.35-.22-7.01-.22-5.76,0-10.37.83-13.83,2.51-3.46,1.67-5.95,4.41-7.48,8.21-1.53,3.8-2.29,8.92-2.29,15.36s.58,11.35,1.74,15.18c1.16,3.82,2.98,6.6,5.45,8.31s5.61,2.58,9.44,2.58c2.66,0,5.01-.42,7.04-1.27,2.03-.85,3.71-1.88,5.05-3.09.71-.65,1.31-1.26,1.81-1.83l1.35,5.17h11.62v-28.83h-15.1v15.96Z"/>
    <path class="cls-3" d="M2263.77,749.46c-.97-1.09-2.01-1.86-3.12-2.32-1.11-.46-2.13-.74-3.05-.83v-.44c2.61-.29,4.66-.99,6.14-2.11,1.48-1.11,2.52-2.53,3.12-4.25.6-1.72.91-3.57.91-5.55,0-3.92-.74-6.98-2.21-9.19-1.48-2.2-3.77-3.76-6.86-4.68-3.1-.92-7.12-1.38-12.05-1.38-3.34,0-6.19.01-8.53.04-2.35.02-4.5.09-6.46.18-1.96.1-4.05.27-6.28.51v50.1h15.47v-18.35c1.46.01,3.08.03,4.86.05,1.36,0,2.34.22,2.94.65.6.44,1.05,1.36,1.34,2.76l3.27,14.89h16.48l-3.92-15.39c-.39-2.03-1.07-3.59-2.03-4.68ZM2251.46,738.13c-.32.75-.88,1.27-1.71,1.56-.82.29-1.99.44-3.48.44h-5.45v-10.3c1.7,0,3.51-.01,5.45-.01,1.5,0,2.66.14,3.48.44.82.29,1.39.8,1.71,1.52.32.73.47,1.79.47,3.2s-.16,2.41-.47,3.16Z"/>
    <path class="cls-3" d="M2306.39,720.53c-.97-.73-2.08-1.09-3.34-1.09h-14.3c-1.26,0-2.37.36-3.34,1.09-.97.73-1.62,1.72-1.96,2.98l-13,46.04h16.05l2.51-10.82h13.79l2.51,10.82h16.05l-13-46.04c-.34-1.26-.99-2.25-1.96-2.98ZM2291.56,747.68l2.49-10.75c.19-.92.36-1.88.51-2.87.15-.99.27-1.95.36-2.87h1.96c.1.92.22,1.88.36,2.87.15.99.32,1.95.51,2.87l2.49,10.75h-8.68Z"/>
    <path class="cls-3" d="M2360.42,757.05h-16.85c-.92,0-1.66-.24-2.21-.73-.56-.48-.83-1.11-.83-1.89v-35h-15.76v38.99c0,3.39,1.08,6.14,3.23,8.24,2.15,2.11,5.05,3.16,8.68,3.16,4.11,0,8.29-.05,12.52-.15,4.24-.1,8.22-.39,11.94-.87l-.73-11.76Z"/>
  </g>
  <rect class="cls-1" x="1635.61" y="661.41" width="116.25" height="30.97"/>
  <rect class="cls-2" x="2240.18" y="200.27" width="116.71" height="30.97"/>
</svg>