<?xml version="1.0" encoding="UTF-8"?>
<svg id="Capa_1" data-name="Capa 1" xmlns="http://www.w3.org/2000/svg" viewBox="0 0 2389.65 860.52">
  <defs>
    <style>
      .cls-1 {
        fill: #45878d;
      }
    </style>
  </defs>
  <g>
    <path class="cls-1" d="M413.64,102.12c-57.48,0-104.1,46.6-104.1,104.1s46.62,104.08,104.1,104.08,104.1-46.6,104.1-104.08-46.62-104.1-104.1-104.1ZM413.64,275.16c-38.07,0-68.94-30.87-68.94-68.94s30.87-68.94,68.94-68.94,68.94,30.87,68.94,68.94-30.87,68.94-68.94,68.94Z"/>
    <path class="cls-1" d="M776.25,240.99h-198.44c-1.31,0-2.38-1.07-2.38-2.38V46.49c0-21.08-17.1-38.18-38.18-38.18h-245.81c-21.08,0-38.18,17.1-38.18,38.18v192.12c0,1.31-1.07,2.38-2.38,2.38H52.45c-21.08,0-38.18,17.1-38.18,38.18v241.6c0,21.08,17.1,38.18,38.18,38.18h198.44c1.31,0,2.38,1.07,2.38,2.38v202.65c0,21.08,17.1,38.18,38.18,38.18h214.71c9.88,0,17.9-8.02,17.9-17.9,0-4.93-2-9.41-5.24-12.65-3.24-3.24-7.73-5.24-12.65-5.24h-214.71c-1.31,0-2.38-1.07-2.38-2.38v-202.65c0-21.08-17.1-38.18-38.18-38.18h-25.84c-1.24-13.2-3.14-46.07,4.53-79.93,12.44-54.77,43.65-86.86,92.77-95.34.91-.15,1.79.06,2.34.59,3.16,2.97,6.36,6.13,9.75,9.45,6.93,6.84,14.09,13.92,21.65,20.05l1.16.95c12.07,9.81,26.7,21.67,43.69,26.34v90.94h.02c-.23,32.51,9.81,64.52,34.49,86.84,23.9,21.63,59.55,35.02,95.28,36.64v127.29c-1.52,34.91,12.42,101.24,75.93,105.16.27.02,1.47.11,3.41.11,10.25,0,40.85-2.15,58.52-26.26,3.75.72,7.64,1.09,11.6,1.09,34.41,0,62.28-27.9,62.28-62.29s-27.88-62.29-62.28-62.29-62.29,27.88-62.29,62.29c0,17.9,7.56,34.03,19.65,45.36-10.99,9.26-28.47,8.4-28.68,8.38-19.12-1.18-31.88-12.04-39-33.18-6.19-18.34-5.47-37.06-5.47-37.21l.02-130.82c36.47-8.42,59.21-40.51,67.65-95.64,7.83-51.02.19-98.92-21.52-134.87-16.34-27.06-41.5-48.16-72.77-61.04-1.45-.61-10.82-4.3-20.28-7.37-12.61-4.11-29.88-9.73-38.24,4.04-10.72,17.67-29.65,35.04-51.9,47.65-14.68,8.32-26.17,1.12-48.89-17.33l-1.16-.93c-6.3-5.12-12.87-11.6-19.2-17.86-3.39-3.35-6.89-6.8-10.34-10.04-8.23-7.73-19.9-11.18-31.14-9.24-63.25,10.95-104.78,53.15-120.11,122.04-7.96,35.75-6.72,69.59-5.31,86.44H52.45c-1.31,0-2.38-1.07-2.38-2.38v-241.6c0-1.31,1.07-2.38,2.38-2.38h198.44c21.08,0,38.18-17.1,38.18-38.18V46.49c0-1.31,1.07-2.38,2.38-2.38h245.81c1.31,0,2.38,1.07,2.38,2.38v192.12c0,21.08,17.1,38.18,38.18,38.18h198.44c1.31,0,2.38,1.07,2.38,2.38v239.5c0,1.31-1.07,2.38-2.38,2.38h-98.84c-9.88,0-17.9,8.02-17.9,17.9,0,4.93,2,9.41,5.24,12.65,3.24,3.24,7.71,5.24,12.65,5.24h98.84c21.08,0,38.18-17.1,38.18-38.18v-239.5c0-21.08-17.1-38.18-38.18-38.18ZM680.19,736.09c15.83,0,28.68,12.84,28.68,28.68s-12.84,28.68-28.68,28.68-28.68-12.84-28.68-28.68,12.84-28.68,28.68-28.68ZM435.01,494.67v-81.52c0-2.45-.06-5.5,0-7.94,0-.19,1.12-.83,1.27-.94.8-.58,1.62-1.14,2.44-1.69,4.5-2.98,9.27-5.55,13.84-8.43,2.16-1.36,4.29-2.76,6.4-4.19,1.06-.72,2.11-1.45,3.15-2.19.95-.68,1.93-1.64,2.97-2.16,8.06-6.01,15.68-12.62,22.69-19.84,5.15-5.3,9.98-10.93,14.33-16.91,7.18,2.11,17.58,5.85,22.87,8.02,24.53,10.13,44.16,26.49,56.75,47.33,17.65,29.18,23.71,69.09,17.08,112.32-4.3,27.9-13.94,65.38-48.2,68.98-35.84,3.77-79.28-8.7-102.1-38.58-7.37-9.64-10.91-19.5-12.47-29.94-.57-3.73-.88-7.54-1.01-11.45-.13-3.54-.11-7.14,0-10.87Z"/>
  </g>
  <g>
    <path class="cls-1" d="M413.64,102.11c-57.48,0-104.1,46.6-104.1,104.11s46.62,104.08,104.1,104.08,104.1-46.6,104.1-104.08-46.6-104.11-104.1-104.11ZM413.64,275.16c-38.06,0-68.94-30.87-68.94-68.94s30.87-68.94,68.94-68.94,68.94,30.86,68.94,68.94-30.86,68.94-68.94,68.94Z"/>
    <path class="cls-1" d="M680.18,702.47c-34.38,0-62.28,27.88-62.28,62.29,0,17.9,7.55,34.03,19.64,45.36-10.99,9.26-28.47,8.41-28.68,8.38-19.11-1.17-31.88-12.05-39-33.18-6.2-18.35-5.47-37.07-5.47-37.21l.02-130.84c36.47-8.42,59.21-40.5,67.66-95.63,7.84-51.03.2-98.92-21.52-134.87-16.35-27.05-41.51-48.15-72.77-61.04-1.46-.62-10.83-4.3-20.27-7.37-12.62-4.11-29.88-9.73-38.24,4.05-10.72,17.66-29.64,35.04-51.9,47.64-14.68,8.32-26.18,1.11-48.91-17.32l-1.16-.93c-6.29-5.11-12.86-11.59-19.19-17.85-3.4-3.35-6.89-6.8-10.35-10.05-8.23-7.73-19.9-11.17-31.15-9.25-63.25,10.96-104.77,53.15-120.1,122.05-7.97,35.75-6.72,69.58-5.31,86.43h33.84c-1.25-13.2-3.14-46.06,4.53-79.93,12.44-54.76,43.66-86.85,92.77-95.35.9-.14,1.79.07,2.33.6,3.17,2.96,6.36,6.12,9.76,9.44,6.92,6.84,14.08,13.93,21.64,20.05l1.16.95c12.06,9.82,26.71,21.67,43.69,26.35v90.94h.03c-.24,32.51,9.81,64.52,34.48,86.83,23.9,21.63,59.55,35.03,95.28,36.65v127.29c-1.52,34.9,12.42,101.24,75.93,105.15.27.02,1.47.11,3.41.11,10.26,0,40.84-2.15,58.52-26.26,3.74.72,7.64,1.1,11.59,1.1,34.41,0,62.29-27.9,62.29-62.29s-27.88-62.29-62.29-62.29ZM550.58,585.52c-35.84,3.76-79.27-8.71-102.1-38.57-7.37-9.65-10.9-19.51-12.47-29.94-.57-3.73-.89-7.55-1.01-11.46-.12-3.53-.11-7.14,0-10.87v-81.52c0-2.44-.06-5.49,0-7.94,0-.18,1.11-.83,1.26-.93.81-.59,1.62-1.14,2.45-1.7,4.5-2.98,9.26-5.53,13.84-8.42,2.15-1.37,4.29-2.77,6.41-4.2,1.05-.72,2.11-1.46,3.14-2.2.95-.68,1.92-1.64,2.96-2.17,8.06-6,15.69-12.62,22.69-19.84,5.14-5.29,9.97-10.92,14.33-16.9,7.17,2.11,17.58,5.86,22.86,8.03,24.54,10.12,44.15,26.48,56.76,47.33,17.64,29.19,23.7,69.09,17.07,112.32-4.29,27.9-13.94,65.37-48.2,68.98ZM680.18,793.44c-15.84,0-28.68-12.84-28.68-28.68s12.84-28.68,28.68-28.68,28.68,12.84,28.68,28.68-12.84,28.68-28.68,28.68Z"/>
  </g>
  <g>
    <path class="cls-1" d="M1003.65,245.49h122.16l163.3,403.88h-120.91l-18.7-52.35h-169.53l-18.7,52.35h-120.91l163.3-403.88ZM1117.71,506.02l-47.99-136.5c-3.74-9.97-4.36-13.71-4.99-16.2,0,0-1.25,5.61-4.99,16.2l-47.99,136.5h105.96Z"/>
    <path class="cls-1" d="M1328.36,245.49h100.97l79.15,113.43c13.09,19.32,34.28,52.35,34.28,52.35,0,0,21.19-33.03,34.28-52.35l79.16-113.43h100.97v403.88h-118.42v-204.43s-20.57,33.03-31.79,48.61l-64.2,89.75-64.82-89.75c-11.22-15.58-31.16-47.37-31.16-47.37v203.19h-118.42V245.49Z"/>
    <path class="cls-1" d="M1825.72,245.49h118.42v150.83h121.54v-150.83h118.42v403.88h-118.42v-152.7h-121.54v152.7h-118.42V245.49Z"/>
    <path class="cls-1" d="M2252.65,245.49h118.42v403.88h-118.42V245.49Z"/>
  </g>
  <g>
    <path class="cls-1" d="M866.67,723.73c1.28,0,2.41.37,3.39,1.1.98.74,1.64,1.74,1.99,3.02l13.19,46.72h-16.28l-7.66-33.09c-.2-.93-.37-1.9-.52-2.91-.15-1.01-.27-1.98-.37-2.91h-1.99c-.1.93-.22,1.9-.37,2.91-.15,1.01-.32,1.98-.52,2.91l-7.66,33.09h-16.29l13.19-46.72c.34-1.28,1.01-2.28,1.99-3.02s2.11-1.1,3.39-1.1h14.52ZM872.93,752.39v11.2h-27.04v-11.2h27.04Z"/>
    <path class="cls-1" d="M904.69,723.73v35.52c0,.79.28,1.43.85,1.92.56.49,1.31.74,2.25.74h17.09l.74,11.94c-3.78.49-7.82.79-12.12.88-4.3.1-8.54.15-12.71.15-3.68,0-6.62-1.07-8.81-3.21-2.19-2.14-3.28-4.92-3.28-8.36v-39.57h15.99Z"/>
    <path class="cls-1" d="M946.25,723.73v50.85h-15.84v-50.85h15.84Z"/>
    <path class="cls-1" d="M983.03,723.73c1.28,0,2.41.37,3.39,1.1s1.65,1.74,1.99,3.02l13.19,46.72h-16.29l-7.66-33.09c-.2-.93-.37-1.9-.52-2.91-.15-1.01-.27-1.98-.37-2.91h-1.99c-.1.93-.22,1.9-.37,2.91-.15,1.01-.32,1.98-.52,2.91l-7.66,33.09h-16.29l13.19-46.72c.34-1.28,1-2.28,1.99-3.02.98-.74,2.11-1.1,3.39-1.1h14.52ZM989.29,752.39v11.2h-27.04v-11.2h27.04Z"/>
    <path class="cls-1" d="M1052,723.73v45.32c0,3.68-1.84,5.53-5.53,5.53h-6.12c-1.67,0-2.91-.39-3.72-1.18-.81-.79-1.63-1.94-2.47-3.46l-11.05-17.46c-.69-1.28-1.31-2.66-1.88-4.16-.57-1.5-1.07-3.01-1.51-4.53h-.52c.25,1.52.43,3.08.55,4.68.12,1.6.18,3.13.18,4.61v21.52h-14.74v-45.32c0-3.68,1.84-5.53,5.53-5.53h6.12c1.67,0,2.9.39,3.68,1.18.79.79,1.62,1.94,2.51,3.46l10.61,16.65c.69,1.23,1.36,2.58,2.03,4.05.66,1.47,1.29,3.02,1.88,4.64h.52c-.2-1.57-.36-3.12-.48-4.64-.12-1.52-.19-3.05-.19-4.57l-.07-20.78h14.67Z"/>
    <path class="cls-1" d="M1080.37,734.86l17.61.07-22.03,28.52-17.61-.07,22.03-28.52ZM1098.72,763.37v11.2h-40.38v-11.2h40.38ZM1097.98,723.73v11.2h-38.91v-11.2h38.91Z"/>
    <path class="cls-1" d="M1133.64,723.73c1.28,0,2.41.37,3.39,1.1.98.74,1.64,1.74,1.99,3.02l13.19,46.72h-16.29l-7.66-33.09c-.2-.93-.37-1.9-.52-2.91-.15-1.01-.27-1.98-.37-2.91h-1.99c-.1.93-.22,1.9-.37,2.91-.15,1.01-.32,1.98-.52,2.91l-7.66,33.09h-16.29l13.19-46.72c.34-1.28,1.01-2.28,1.99-3.02.98-.74,2.11-1.1,3.39-1.1h14.52ZM1139.91,752.39v11.2h-27.04v-11.2h27.04Z"/>
    <path class="cls-1" d="M1226.05,723.73c3.58,0,5.45,1.84,5.6,5.53l1.77,45.32h-14.37l-1.55-38.91h-1.1l-5.01,25.94c-.49,3.24-2.51,4.86-6.04,4.86h-8.25c-3.49,0-5.53-1.62-6.12-4.86l-5.08-25.94h-1.11l-1.25,38.91h-14.37l1.77-45.32c.15-3.68,2.01-5.53,5.6-5.53h13.78c3.44,0,5.45,1.65,6.04,4.94l3.68,20.19c.2,1.23.36,2.48.48,3.76.12,1.28.23,2.55.33,3.83h.66c.15-1.28.28-2.55.41-3.83.12-1.28.28-2.53.48-3.76l3.46-20.19c.59-3.29,2.63-4.94,6.12-4.94h14.08Z"/>
    <path class="cls-1" d="M1252.21,723.43c2.95,0,5.98.01,9.1.04,3.12.02,6.18.1,9.17.22,3,.12,5.72.36,8.18.7l-.74,11.27h-18.64c-.93,0-1.67.25-2.21.74-.54.49-.81,1.13-.81,1.92v21.67c0,.79.27,1.43.81,1.92s1.28.74,2.21.74h18.64l.74,11.27c-2.46.3-5.18.52-8.18.66-3,.15-6.06.23-9.17.26-3.12.02-6.15.04-9.1.04-3.49,0-6.35-1.07-8.59-3.21-2.24-2.14-3.35-4.92-3.35-8.36v-28.3c0-3.44,1.12-6.23,3.35-8.36,2.24-2.14,5.1-3.21,8.59-3.21ZM1241.6,743.26h33.68v10.61h-33.68v-10.61ZM1270.26,704.13l5.82,9.8-18.79,7.59-4.2-6.34,17.17-11.05Z"/>
    <path class="cls-1" d="M1306.74,722.99c4.37,0,8.07.41,11.09,1.22,3.02.81,5.46,2.19,7.33,4.13,1.87,1.94,3.22,4.61,4.05,8,.83,3.39,1.25,7.66,1.25,12.82s-.42,9.43-1.25,12.82c-.84,3.39-2.19,6.06-4.05,8-1.87,1.94-4.31,3.32-7.33,4.13-3.02.81-6.72,1.22-11.09,1.22s-8.11-.07-11.64-.22c-3.54-.15-6.9-.32-10.1-.52l6.49-11.35c1.72.2,3.89.33,6.52.41,2.63.07,5.54.11,8.73.11,1.82,0,3.22-.39,4.2-1.18.98-.78,1.67-2.23,2.06-4.35.39-2.11.59-5.13.59-9.06s-.2-6.95-.59-9.06c-.39-2.11-1.08-3.56-2.06-4.35-.98-.78-2.38-1.18-4.2-1.18h-7.92c-2.28,0-4.51-.02-6.67-.07l-7.15-10.76c3.24-.2,6.6-.37,10.06-.52,3.46-.15,7.36-.22,11.68-.22ZM1300.99,723.73v50.85h-15.99v-50.85h15.99Z"/>
    <path class="cls-1" d="M1353.02,723.73v50.85h-15.84v-50.85h15.84Z"/>
    <path class="cls-1" d="M1382.79,722.84c2.65,0,4.91.07,6.78.22,1.87.15,3.57.36,5.12.63,1.55.27,3.16.65,4.83,1.14l-1.18,11.64c-1.72-.05-3.32-.07-4.79-.07s-3.05-.01-4.72-.04c-1.67-.02-3.68-.04-6.04-.04-1.67,0-2.96.36-3.87,1.07-.91.71-1.53,1.99-1.88,3.83-.34,1.84-.52,4.48-.52,7.92s.17,6.08.52,7.92c.34,1.84.97,3.12,1.88,3.83.91.71,2.2,1.07,3.87,1.07,3.68,0,6.77-.04,9.25-.11,2.48-.07,4.95-.23,7.4-.48l1.18,11.64c-2.55.88-5.17,1.51-7.85,1.88-2.68.37-6.01.55-9.99.55-5.6,0-10.1-.85-13.48-2.54-3.39-1.69-5.83-4.46-7.33-8.29-1.5-3.83-2.25-8.99-2.25-15.47s.75-11.64,2.25-15.47c1.5-3.83,3.94-6.59,7.33-8.29,3.39-1.7,7.88-2.54,13.48-2.54Z"/>
    <path class="cls-1" d="M1434.81,723.73c1.28,0,2.41.37,3.39,1.1.98.74,1.64,1.74,1.99,3.02l13.19,46.72h-16.29l-7.66-33.09c-.2-.93-.37-1.9-.52-2.91-.15-1.01-.27-1.98-.37-2.91h-1.99c-.1.93-.22,1.9-.37,2.91-.15,1.01-.32,1.98-.52,2.91l-7.66,33.09h-16.29l13.19-46.72c.34-1.28,1.01-2.28,1.99-3.02.98-.74,2.11-1.1,3.39-1.1h14.52ZM1441.07,752.39v11.2h-27.04v-11.2h27.04Z"/>
    <path class="cls-1" d="M1487.28,723.73v50.85h-15.99v-50.85h15.99ZM1500.91,742v11.2h-14.22v-11.2h14.22ZM1516.09,723.73v50.85h-15.99v-50.85h15.99Z"/>
    <path class="cls-1" d="M1546.45,722.7c4.37,0,8.07.41,11.09,1.22,3.02.81,5.46,2.2,7.33,4.16,1.87,1.97,3.22,4.66,4.05,8.07.83,3.42,1.25,7.75,1.25,13.01s-.42,9.53-1.25,12.97c-.84,3.44-2.19,6.14-4.05,8.11-1.87,1.97-4.31,3.35-7.33,4.16-3.02.81-6.72,1.21-11.09,1.21s-8-.41-11.02-1.21c-3.02-.81-5.47-2.2-7.33-4.16s-3.22-4.67-4.05-8.11c-.84-3.44-1.25-7.76-1.25-12.97s.42-9.59,1.25-13.01c.83-3.41,2.19-6.1,4.05-8.07,1.87-1.97,4.31-3.35,7.33-4.16,3.02-.81,6.69-1.22,11.02-1.22ZM1546.45,734.56c-1.82,0-3.22.4-4.2,1.18-.98.79-1.67,2.24-2.06,4.35s-.59,5.13-.59,9.06.2,6.95.59,9.06c.39,2.11,1.08,3.56,2.06,4.35.98.79,2.38,1.18,4.2,1.18s3.22-.39,4.2-1.18c.98-.78,1.67-2.23,2.06-4.35.39-2.11.59-5.13.59-9.06s-.2-6.95-.59-9.06c-.39-2.11-1.08-3.56-2.06-4.35-.98-.78-2.38-1.18-4.2-1.18Z"/>
    <path class="cls-1" d="M1596.12,722.7c2.65,0,5.64.16,8.95.48,3.32.32,6.5,1.02,9.54,2.1l-.96,10.24c-2.21-.05-4.95-.09-8.22-.11-3.27-.02-6.5-.04-9.69-.04-.93,0-1.71.03-2.32.07-.62.05-1.09.15-1.44.29-.34.15-.59.35-.74.59-.15.25-.22.57-.22.96,0,.69.31,1.27.92,1.73.61.47,1.78,1.04,3.5,1.73l9.21,3.83c4.22,1.82,7.18,3.92,8.88,6.3,1.69,2.38,2.54,5.44,2.54,9.17,0,2.85-.34,5.27-1.03,7.26-.69,1.99-1.83,3.59-3.43,4.79-1.6,1.2-3.72,2.09-6.37,2.65-2.65.57-5.97.85-9.95.85-1.72,0-4.32-.14-7.81-.41-3.49-.27-7.44-.97-11.86-2.1l.96-11.2c2.95.05,5.65.11,8.11.18,2.46.07,4.58.12,6.37.15s3.13.04,4.02.04c1.37,0,2.42-.05,3.13-.15.71-.1,1.2-.28,1.47-.55.27-.27.41-.63.41-1.07,0-.49-.1-.9-.3-1.22-.2-.32-.54-.63-1.03-.92-.49-.29-1.2-.61-2.14-.96l-10.1-4.42c-4.13-1.87-7.05-3.95-8.77-6.26-1.72-2.31-2.58-5.33-2.58-9.06,0-2.9.38-5.31,1.14-7.22.76-1.92,1.95-3.44,3.57-4.57,1.62-1.13,3.77-1.94,6.45-2.43,2.68-.49,5.93-.74,9.76-.74Z"/>
    <path class="cls-1" d="M1643.72,722.99c5.4,0,9.63.5,12.67,1.51,3.04,1.01,5.21,2.76,6.48,5.27,1.28,2.51,1.92,6.02,1.92,10.54s-.6,7.95-1.8,10.43c-1.2,2.48-3.18,4.23-5.93,5.23s-6.46,1.51-11.13,1.51c-2.46,0-4.91-.14-7.37-.41-2.46-.27-4.75-.61-6.89-1.03-2.14-.42-3.97-.86-5.49-1.33-1.52-.47-2.58-.9-3.17-1.29l.22-7.22h20.12c1.47,0,2.6-.16,3.39-.48.78-.32,1.33-.91,1.62-1.77.29-.86.44-2.08.44-3.65s-.15-2.87-.44-3.76c-.3-.88-.84-1.48-1.62-1.8-.79-.32-1.92-.48-3.39-.48-5.01,0-9.29.02-12.82.07-3.54.05-5.94.15-7.22.3l-1.11-10.91c2.26-.25,4.39-.42,6.37-.52,1.99-.1,4.16-.16,6.52-.18s5.23-.04,8.62-.04ZM1638.19,723.73v50.85h-15.99v-50.85h15.99Z"/>
    <path class="cls-1" d="M1686.16,723.73v50.85h-15.84v-50.85h15.84Z"/>
    <path class="cls-1" d="M1735.68,723.73v11.94h-44.43v-11.94h44.43ZM1721.46,723.73v50.85h-15.99v-50.85h15.99Z"/>
    <path class="cls-1" d="M1765.01,723.73c1.28,0,2.41.37,3.39,1.1.98.74,1.64,1.74,1.99,3.02l13.19,46.72h-16.29l-7.66-33.09c-.2-.93-.37-1.9-.52-2.91-.15-1.01-.27-1.98-.37-2.91h-1.99c-.1.93-.22,1.9-.37,2.91-.15,1.01-.32,1.98-.52,2.91l-7.66,33.09h-16.29l13.19-46.72c.34-1.28,1.01-2.28,1.99-3.02.98-.74,2.11-1.1,3.39-1.1h14.52ZM1771.27,752.39v11.2h-27.04v-11.2h27.04Z"/>
    <path class="cls-1" d="M1803.03,723.73v35.52c0,.79.28,1.43.85,1.92.56.49,1.31.74,2.25.74h17.1l.74,11.94c-3.78.49-7.82.79-12.12.88-4.3.1-8.54.15-12.71.15-3.68,0-6.62-1.07-8.81-3.21-2.19-2.14-3.28-4.92-3.28-8.36v-39.57h15.99Z"/>
    <path class="cls-1" d="M1857.27,723.73c1.28,0,2.41.37,3.39,1.1.98.74,1.64,1.74,1.99,3.02l13.19,46.72h-16.29l-7.66-33.09c-.2-.93-.37-1.9-.52-2.91-.15-1.01-.27-1.98-.37-2.91h-1.99c-.1.93-.22,1.9-.37,2.91-.15,1.01-.32,1.98-.52,2.91l-7.66,33.09h-16.29l13.19-46.72c.34-1.28,1.01-2.28,1.99-3.02.98-.74,2.11-1.1,3.39-1.1h14.52ZM1863.53,752.39v11.2h-27.04v-11.2h27.04Z"/>
    <path class="cls-1" d="M1901.04,722.99c5.01,0,9.09.47,12.23,1.4,3.14.93,5.46,2.52,6.96,4.75,1.5,2.24,2.25,5.34,2.25,9.32,0,2.01-.31,3.89-.92,5.64-.62,1.74-1.67,3.18-3.17,4.31-1.5,1.13-3.57,1.84-6.23,2.14v.44c.93.1,1.97.38,3.1.85,1.13.47,2.19,1.25,3.17,2.36.98,1.11,1.67,2.69,2.06,4.75l3.98,15.62h-16.73l-3.32-15.11c-.3-1.42-.75-2.36-1.36-2.8-.62-.44-1.61-.66-2.99-.66-3.68-.05-6.69-.07-9.03-.07s-4.31-.02-5.93-.07c-1.62-.05-3.24-.12-4.86-.22l.22-10.91h20.19c1.52,0,2.7-.15,3.54-.44.84-.3,1.41-.82,1.73-1.58.32-.76.48-1.83.48-3.21s-.16-2.51-.48-3.24c-.32-.74-.9-1.25-1.73-1.55-.84-.3-2.01-.44-3.54-.44-5.11,0-9.41.02-12.9.07-3.49.05-5.87.15-7.15.3l-1.18-10.91c2.26-.25,4.39-.42,6.37-.52,1.99-.1,4.18-.16,6.56-.18,2.38-.02,5.27-.04,8.66-.04ZM1895.14,723.73v50.85h-15.7v-50.85h15.7Z"/>
    <path class="cls-1" d="M1945.62,723.73v50.85h-15.84v-50.85h15.84Z"/>
    <path class="cls-1" d="M1982.39,723.73c1.28,0,2.41.37,3.39,1.1.98.74,1.64,1.74,1.99,3.02l13.19,46.72h-16.29l-7.66-33.09c-.2-.93-.37-1.9-.52-2.91-.15-1.01-.27-1.98-.37-2.91h-1.99c-.1.93-.22,1.9-.37,2.91-.15,1.01-.32,1.98-.52,2.91l-7.66,33.09h-16.29l13.19-46.72c.34-1.28,1.01-2.28,1.99-3.02.98-.74,2.11-1.1,3.39-1.1h14.52ZM1988.65,752.39v11.2h-27.04v-11.2h27.04Z"/>
    <path class="cls-1" d="M2034.71,723.73v50.85h-15.84v-50.85h15.84Z"/>
    <path class="cls-1" d="M2089.68,723.73v45.32c0,3.68-1.84,5.53-5.53,5.53h-6.12c-1.67,0-2.91-.39-3.72-1.18-.81-.79-1.63-1.94-2.47-3.46l-11.05-17.46c-.69-1.28-1.31-2.66-1.88-4.16-.57-1.5-1.07-3.01-1.51-4.53h-.52c.25,1.52.43,3.08.55,4.68.12,1.6.18,3.13.18,4.61v21.52h-14.74v-45.32c0-3.68,1.84-5.53,5.53-5.53h6.12c1.67,0,2.9.39,3.68,1.18.78.79,1.62,1.94,2.51,3.46l10.61,16.65c.69,1.23,1.36,2.58,2.03,4.05.66,1.47,1.29,3.02,1.88,4.64h.52c-.2-1.57-.36-3.12-.48-4.64-.12-1.52-.19-3.05-.19-4.57l-.07-20.78h14.66Z"/>
    <path class="cls-1" d="M2139.05,723.73v11.94h-44.43v-11.94h44.43ZM2124.83,723.73v50.85h-15.99v-50.85h15.99Z"/>
    <path class="cls-1" d="M2155.63,723.43c2.95,0,5.98.01,9.1.04,3.12.02,6.18.1,9.17.22,3,.12,5.72.36,8.18.7l-.74,11.27h-18.64c-.93,0-1.67.25-2.21.74-.54.49-.81,1.13-.81,1.92v21.67c0,.79.27,1.43.81,1.92s1.28.74,2.21.74h18.64l.74,11.27c-2.46.3-5.18.52-8.18.66-3,.15-6.06.23-9.17.26-3.12.02-6.15.04-9.1.04-3.49,0-6.35-1.07-8.59-3.21s-3.35-4.92-3.35-8.36v-28.3c0-3.44,1.12-6.23,3.35-8.36,2.24-2.14,5.1-3.21,8.59-3.21ZM2145.02,743.26h33.68v10.61h-33.68v-10.61Z"/>
    <path class="cls-1" d="M2210.39,722.7c2.7,0,5.07.07,7.11.22,2.04.15,3.93.37,5.67.66,1.74.3,3.5.71,5.27,1.25l-1.18,11.5c-1.87-.05-3.65-.07-5.34-.07s-3.45-.01-5.27-.04c-1.82-.02-3.88-.04-6.19-.04-1.43,0-2.6.19-3.54.55-.93.37-1.67,1.03-2.21,1.99-.54.96-.92,2.29-1.14,3.98-.22,1.69-.33,3.84-.33,6.45,0,3.44.2,6.08.59,7.92.39,1.84,1.06,3.12,1.99,3.83.93.71,2.24,1.07,3.91,1.07,1.08,0,2.08-.04,2.98-.11.91-.07,1.73-.19,2.47-.33.74-.15,1.33-.27,1.77-.37l1.55,6.71c-.59.98-1.56,2.09-2.91,3.32-1.35,1.23-3.06,2.27-5.12,3.13-2.06.86-4.45,1.29-7.15,1.29-3.88,0-7.07-.87-9.58-2.62-2.51-1.74-4.35-4.56-5.53-8.44-1.18-3.88-1.77-9.01-1.77-15.4s.77-11.73,2.32-15.58c1.55-3.86,4.08-6.63,7.59-8.33,3.51-1.69,8.19-2.54,14.04-2.54ZM2230.58,745.32v29.25h-11.79l-2.06-7.89-1.47-2.73v-18.64h15.33Z"/>
    <path class="cls-1" d="M2259.17,722.99c5.01,0,9.09.47,12.23,1.4,3.14.93,5.46,2.52,6.96,4.75,1.5,2.24,2.25,5.34,2.25,9.32,0,2.01-.31,3.89-.92,5.64-.62,1.74-1.67,3.18-3.17,4.31-1.5,1.13-3.57,1.84-6.23,2.14v.44c.93.1,1.97.38,3.1.85,1.13.47,2.19,1.25,3.17,2.36.98,1.11,1.67,2.69,2.06,4.75l3.98,15.62h-16.73l-3.32-15.11c-.3-1.42-.75-2.36-1.36-2.8-.62-.44-1.61-.66-2.99-.66-3.68-.05-6.69-.07-9.03-.07s-4.31-.02-5.93-.07c-1.62-.05-3.24-.12-4.86-.22l.22-10.91h20.19c1.52,0,2.7-.15,3.54-.44.84-.3,1.41-.82,1.73-1.58.32-.76.48-1.83.48-3.21s-.16-2.51-.48-3.24c-.32-.74-.9-1.25-1.73-1.55-.84-.3-2.01-.44-3.54-.44-5.11,0-9.41.02-12.9.07-3.49.05-5.87.15-7.15.3l-1.18-10.91c2.26-.25,4.39-.42,6.37-.52,1.99-.1,4.18-.16,6.56-.18,2.38-.02,5.27-.04,8.66-.04ZM2253.27,723.73v50.85h-15.7v-50.85h15.7Z"/>
    <path class="cls-1" d="M2316.43,723.73c1.28,0,2.41.37,3.39,1.1.98.74,1.64,1.74,1.99,3.02l13.19,46.72h-16.29l-7.66-33.09c-.2-.93-.37-1.9-.52-2.91-.15-1.01-.27-1.98-.37-2.91h-1.99c-.1.93-.22,1.9-.37,2.91-.15,1.01-.32,1.98-.52,2.91l-7.66,33.09h-16.29l13.19-46.72c.34-1.28,1.01-2.28,1.99-3.02.98-.74,2.11-1.1,3.39-1.1h14.52ZM2322.69,752.39v11.2h-27.04v-11.2h27.04Z"/>
    <path class="cls-1" d="M2354.45,723.73v35.52c0,.79.28,1.43.85,1.92.56.49,1.31.74,2.25.74h17.1l.74,11.94c-3.78.49-7.82.79-12.12.88-4.3.1-8.54.15-12.71.15-3.68,0-6.62-1.07-8.81-3.21-2.19-2.14-3.28-4.92-3.28-8.36v-39.57h15.99Z"/>
  </g>
  <rect class="cls-1" x="1639.07" y="664.84" width="117.98" height="31.43"/>
  <rect class="cls-1" x="2252.62" y="196.86" width="118.45" height="31.43"/>
</svg>