<?xml version="1.0" encoding="UTF-8"?>
<svg id="Capa_1" data-name="Capa 1" xmlns="http://www.w3.org/2000/svg" viewBox="0 0 1375.08 475.96">
  <defs>
    <style>
      .cls-1 {
        fill: #45878d;
      }

      .cls-2 {
        fill: #33403e;
      }
    </style>
  </defs>
  <g>
    <path class="cls-2" d="M165.68,56.12h105.89l141.54,350.08h-104.81l-16.21-45.38h-146.95l-16.21,45.38H24.13L165.68,56.12ZM264.54,281.94l-41.6-118.31c-3.24-8.64-3.78-11.88-4.32-14.05,0,0-1.08,4.86-4.32,14.05l-41.6,118.31h91.84Z"/>
    <path class="cls-2" d="M447.13,56.12h87.52l68.61,98.32c11.35,16.75,29.71,45.38,29.71,45.38,0,0,18.37-28.63,29.71-45.38l68.61-98.32h87.52v350.08h-102.65v-177.2s-17.83,28.63-27.55,42.14l-55.64,77.8-56.19-77.8c-9.72-13.51-27.01-41.06-27.01-41.06v176.12h-102.65V56.12Z"/>
    <path class="cls-1" d="M878.24,56.12h102.65v130.74h105.35V56.12h102.65v350.08h-102.65v-132.36h-105.35v132.36h-102.65V56.12Z"/>
    <path class="cls-1" d="M1248.3,56.12h102.65v350.08h-102.65V56.12Z"/>
  </g>
  <rect class="cls-1" x="716.46" y="419.61" width="102.26" height="27.24"/>
  <rect class="cls-2" x="1248.28" y="13.96" width="102.67" height="27.24"/>
</svg>