<?xml version="1.0" encoding="UTF-8"?>
<svg id="Capa_1" data-name="Capa 1" xmlns="http://www.w3.org/2000/svg" viewBox="0 0 1628.22 1725.17">
  <defs>
    <style>
      .cls-1 {
        fill: #45878d;
      }

      .cls-2 {
        fill: #33403e;
      }
    </style>
  </defs>
  <path class="cls-1" d="M1340.64,587.2h-288.71c-1.9,0-3.46-1.56-3.46-3.46v-279.52c0-30.67-24.88-55.54-55.54-55.54h-357.64c-30.67,0-55.54,24.88-55.54,55.54v279.52c0,1.9-1.56,3.46-3.46,3.46h-288.71c-30.67,0-55.54,24.88-55.54,55.54v351.51c0,30.67,24.88,55.54,55.54,55.54h288.71c1.9,0,3.46,1.56,3.46,3.46v294.84c0,30.67,24.88,55.54,55.54,55.54h312.39c14.37,0,26.04-11.67,26.04-26.04,0-7.17-2.91-13.69-7.63-18.41-4.72-4.72-11.24-7.63-18.41-7.63h-312.39c-1.9,0-3.46-1.56-3.46-3.46v-294.84c0-30.67-24.88-55.54-55.54-55.54h-37.59c-1.81-19.21-4.56-67.03,6.59-116.29,18.11-79.68,63.51-126.37,134.98-138.72,1.32-.21,2.6.09,3.4.86,4.6,4.32,9.25,8.92,14.18,13.76,10.08,9.96,20.5,20.25,31.49,29.16l1.69,1.38c17.55,14.28,38.85,31.52,63.57,38.33v132.31h.03c-.34,47.3,14.28,93.87,50.18,126.34,34.77,31.46,86.64,50.95,138.63,53.31v185.19c-2.21,50.79,18.08,147.3,110.47,152.99.4.03,2.14.15,4.96.15,14.92,0,59.43-3.12,85.14-38.2,5.45,1.04,11.12,1.59,16.88,1.59,50.06,0,90.62-40.59,90.62-90.62s-40.56-90.62-90.62-90.62-90.62,40.56-90.62,90.62c0,26.04,11,49.51,28.58,65.99-15.99,13.48-41.42,12.22-41.73,12.19-27.82-1.72-46.38-17.52-56.74-48.28-9.01-26.68-7.97-53.92-7.97-54.13l.03-190.34c53.06-12.25,86.15-58.94,98.43-139.15,11.4-74.23.28-143.93-31.31-196.22-23.77-39.37-60.38-70.06-105.88-88.81-2.11-.89-15.75-6.25-29.5-10.72-18.35-5.97-43.47-14.15-55.63,5.88-15.59,25.7-43.13,50.98-75.52,69.33-21.35,12.1-38.08,1.62-71.14-25.21l-1.68-1.35c-9.16-7.44-18.72-16.88-27.94-25.98-4.93-4.87-10.02-9.9-15.04-14.61-11.98-11.24-28.95-16.27-45.31-13.45-92.03,15.93-152.44,77.32-174.74,177.56-11.58,52.02-9.77,101.25-7.72,125.76h-201.89c-1.9,0-3.46-1.56-3.46-3.46v-351.51c0-1.9,1.56-3.46,3.46-3.46h288.71c30.67,0,55.54-24.88,55.54-55.54v-279.52c0-1.9,1.56-3.46,3.46-3.46h357.64c1.9,0,3.46,1.56,3.46,3.46v279.52c0,30.67,24.88,55.54,55.54,55.54h288.71c1.9,0,3.46,1.56,3.46,3.46v348.45c0,1.9-1.56,3.46-3.46,3.46h-143.8c-14.37,0-26.04,11.67-26.04,26.04,0,7.17,2.91,13.69,7.63,18.41,4.72,4.72,11.21,7.63,18.41,7.63h143.8c30.67,0,55.54-24.88,55.54-55.54v-348.45c0-30.67-24.88-55.54-55.54-55.54ZM1200.88,1307.53c23.04,0,41.73,18.69,41.73,41.73s-18.69,41.73-41.73,41.73-41.73-18.69-41.73-41.73,18.69-41.73,41.73-41.73ZM844.16,956.3v-118.61c0-3.56-.09-8,0-11.56,0-.28,1.63-1.2,1.85-1.36,1.16-.85,2.35-1.66,3.55-2.46,6.54-4.34,13.49-8.07,20.13-12.27,3.14-1.99,6.25-4.01,9.32-6.1,1.54-1.05,3.06-2.11,4.58-3.18,1.39-.99,2.8-2.39,4.32-3.14,11.73-8.75,22.82-18.37,33.01-28.86,7.5-7.71,14.51-15.9,20.85-24.6,10.45,3.06,25.58,8.52,33.27,11.67,35.69,14.74,64.24,38.54,82.56,68.87,25.67,42.46,34.5,100.51,24.85,163.41-6.25,40.59-20.28,95.12-70.12,100.36-52.14,5.48-115.34-12.65-148.55-56.12-10.72-14.03-15.87-28.37-18.14-43.56-.83-5.42-1.29-10.97-1.47-16.67-.18-5.15-.15-10.39,0-15.81Z"/>
  <path class="cls-2" d="M813.08,385.15c-83.63,0-151.45,67.81-151.45,151.48s67.83,151.43,151.45,151.43,151.45-67.81,151.45-151.43-67.81-151.48-151.45-151.48ZM813.08,636.93c-55.38,0-100.3-44.92-100.3-100.3s44.92-100.3,100.3-100.3,100.3,44.9,100.3,100.3-44.9,100.3-100.3,100.3Z"/>
  <path class="cls-2" d="M1200.88,1258.63c-50.02,0-90.61,40.57-90.61,90.63,0,26.04,10.98,49.51,28.58,65.99-15.99,13.48-41.42,12.23-41.73,12.19-27.81-1.71-46.39-17.53-56.74-48.27-9.01-26.69-7.96-53.93-7.96-54.13l.02-190.36c53.06-12.25,86.14-58.92,98.44-139.14,11.4-74.24.28-143.93-31.31-196.22-23.78-39.36-60.39-70.06-105.88-88.81-2.12-.9-15.75-6.26-29.49-10.72-18.36-5.97-43.48-14.16-55.64,5.89-15.6,25.69-43.13,50.98-75.51,69.32-21.35,12.1-38.09,1.62-71.15-25.21l-1.68-1.36c-9.15-7.44-18.71-16.87-27.92-25.97-4.94-4.88-10.02-9.89-15.05-14.62-11.97-11.25-28.95-16.26-45.31-13.46-92.03,15.95-152.44,77.32-174.73,177.58-11.6,52.01-9.78,101.24-7.72,125.74h49.23c-1.82-19.21-4.57-67.02,6.59-116.29,18.09-79.67,63.52-126.36,134.98-138.72,1.31-.2,2.6.11,3.39.87,4.62,4.31,9.26,8.9,14.2,13.74,10.06,9.96,20.48,20.26,31.49,29.17l1.68,1.38c17.55,14.29,38.86,31.53,63.56,38.33v132.31h.04c-.35,47.3,14.27,93.87,50.17,126.34,34.77,31.46,86.65,50.96,138.63,53.32v185.19c-2.21,50.78,18.07,147.3,110.47,152.99.39.02,2.14.15,4.97.15,14.92,0,59.43-3.13,85.14-38.2,5.45,1.05,11.12,1.6,16.87,1.6,50.06,0,90.63-40.59,90.63-90.63s-40.57-90.63-90.63-90.63ZM1012.32,1088.47c-52.14,5.47-115.33-12.67-148.54-56.12-10.72-14.05-15.86-28.38-18.14-43.56-.83-5.43-1.29-10.98-1.47-16.67-.18-5.14-.15-10.39,0-15.82v-118.61c0-3.54-.09-7.99,0-11.55,0-.26,1.62-1.2,1.84-1.36,1.18-.85,2.36-1.66,3.57-2.47,6.54-4.33,13.48-8.05,20.13-12.25,3.13-1.99,6.24-4.03,9.32-6.1,1.53-1.05,3.06-2.12,4.57-3.19,1.38-.98,2.8-2.38,4.31-3.15,11.73-8.73,22.82-18.36,33.02-28.86,7.48-7.7,14.51-15.88,20.85-24.59,10.44,3.06,25.58,8.53,33.26,11.68,35.71,14.73,64.24,38.53,82.58,68.86,25.67,42.47,34.48,100.52,24.83,163.42-6.24,40.59-20.28,95.11-70.13,100.36ZM1200.88,1390.98c-23.04,0-41.73-18.69-41.73-41.73s18.69-41.72,41.73-41.72,41.73,18.69,41.73,41.72-18.69,41.73-41.73,41.73Z"/>
</svg>