<?xml version="1.0" encoding="UTF-8"?>
<svg id="Capa_1" data-name="Capa 1" xmlns="http://www.w3.org/2000/svg" viewBox="0 0 1369.57 1611.53">
  <defs>
    <style>
      .cls-1 {
        fill: #46878e;
      }

      .cls-2 {
        fill: #34403f;
      }
    </style>
  </defs>
  <g>
    <g>
      <path class="cls-1" d="M683.86,138.3c-75.23,0-136.24,60.98-136.24,136.24s61.01,136.21,136.24,136.21,136.24-60.98,136.24-136.21-61.01-136.24-136.24-136.24ZM683.86,364.76c-49.82,0-90.22-40.4-90.22-90.22s40.4-90.22,90.22-90.22,90.22,40.4,90.22,90.22-40.4,90.22-90.22,90.22Z"/>
      <path class="cls-1" d="M1158.39,320.03h-259.69c-1.71,0-3.11-1.41-3.11-3.11V65.5c0-27.58-22.38-49.96-49.96-49.96h-321.69c-27.58,0-49.96,22.38-49.96,49.96v251.42c0,1.71-1.41,3.11-3.11,3.11H211.18c-27.58,0-49.96,22.38-49.96,49.96v316.18c0,27.58,22.38,49.96,49.96,49.96h259.69c1.71,0,3.11,1.41,3.11,3.11v265.2c0,27.58,22.38,49.96,49.96,49.96h280.99c12.92,0,23.42-10.5,23.42-23.42,0-6.45-2.62-12.32-6.86-16.56-4.24-4.24-10.11-6.86-16.56-6.86h-280.99c-1.71,0-3.11-1.41-3.11-3.11v-265.2c0-27.58-22.38-49.96-49.96-49.96h-33.81c-1.63-17.28-4.11-60.29,5.92-104.6,16.29-71.67,57.12-113.67,121.41-124.77,1.18-.19,2.34.08,3.06.77,4.13,3.89,8.32,8.02,12.76,12.37,9.07,8.96,18.43,18.21,28.33,26.23l1.52,1.24c15.79,12.84,34.94,28.36,57.18,34.47v119.01h.03c-.3,42.55,12.84,84.43,45.14,113.64,31.28,28.3,77.93,45.83,124.69,47.95v166.58c-1.98,45.69,16.26,132.49,99.37,137.61.36.03,1.93.14,4.46.14,13.42,0,53.46-2.81,76.58-34.36,4.9.94,10,1.43,15.18,1.43,45.03,0,81.51-36.51,81.51-81.51s-36.48-81.51-81.51-81.51-81.51,36.48-81.51,81.51c0,23.42,9.89,44.53,25.71,59.36-14.38,12.12-37.26,10.99-37.53,10.97-25.02-1.54-41.72-15.76-51.03-43.43-8.1-24-7.16-48.5-7.16-48.69l.03-171.21c47.73-11.02,77.49-53.02,88.54-125.16,10.25-66.77.25-129.46-28.16-176.5-21.38-35.41-54.31-63.02-95.23-79.88-1.9-.8-14.16-5.62-26.54-9.64-16.51-5.37-39.1-12.73-50.04,5.29-14.03,23.12-38.8,45.85-67.93,62.36-19.21,10.88-34.25,1.46-63.99-22.68l-1.52-1.21c-8.24-6.7-16.84-15.18-25.13-23.37-4.44-4.38-9.01-8.9-13.53-13.14-10.77-10.11-26.04-14.63-40.76-12.1-82.78,14.33-137.12,69.55-157.18,159.71-10.42,46.79-8.79,91.07-6.94,113.12h-181.59c-1.71,0-3.11-1.41-3.11-3.11v-316.18c0-1.71,1.41-3.11,3.11-3.11h259.69c27.58,0,49.96-22.38,49.96-49.96V65.5c0-1.71,1.41-3.11,3.11-3.11h321.69c1.71,0,3.11,1.41,3.11,3.11v251.42c0,27.58,22.38,49.96,49.96,49.96h259.69c1.71,0,3.11,1.41,3.11,3.11v313.42c0,1.71-1.41,3.11-3.11,3.11h-129.35c-12.92,0-23.42,10.5-23.42,23.42,0,6.45,2.62,12.32,6.86,16.56,4.24,4.24,10.09,6.86,16.56,6.86h129.35c27.58,0,49.96-22.38,49.96-49.96v-313.42c0-27.58-22.38-49.96-49.96-49.96ZM1032.68,967.96c20.72,0,37.53,16.81,37.53,37.53s-16.81,37.53-37.53,37.53-37.53-16.81-37.53-37.53,16.81-37.53,37.53-37.53ZM711.82,652.03v-106.69c0-3.2-.08-7.19,0-10.4,0-.25,1.46-1.08,1.66-1.23,1.05-.76,2.12-1.5,3.19-2.21,5.89-3.91,12.14-7.26,18.11-11.04,2.82-1.79,5.62-3.61,8.38-5.49,1.38-.94,2.75-1.89,4.12-2.86,1.25-.89,2.52-2.15,3.88-2.83,10.55-7.87,20.52-16.52,29.69-25.96,6.74-6.94,13.06-14.3,18.75-22.12,9.4,2.76,23.01,7.66,29.93,10.5,32.1,13.25,57.79,34.67,74.26,61.95,23.09,38.19,31.03,90.41,22.35,146.98-5.62,36.51-18.24,85.56-63.08,90.27-46.9,4.93-103.75-11.38-133.62-50.48-9.64-12.62-14.27-25.52-16.31-39.18-.74-4.88-1.16-9.87-1.32-14.99-.17-4.63-.14-9.34,0-14.22Z"/>
    </g>
    <g>
      <path class="cls-2" d="M683.85,138.3c-75.22,0-136.23,60.99-136.23,136.25s61.01,136.21,136.23,136.21,136.23-60.99,136.23-136.21-60.99-136.25-136.23-136.25ZM683.85,364.76c-49.81,0-90.22-40.4-90.22-90.22s40.4-90.22,90.22-90.22,90.22,40.38,90.22,90.22-40.38,90.22-90.22,90.22Z"/>
      <path class="cls-2" d="M1032.68,923.97c-44.99,0-81.5,36.49-81.5,81.52,0,23.42,9.88,44.54,25.7,59.36-14.39,12.12-37.26,11-37.53,10.96-25.01-1.54-41.72-15.76-51.03-43.42-8.11-24.01-7.16-48.51-7.16-48.69l.02-171.22c47.73-11.02,77.48-53,88.54-125.15,10.25-66.78.26-129.46-28.16-176.5-21.39-35.41-54.32-63.02-95.23-79.88-1.91-.81-14.17-5.63-26.53-9.64-16.51-5.37-39.11-12.73-50.05,5.29-14.03,23.11-38.79,45.86-67.92,62.35-19.21,10.88-34.26,1.46-64-22.67l-1.52-1.22c-8.23-6.69-16.83-15.17-25.11-23.36-4.45-4.39-9.01-8.9-13.54-13.15-10.77-10.12-26.04-14.62-40.76-12.1-82.78,14.35-137.12,69.55-157.17,159.73-10.43,46.78-8.8,91.06-6.95,113.1h44.28c-1.63-17.28-4.11-60.28,5.92-104.6,16.28-71.66,57.13-113.66,121.41-124.78,1.18-.18,2.34.1,3.05.79,4.15,3.88,8.33,8.01,12.77,12.36,9.05,8.95,18.42,18.22,28.32,26.23l1.52,1.24c15.78,12.85,34.95,28.36,57.17,34.48v119.01h.04c-.31,42.55,12.83,84.43,45.13,113.64,31.27,28.3,77.94,45.84,124.7,47.96v166.58c-1.99,45.68,16.26,132.49,99.37,137.61.35.02,1.93.14,4.47.14,13.42,0,53.45-2.81,76.58-34.36,4.9.94,10,1.44,15.17,1.44,45.03,0,81.52-36.51,81.52-81.52s-36.49-81.52-81.52-81.52ZM863.07,770.91c-46.9,4.92-103.74-11.4-133.61-50.48-9.64-12.63-14.27-25.53-16.32-39.18-.75-4.88-1.16-9.88-1.32-15-.16-4.62-.14-9.35,0-14.23v-106.69c0-3.19-.08-7.18,0-10.39,0-.24,1.46-1.08,1.65-1.22,1.06-.77,2.13-1.5,3.21-2.22,5.88-3.9,12.12-7.24,18.11-11.02,2.81-1.79,5.61-3.62,8.38-5.49,1.38-.94,2.76-1.91,4.11-2.87,1.24-.89,2.52-2.14,3.88-2.83,10.55-7.85,20.53-16.51,29.7-25.96,6.73-6.93,13.05-14.29,18.76-22.12,9.39,2.76,23.01,7.68,29.91,10.51,32.12,13.25,57.78,34.66,74.27,61.93,23.09,38.2,31.02,90.41,22.34,147-5.61,36.51-18.24,85.55-63.08,90.28ZM1032.68,1043.02c-20.72,0-37.53-16.81-37.53-37.53s16.81-37.53,37.53-37.53,37.53,16.81,37.53,37.53-16.81,37.53-37.53,37.53Z"/>
    </g>
  </g>
  <g>
    <g>
      <path class="cls-2" d="M162.93,1205.26h105.89l141.54,350.08h-104.81l-16.21-45.38h-146.95l-16.21,45.38H21.38l141.54-350.08ZM261.79,1431.08l-41.6-118.31c-3.24-8.64-3.78-11.88-4.32-14.05,0,0-1.08,4.86-4.32,14.05l-41.6,118.31h91.84Z"/>
      <path class="cls-2" d="M444.38,1205.26h87.52l68.61,98.32c11.35,16.75,29.71,45.38,29.71,45.38,0,0,18.37-28.63,29.71-45.38l68.61-98.32h87.52v350.08h-102.65v-177.2s-17.83,28.63-27.55,42.14l-55.64,77.8-56.19-77.8c-9.72-13.51-27.01-41.06-27.01-41.06v176.12h-102.65v-350.08Z"/>
      <path class="cls-1" d="M875.48,1205.26h102.65v130.74h105.35v-130.74h102.65v350.08h-102.65v-132.36h-105.35v132.36h-102.65v-350.08Z"/>
      <path class="cls-1" d="M1245.55,1205.26h102.65v350.08h-102.65v-350.08Z"/>
    </g>
    <rect class="cls-1" x="713.7" y="1568.75" width="102.26" height="27.24"/>
    <rect class="cls-2" x="1245.52" y="1163.1" width="102.67" height="27.24"/>
  </g>
</svg>